ISO-10303-21;
HEADER;
/* Generated by software containing ST-Developer
 * from STEP Tools, Inc. (www.steptools.com) 
 */
/* OPTION: using custom schema-name function */

FILE_DESCRIPTION(
/* description */ (''),
/* implementation_level */ '2;1');

FILE_NAME(
/* name */ 'schoring_head_1',
/* time_stamp */ '2025-09-21T23:05:37+02:00',
/* author */ (''),
/* organization */ (''),
/* preprocessor_version */ 'ST-DEVELOPER v19.2',
/* originating_system */ 'Rhino 8.23',
/* authorisation */ '');

FILE_SCHEMA (('CONFIG_CONTROL_DESIGN'));
ENDSEC;

DATA;
#10=SHAPE_REPRESENTATION_RELATIONSHIP('','',#428,#12);
#11=MANIFOLD_SOLID_BREP('brep_1',#13);
#12=ADVANCED_BREP_SHAPE_REPRESENTATION('brep_rep_0',(#11,#464),#427);
#13=CLOSED_SHELL('',(#14,#15,#16,#17,#18,#19,#20,#21,#22,#23,#24,#25,#26,
#27,#28,#29,#30,#31));
#14=ADVANCED_FACE('',(#48,#32,#33,#34,#35,#36,#37,#38,#39),#332,.T.);
#15=ADVANCED_FACE('',(#49),#333,.T.);
#16=ADVANCED_FACE('',(#50),#334,.T.);
#17=ADVANCED_FACE('',(#51),#335,.T.);
#18=ADVANCED_FACE('',(#52),#336,.T.);
#19=ADVANCED_FACE('',(#53),#337,.T.);
#20=ADVANCED_FACE('',(#54),#338,.T.);
#21=ADVANCED_FACE('',(#55),#339,.T.);
#22=ADVANCED_FACE('',(#56),#340,.T.);
#23=ADVANCED_FACE('',(#57),#324,.F.);
#24=ADVANCED_FACE('',(#58),#325,.F.);
#25=ADVANCED_FACE('',(#59),#326,.F.);
#26=ADVANCED_FACE('',(#60),#327,.F.);
#27=ADVANCED_FACE('',(#61),#328,.F.);
#28=ADVANCED_FACE('',(#62),#329,.F.);
#29=ADVANCED_FACE('',(#63),#330,.F.);
#30=ADVANCED_FACE('',(#64),#331,.F.);
#31=ADVANCED_FACE('',(#65,#40,#41,#42,#43,#44,#45,#46,#47),#341,.T.);
#32=FACE_BOUND('',#67,.T.);
#33=FACE_BOUND('',#68,.T.);
#34=FACE_BOUND('',#69,.T.);
#35=FACE_BOUND('',#70,.T.);
#36=FACE_BOUND('',#71,.T.);
#37=FACE_BOUND('',#72,.T.);
#38=FACE_BOUND('',#73,.T.);
#39=FACE_BOUND('',#74,.T.);
#40=FACE_BOUND('',#92,.T.);
#41=FACE_BOUND('',#93,.T.);
#42=FACE_BOUND('',#94,.T.);
#43=FACE_BOUND('',#95,.T.);
#44=FACE_BOUND('',#96,.T.);
#45=FACE_BOUND('',#97,.T.);
#46=FACE_BOUND('',#98,.T.);
#47=FACE_BOUND('',#99,.T.);
#48=FACE_OUTER_BOUND('',#66,.T.);
#49=FACE_OUTER_BOUND('',#75,.T.);
#50=FACE_OUTER_BOUND('',#76,.T.);
#51=FACE_OUTER_BOUND('',#77,.T.);
#52=FACE_OUTER_BOUND('',#78,.T.);
#53=FACE_OUTER_BOUND('',#79,.T.);
#54=FACE_OUTER_BOUND('',#80,.T.);
#55=FACE_OUTER_BOUND('',#81,.T.);
#56=FACE_OUTER_BOUND('',#82,.T.);
#57=FACE_OUTER_BOUND('',#83,.T.);
#58=FACE_OUTER_BOUND('',#84,.T.);
#59=FACE_OUTER_BOUND('',#85,.T.);
#60=FACE_OUTER_BOUND('',#86,.T.);
#61=FACE_OUTER_BOUND('',#87,.T.);
#62=FACE_OUTER_BOUND('',#88,.T.);
#63=FACE_OUTER_BOUND('',#89,.T.);
#64=FACE_OUTER_BOUND('',#90,.T.);
#65=FACE_OUTER_BOUND('',#91,.T.);
#66=EDGE_LOOP('',(#100,#101,#102,#103,#104,#105,#106,#107));
#67=EDGE_LOOP('',(#108));
#68=EDGE_LOOP('',(#109));
#69=EDGE_LOOP('',(#110));
#70=EDGE_LOOP('',(#111));
#71=EDGE_LOOP('',(#112));
#72=EDGE_LOOP('',(#113));
#73=EDGE_LOOP('',(#114));
#74=EDGE_LOOP('',(#115));
#75=EDGE_LOOP('',(#116,#117,#118,#119));
#76=EDGE_LOOP('',(#120,#121,#122,#123));
#77=EDGE_LOOP('',(#124,#125,#126,#127));
#78=EDGE_LOOP('',(#128,#129,#130,#131));
#79=EDGE_LOOP('',(#132,#133,#134,#135));
#80=EDGE_LOOP('',(#136,#137,#138,#139));
#81=EDGE_LOOP('',(#140,#141,#142,#143));
#82=EDGE_LOOP('',(#144,#145,#146,#147));
#83=EDGE_LOOP('',(#148,#149,#150,#151));
#84=EDGE_LOOP('',(#152,#153,#154,#155));
#85=EDGE_LOOP('',(#156,#157,#158,#159));
#86=EDGE_LOOP('',(#160,#161,#162,#163));
#87=EDGE_LOOP('',(#164,#165,#166,#167));
#88=EDGE_LOOP('',(#168,#169,#170,#171));
#89=EDGE_LOOP('',(#172,#173,#174,#175));
#90=EDGE_LOOP('',(#176,#177,#178,#179));
#91=EDGE_LOOP('',(#180,#181,#182,#183,#184,#185,#186,#187));
#92=EDGE_LOOP('',(#188));
#93=EDGE_LOOP('',(#189));
#94=EDGE_LOOP('',(#190));
#95=EDGE_LOOP('',(#191));
#96=EDGE_LOOP('',(#192));
#97=EDGE_LOOP('',(#193));
#98=EDGE_LOOP('',(#194));
#99=EDGE_LOOP('',(#195));
#100=ORIENTED_EDGE('',*,*,#205,.F.);
#101=ORIENTED_EDGE('',*,*,#206,.F.);
#102=ORIENTED_EDGE('',*,*,#207,.F.);
#103=ORIENTED_EDGE('',*,*,#208,.F.);
#104=ORIENTED_EDGE('',*,*,#209,.F.);
#105=ORIENTED_EDGE('',*,*,#210,.F.);
#106=ORIENTED_EDGE('',*,*,#211,.F.);
#107=ORIENTED_EDGE('',*,*,#196,.F.);
#108=ORIENTED_EDGE('',*,*,#197,.F.);
#109=ORIENTED_EDGE('',*,*,#198,.F.);
#110=ORIENTED_EDGE('',*,*,#199,.F.);
#111=ORIENTED_EDGE('',*,*,#200,.F.);
#112=ORIENTED_EDGE('',*,*,#201,.F.);
#113=ORIENTED_EDGE('',*,*,#202,.F.);
#114=ORIENTED_EDGE('',*,*,#203,.F.);
#115=ORIENTED_EDGE('',*,*,#204,.F.);
#116=ORIENTED_EDGE('',*,*,#214,.F.);
#117=ORIENTED_EDGE('',*,*,#213,.F.);
#118=ORIENTED_EDGE('',*,*,#212,.F.);
#119=ORIENTED_EDGE('',*,*,#196,.T.);
#120=ORIENTED_EDGE('',*,*,#216,.F.);
#121=ORIENTED_EDGE('',*,*,#215,.F.);
#122=ORIENTED_EDGE('',*,*,#214,.T.);
#123=ORIENTED_EDGE('',*,*,#211,.T.);
#124=ORIENTED_EDGE('',*,*,#218,.F.);
#125=ORIENTED_EDGE('',*,*,#217,.F.);
#126=ORIENTED_EDGE('',*,*,#216,.T.);
#127=ORIENTED_EDGE('',*,*,#210,.T.);
#128=ORIENTED_EDGE('',*,*,#220,.F.);
#129=ORIENTED_EDGE('',*,*,#219,.F.);
#130=ORIENTED_EDGE('',*,*,#218,.T.);
#131=ORIENTED_EDGE('',*,*,#209,.T.);
#132=ORIENTED_EDGE('',*,*,#222,.F.);
#133=ORIENTED_EDGE('',*,*,#221,.F.);
#134=ORIENTED_EDGE('',*,*,#220,.T.);
#135=ORIENTED_EDGE('',*,*,#208,.T.);
#136=ORIENTED_EDGE('',*,*,#224,.F.);
#137=ORIENTED_EDGE('',*,*,#223,.F.);
#138=ORIENTED_EDGE('',*,*,#222,.T.);
#139=ORIENTED_EDGE('',*,*,#207,.T.);
#140=ORIENTED_EDGE('',*,*,#226,.F.);
#141=ORIENTED_EDGE('',*,*,#225,.F.);
#142=ORIENTED_EDGE('',*,*,#224,.T.);
#143=ORIENTED_EDGE('',*,*,#206,.T.);
#144=ORIENTED_EDGE('',*,*,#212,.T.);
#145=ORIENTED_EDGE('',*,*,#227,.F.);
#146=ORIENTED_EDGE('',*,*,#226,.T.);
#147=ORIENTED_EDGE('',*,*,#205,.T.);
#148=ORIENTED_EDGE('',*,*,#228,.T.);
#149=ORIENTED_EDGE('',*,*,#229,.F.);
#150=ORIENTED_EDGE('',*,*,#228,.F.);
#151=ORIENTED_EDGE('',*,*,#197,.T.);
#152=ORIENTED_EDGE('',*,*,#230,.T.);
#153=ORIENTED_EDGE('',*,*,#231,.F.);
#154=ORIENTED_EDGE('',*,*,#230,.F.);
#155=ORIENTED_EDGE('',*,*,#198,.T.);
#156=ORIENTED_EDGE('',*,*,#232,.T.);
#157=ORIENTED_EDGE('',*,*,#233,.F.);
#158=ORIENTED_EDGE('',*,*,#232,.F.);
#159=ORIENTED_EDGE('',*,*,#199,.T.);
#160=ORIENTED_EDGE('',*,*,#234,.T.);
#161=ORIENTED_EDGE('',*,*,#235,.F.);
#162=ORIENTED_EDGE('',*,*,#234,.F.);
#163=ORIENTED_EDGE('',*,*,#200,.T.);
#164=ORIENTED_EDGE('',*,*,#236,.T.);
#165=ORIENTED_EDGE('',*,*,#237,.F.);
#166=ORIENTED_EDGE('',*,*,#236,.F.);
#167=ORIENTED_EDGE('',*,*,#201,.T.);
#168=ORIENTED_EDGE('',*,*,#238,.T.);
#169=ORIENTED_EDGE('',*,*,#239,.F.);
#170=ORIENTED_EDGE('',*,*,#238,.F.);
#171=ORIENTED_EDGE('',*,*,#202,.T.);
#172=ORIENTED_EDGE('',*,*,#240,.T.);
#173=ORIENTED_EDGE('',*,*,#241,.F.);
#174=ORIENTED_EDGE('',*,*,#240,.F.);
#175=ORIENTED_EDGE('',*,*,#203,.T.);
#176=ORIENTED_EDGE('',*,*,#242,.T.);
#177=ORIENTED_EDGE('',*,*,#243,.F.);
#178=ORIENTED_EDGE('',*,*,#242,.F.);
#179=ORIENTED_EDGE('',*,*,#204,.T.);
#180=ORIENTED_EDGE('',*,*,#213,.T.);
#181=ORIENTED_EDGE('',*,*,#215,.T.);
#182=ORIENTED_EDGE('',*,*,#217,.T.);
#183=ORIENTED_EDGE('',*,*,#219,.T.);
#184=ORIENTED_EDGE('',*,*,#221,.T.);
#185=ORIENTED_EDGE('',*,*,#223,.T.);
#186=ORIENTED_EDGE('',*,*,#225,.T.);
#187=ORIENTED_EDGE('',*,*,#227,.T.);
#188=ORIENTED_EDGE('',*,*,#229,.T.);
#189=ORIENTED_EDGE('',*,*,#231,.T.);
#190=ORIENTED_EDGE('',*,*,#233,.T.);
#191=ORIENTED_EDGE('',*,*,#235,.T.);
#192=ORIENTED_EDGE('',*,*,#237,.T.);
#193=ORIENTED_EDGE('',*,*,#239,.T.);
#194=ORIENTED_EDGE('',*,*,#241,.T.);
#195=ORIENTED_EDGE('',*,*,#243,.T.);
#196=EDGE_CURVE('',#292,#307,#260,.T.);
#197=EDGE_CURVE('',#293,#293,#244,.T.);
#198=EDGE_CURVE('',#294,#294,#245,.T.);
#199=EDGE_CURVE('',#295,#295,#246,.T.);
#200=EDGE_CURVE('',#296,#296,#247,.T.);
#201=EDGE_CURVE('',#297,#297,#248,.T.);
#202=EDGE_CURVE('',#298,#298,#249,.T.);
#203=EDGE_CURVE('',#299,#299,#250,.T.);
#204=EDGE_CURVE('',#300,#300,#251,.T.);
#205=EDGE_CURVE('',#301,#292,#261,.T.);
#206=EDGE_CURVE('',#302,#301,#262,.T.);
#207=EDGE_CURVE('',#303,#302,#263,.T.);
#208=EDGE_CURVE('',#304,#303,#264,.T.);
#209=EDGE_CURVE('',#305,#304,#265,.T.);
#210=EDGE_CURVE('',#306,#305,#266,.T.);
#211=EDGE_CURVE('',#307,#306,#267,.T.);
#212=EDGE_CURVE('',#292,#308,#268,.T.);
#213=EDGE_CURVE('',#308,#309,#269,.T.);
#214=EDGE_CURVE('',#309,#307,#270,.T.);
#215=EDGE_CURVE('',#309,#310,#271,.T.);
#216=EDGE_CURVE('',#310,#306,#272,.T.);
#217=EDGE_CURVE('',#310,#311,#273,.T.);
#218=EDGE_CURVE('',#311,#305,#274,.T.);
#219=EDGE_CURVE('',#311,#312,#275,.T.);
#220=EDGE_CURVE('',#312,#304,#276,.T.);
#221=EDGE_CURVE('',#312,#313,#277,.T.);
#222=EDGE_CURVE('',#313,#303,#278,.T.);
#223=EDGE_CURVE('',#313,#314,#279,.T.);
#224=EDGE_CURVE('',#314,#302,#280,.T.);
#225=EDGE_CURVE('',#314,#315,#281,.T.);
#226=EDGE_CURVE('',#315,#301,#282,.T.);
#227=EDGE_CURVE('',#315,#308,#283,.T.);
#228=EDGE_CURVE('',#293,#316,#284,.T.);
#229=EDGE_CURVE('',#316,#316,#252,.T.);
#230=EDGE_CURVE('',#294,#317,#285,.T.);
#231=EDGE_CURVE('',#317,#317,#253,.T.);
#232=EDGE_CURVE('',#295,#318,#286,.T.);
#233=EDGE_CURVE('',#318,#318,#254,.T.);
#234=EDGE_CURVE('',#296,#319,#287,.T.);
#235=EDGE_CURVE('',#319,#319,#255,.T.);
#236=EDGE_CURVE('',#297,#320,#288,.T.);
#237=EDGE_CURVE('',#320,#320,#256,.T.);
#238=EDGE_CURVE('',#298,#321,#289,.T.);
#239=EDGE_CURVE('',#321,#321,#257,.T.);
#240=EDGE_CURVE('',#299,#322,#290,.T.);
#241=EDGE_CURVE('',#322,#322,#258,.T.);
#242=EDGE_CURVE('',#300,#323,#291,.T.);
#243=EDGE_CURVE('',#323,#323,#259,.T.);
#244=CIRCLE('',#448,0.00700000000000012);
#245=CIRCLE('',#449,0.0070000000000001);
#246=CIRCLE('',#450,0.0070000000000001);
#247=CIRCLE('',#451,0.00699999999999968);
#248=CIRCLE('',#452,0.0070000000000001);
#249=CIRCLE('',#453,0.00700000000000012);
#250=CIRCLE('',#454,0.0070000000000001);
#251=CIRCLE('',#455,0.00700000000000012);
#252=CIRCLE('',#456,0.00700000000000012);
#253=CIRCLE('',#457,0.0070000000000001);
#254=CIRCLE('',#458,0.0070000000000001);
#255=CIRCLE('',#459,0.00699999999999968);
#256=CIRCLE('',#460,0.0070000000000001);
#257=CIRCLE('',#461,0.00700000000000012);
#258=CIRCLE('',#462,0.0070000000000001);
#259=CIRCLE('',#463,0.00700000000000012);
#260=B_SPLINE_CURVE_WITH_KNOTS('',1,(#570,#571),.UNSPECIFIED.,.F.,.F.,(2,
2),(0.,0.123553391317966),.UNSPECIFIED.);
#261=B_SPLINE_CURVE_WITH_KNOTS('',1,(#580,#581),.UNSPECIFIED.,.F.,.F.,(2,
2),(0.720020925956738,0.795473542034942),.UNSPECIFIED.);
#262=B_SPLINE_CURVE_WITH_KNOTS('',1,(#582,#583),.UNSPECIFIED.,.F.,.F.,(2,
2),(0.596467534638772,0.720020925956738),.UNSPECIFIED.);
#263=B_SPLINE_CURVE_WITH_KNOTS('',1,(#584,#585),.UNSPECIFIED.,.F.,.F.,(2,
2),(0.52119841441048,0.596467534638772),.UNSPECIFIED.);
#264=B_SPLINE_CURVE_WITH_KNOTS('',1,(#586,#587),.UNSPECIFIED.,.F.,.F.,(2,
2),(0.397645023092514,0.52119841441048),.UNSPECIFIED.);
#265=B_SPLINE_CURVE_WITH_KNOTS('',1,(#588,#589),.UNSPECIFIED.,.F.,.F.,(2,
2),(0.322375902864224,0.397645023092514),.UNSPECIFIED.);
#266=B_SPLINE_CURVE_WITH_KNOTS('',1,(#590,#591),.UNSPECIFIED.,.F.,.F.,(2,
2),(0.198822511546258,0.322375902864224),.UNSPECIFIED.);
#267=B_SPLINE_CURVE_WITH_KNOTS('',1,(#592,#593),.UNSPECIFIED.,.F.,.F.,(2,
2),(0.123553391317966,0.198822511546258),.UNSPECIFIED.);
#268=B_SPLINE_CURVE_WITH_KNOTS('',1,(#594,#595),.UNSPECIFIED.,.F.,.F.,(2,
2),(0.,0.0100000005304832),.UNSPECIFIED.);
#269=B_SPLINE_CURVE_WITH_KNOTS('',1,(#596,#597),.UNSPECIFIED.,.F.,.F.,(2,
2),(0.,0.123553391317966),.UNSPECIFIED.);
#270=B_SPLINE_CURVE_WITH_KNOTS('',1,(#598,#599),.UNSPECIFIED.,.F.,.F.,(2,
2),(-0.0100000005304832,0.),.UNSPECIFIED.);
#271=B_SPLINE_CURVE_WITH_KNOTS('',1,(#600,#601),.UNSPECIFIED.,.F.,.F.,(2,
2),(0.123553391317966,0.198822511546258),.UNSPECIFIED.);
#272=B_SPLINE_CURVE_WITH_KNOTS('',1,(#602,#603),.UNSPECIFIED.,.F.,.F.,(2,
2),(-0.0100000005304832,0.),.UNSPECIFIED.);
#273=B_SPLINE_CURVE_WITH_KNOTS('',1,(#604,#605),.UNSPECIFIED.,.F.,.F.,(2,
2),(0.198822511546258,0.322375902864224),.UNSPECIFIED.);
#274=B_SPLINE_CURVE_WITH_KNOTS('',1,(#606,#607),.UNSPECIFIED.,.F.,.F.,(2,
2),(-0.0100000005304832,0.),.UNSPECIFIED.);
#275=B_SPLINE_CURVE_WITH_KNOTS('',1,(#608,#609),.UNSPECIFIED.,.F.,.F.,(2,
2),(0.322375902864224,0.397645023092514),.UNSPECIFIED.);
#276=B_SPLINE_CURVE_WITH_KNOTS('',1,(#610,#611),.UNSPECIFIED.,.F.,.F.,(2,
2),(-0.0100000005304832,0.),.UNSPECIFIED.);
#277=B_SPLINE_CURVE_WITH_KNOTS('',1,(#612,#613),.UNSPECIFIED.,.F.,.F.,(2,
2),(0.397645023092514,0.52119841441048),.UNSPECIFIED.);
#278=B_SPLINE_CURVE_WITH_KNOTS('',1,(#614,#615),.UNSPECIFIED.,.F.,.F.,(2,
2),(-0.0100000005304832,0.),.UNSPECIFIED.);
#279=B_SPLINE_CURVE_WITH_KNOTS('',1,(#616,#617),.UNSPECIFIED.,.F.,.F.,(2,
2),(0.52119841441048,0.596467534638772),.UNSPECIFIED.);
#280=B_SPLINE_CURVE_WITH_KNOTS('',1,(#618,#619),.UNSPECIFIED.,.F.,.F.,(2,
2),(-0.0100000005304832,0.),.UNSPECIFIED.);
#281=B_SPLINE_CURVE_WITH_KNOTS('',1,(#620,#621),.UNSPECIFIED.,.F.,.F.,(2,
2),(0.596467534638772,0.720020925956738),.UNSPECIFIED.);
#282=B_SPLINE_CURVE_WITH_KNOTS('',1,(#622,#623),.UNSPECIFIED.,.F.,.F.,(2,
2),(-0.0100000005304832,0.),.UNSPECIFIED.);
#283=B_SPLINE_CURVE_WITH_KNOTS('',1,(#624,#625),.UNSPECIFIED.,.F.,.F.,(2,
2),(0.720020925956738,0.795473542034942),.UNSPECIFIED.);
#284=B_SPLINE_CURVE_WITH_KNOTS('',1,(#626,#627),.UNSPECIFIED.,.F.,.F.,(2,
2),(0.,0.0100000005304832),.UNSPECIFIED.);
#285=B_SPLINE_CURVE_WITH_KNOTS('',1,(#629,#630),.UNSPECIFIED.,.F.,.F.,(2,
2),(0.,0.0100000005304832),.UNSPECIFIED.);
#286=B_SPLINE_CURVE_WITH_KNOTS('',1,(#632,#633),.UNSPECIFIED.,.F.,.F.,(2,
2),(0.,0.0100000005304832),.UNSPECIFIED.);
#287=B_SPLINE_CURVE_WITH_KNOTS('',1,(#635,#636),.UNSPECIFIED.,.F.,.F.,(2,
2),(0.,0.0100000005304832),.UNSPECIFIED.);
#288=B_SPLINE_CURVE_WITH_KNOTS('',1,(#638,#639),.UNSPECIFIED.,.F.,.F.,(2,
2),(0.,0.0100000005304832),.UNSPECIFIED.);
#289=B_SPLINE_CURVE_WITH_KNOTS('',1,(#641,#642),.UNSPECIFIED.,.F.,.F.,(2,
2),(0.,0.0100000005304832),.UNSPECIFIED.);
#290=B_SPLINE_CURVE_WITH_KNOTS('',1,(#644,#645),.UNSPECIFIED.,.F.,.F.,(2,
2),(0.,0.0100000005304832),.UNSPECIFIED.);
#291=B_SPLINE_CURVE_WITH_KNOTS('',1,(#647,#648),.UNSPECIFIED.,.F.,.F.,(2,
2),(0.,0.0100000005304832),.UNSPECIFIED.);
#292=VERTEX_POINT('',#538);
#293=VERTEX_POINT('',#539);
#294=VERTEX_POINT('',#540);
#295=VERTEX_POINT('',#541);
#296=VERTEX_POINT('',#542);
#297=VERTEX_POINT('',#543);
#298=VERTEX_POINT('',#544);
#299=VERTEX_POINT('',#545);
#300=VERTEX_POINT('',#546);
#301=VERTEX_POINT('',#547);
#302=VERTEX_POINT('',#548);
#303=VERTEX_POINT('',#549);
#304=VERTEX_POINT('',#550);
#305=VERTEX_POINT('',#551);
#306=VERTEX_POINT('',#552);
#307=VERTEX_POINT('',#553);
#308=VERTEX_POINT('',#554);
#309=VERTEX_POINT('',#555);
#310=VERTEX_POINT('',#556);
#311=VERTEX_POINT('',#557);
#312=VERTEX_POINT('',#558);
#313=VERTEX_POINT('',#559);
#314=VERTEX_POINT('',#560);
#315=VERTEX_POINT('',#561);
#316=VERTEX_POINT('',#562);
#317=VERTEX_POINT('',#563);
#318=VERTEX_POINT('',#564);
#319=VERTEX_POINT('',#565);
#320=VERTEX_POINT('',#566);
#321=VERTEX_POINT('',#567);
#322=VERTEX_POINT('',#568);
#323=VERTEX_POINT('',#569);
#324=CYLINDRICAL_SURFACE('',#439,0.00700000000000012);
#325=CYLINDRICAL_SURFACE('',#440,0.00700000000000012);
#326=CYLINDRICAL_SURFACE('',#441,0.00700000000000012);
#327=CYLINDRICAL_SURFACE('',#442,0.00699999999999968);
#328=CYLINDRICAL_SURFACE('',#443,0.00700000000000012);
#329=CYLINDRICAL_SURFACE('',#444,0.0070000000000001);
#330=CYLINDRICAL_SURFACE('',#445,0.00700000000000013);
#331=CYLINDRICAL_SURFACE('',#446,0.00700000000000012);
#332=PLANE('',#430);
#333=PLANE('',#431);
#334=PLANE('',#432);
#335=PLANE('',#433);
#336=PLANE('',#434);
#337=PLANE('',#435);
#338=PLANE('',#436);
#339=PLANE('',#437);
#340=PLANE('',#438);
#341=PLANE('',#447);
#342=SHAPE_DEFINITION_REPRESENTATION(#343,#428);
#343=PRODUCT_DEFINITION_SHAPE($,$,#345);
#344=PRODUCT_DEFINITION_CONTEXT('3D Mechanical Parts',#417,'design');
#345=PRODUCT_DEFINITION('A','First version',#387,#344);
#346=DATE_TIME_ROLE('classification_date');
#347=DATE_TIME_ROLE('creation_date');
#348=APPLIED_DATE_AND_TIME_ASSIGNMENT(#372,#346,(#351));
#349=APPLIED_DATE_AND_TIME_ASSIGNMENT(#374,#347,(#345));
#350=SECURITY_CLASSIFICATION_LEVEL('unclassified');
#351=SECURITY_CLASSIFICATION('A','Security for version',#350);
#352=APPLIED_SECURITY_CLASSIFICATION_ASSIGNMENT(#351,(#387));
#353=APPROVAL_ROLE('Version approval');
#354=APPROVAL_ROLE('Version Security approval');
#355=APPROVAL_ROLE('Definition approval');
#356=APPROVAL_PERSON_ORGANIZATION(#405,#381,#353);
#357=APPROVAL_PERSON_ORGANIZATION(#406,#382,#354);
#358=APPROVAL_PERSON_ORGANIZATION(#409,#383,#355);
#359=COORDINATED_UNIVERSAL_TIME_OFFSET(5,0,.BEHIND.);
#360=LOCAL_TIME(0,0,0.,#359);
#361=LOCAL_TIME(0,0,0.,#359);
#362=LOCAL_TIME(0,0,0.,#359);
#363=LOCAL_TIME(0,0,0.,#359);
#364=LOCAL_TIME(0,0,0.,#359);
#365=CALENDAR_DATE(1999,1,1);
#366=CALENDAR_DATE(1999,1,1);
#367=CALENDAR_DATE(1999,1,1);
#368=CALENDAR_DATE(1999,1,1);
#369=CALENDAR_DATE(1999,1,1);
#370=DATE_AND_TIME(#365,#360);
#371=DATE_AND_TIME(#366,#361);
#372=DATE_AND_TIME(#367,#362);
#373=DATE_AND_TIME(#368,#363);
#374=DATE_AND_TIME(#369,#364);
#375=APPROVAL_DATE_TIME(#370,#381);
#376=APPROVAL_DATE_TIME(#371,#382);
#377=APPROVAL_DATE_TIME(#373,#383);
#378=APPROVAL_STATUS('not_yet_approved');
#379=APPROVAL_STATUS('not_yet_approved');
#380=APPROVAL_STATUS('approved');
#381=APPROVAL(#378,'Version approval');
#382=APPROVAL(#379,'Version Security approval');
#383=APPROVAL(#380,'Definition approval');
#384=APPLIED_APPROVAL_ASSIGNMENT(#381,(#387));
#385=APPLIED_APPROVAL_ASSIGNMENT(#382,(#351));
#386=APPLIED_APPROVAL_ASSIGNMENT(#383,(#345));
#387=PRODUCT_DEFINITION_FORMATION_WITH_SPECIFIED_SOURCE('A',
'First version',#419,.MADE.);
#388=PERSON_AND_ORGANIZATION_ROLE('design_owner');
#389=PERSON_AND_ORGANIZATION_ROLE('creator');
#390=PERSON_AND_ORGANIZATION_ROLE('design_supplier');
#391=PERSON_AND_ORGANIZATION_ROLE('classification_officer');
#392=PERSON_AND_ORGANIZATION_ROLE('creator');
#393=ORGANIZATION('STI','lab','lab');
#394=ORGANIZATION('STI','unknown','unknown');
#395=ORGANIZATION('STI','unknown','unknown');
#396=ORGANIZATION('STI','unknown','unknown');
#397=ORGANIZATION('STI','unknown','unknown');
#398=ORGANIZATION('STI','unknown','unknown');
#399=ORGANIZATION('STI','unknown','unknown');
#400=PERSON('1','Box','vc60',$,$,$);
#401=PERSON('2','last','first',$,$,$);
#402=PERSON('3','President','Mr.',$,$,$);
#403=PERSON_AND_ORGANIZATION(#400,#393);
#404=PERSON_AND_ORGANIZATION(#401,#394);
#405=PERSON_AND_ORGANIZATION(#402,#395);
#406=PERSON_AND_ORGANIZATION(#402,#396);
#407=PERSON_AND_ORGANIZATION(#402,#397);
#408=PERSON_AND_ORGANIZATION(#401,#398);
#409=PERSON_AND_ORGANIZATION(#402,#399);
#410=APPLIED_PERSON_AND_ORGANIZATION_ASSIGNMENT(#403,#388,(#419));
#411=APPLIED_PERSON_AND_ORGANIZATION_ASSIGNMENT(#404,#389,(#387));
#412=APPLIED_PERSON_AND_ORGANIZATION_ASSIGNMENT(#404,#390,(#387));
#413=APPLIED_PERSON_AND_ORGANIZATION_ASSIGNMENT(#407,#391,(#351));
#414=APPLIED_PERSON_AND_ORGANIZATION_ASSIGNMENT(#408,#392,(#345));
#415=PRODUCT_RELATED_PRODUCT_CATEGORY('detail','detail',(#419));
#416=APPLICATION_PROTOCOL_DEFINITION('International Standard',
'config_control_design',1994,#417);
#417=APPLICATION_CONTEXT(
'configuration controlled 3d designs of mechanical parts and assemblie
s');
#418=PRODUCT_CONTEXT('3D Mechanical Parts',#417,'mechanical');
#419=PRODUCT('Document','Document','',(#418));
#420=(
LENGTH_UNIT()
NAMED_UNIT(*)
SI_UNIT(.MILLI.,.METRE.)
);
#421=(
NAMED_UNIT(*)
PLANE_ANGLE_UNIT()
SI_UNIT($,.RADIAN.)
);
#422=DIMENSIONAL_EXPONENTS(0.,0.,0.,0.,0.,0.,0.);
#423=PLANE_ANGLE_MEASURE_WITH_UNIT(PLANE_ANGLE_MEASURE(0.01745329252),#421);
#424=(
CONVERSION_BASED_UNIT('DEGREES',#423)
NAMED_UNIT(#422)
PLANE_ANGLE_UNIT()
);
#425=(
NAMED_UNIT(*)
SI_UNIT($,.STERADIAN.)
SOLID_ANGLE_UNIT()
);
#426=UNCERTAINTY_MEASURE_WITH_UNIT(LENGTH_MEASURE(0.001),#420,
'DISTANCE_ACCURACY_VALUE',
'Maximum model space distance between geometric entities at asserted c
onnectivities');
#427=(
GEOMETRIC_REPRESENTATION_CONTEXT(3)
GLOBAL_UNCERTAINTY_ASSIGNED_CONTEXT((#426))
GLOBAL_UNIT_ASSIGNED_CONTEXT((#425,#424,#420))
REPRESENTATION_CONTEXT('ID1','3D')
);
#428=SHAPE_REPRESENTATION('Document',(#429,#464),#427);
#429=AXIS2_PLACEMENT_3D($,#519,#465,#466);
#430=AXIS2_PLACEMENT_3D('',#520,#467,$);
#431=AXIS2_PLACEMENT_3D('',#521,#468,$);
#432=AXIS2_PLACEMENT_3D('',#522,#469,$);
#433=AXIS2_PLACEMENT_3D('',#523,#470,$);
#434=AXIS2_PLACEMENT_3D('',#524,#471,$);
#435=AXIS2_PLACEMENT_3D('',#525,#472,$);
#436=AXIS2_PLACEMENT_3D('',#526,#473,$);
#437=AXIS2_PLACEMENT_3D('',#527,#474,$);
#438=AXIS2_PLACEMENT_3D('',#528,#475,$);
#439=AXIS2_PLACEMENT_3D('',#529,#476,$);
#440=AXIS2_PLACEMENT_3D('',#530,#477,$);
#441=AXIS2_PLACEMENT_3D('',#531,#478,$);
#442=AXIS2_PLACEMENT_3D('',#532,#479,$);
#443=AXIS2_PLACEMENT_3D('',#533,#480,$);
#444=AXIS2_PLACEMENT_3D('',#534,#481,$);
#445=AXIS2_PLACEMENT_3D('',#535,#482,$);
#446=AXIS2_PLACEMENT_3D('',#536,#483,$);
#447=AXIS2_PLACEMENT_3D('',#537,#484,$);
#448=AXIS2_PLACEMENT_3D($,#572,#485,#486);
#449=AXIS2_PLACEMENT_3D($,#573,#487,#488);
#450=AXIS2_PLACEMENT_3D($,#574,#489,#490);
#451=AXIS2_PLACEMENT_3D($,#575,#491,#492);
#452=AXIS2_PLACEMENT_3D($,#576,#493,#494);
#453=AXIS2_PLACEMENT_3D($,#577,#495,#496);
#454=AXIS2_PLACEMENT_3D($,#578,#497,#498);
#455=AXIS2_PLACEMENT_3D($,#579,#499,#500);
#456=AXIS2_PLACEMENT_3D($,#628,#501,#502);
#457=AXIS2_PLACEMENT_3D($,#631,#503,#504);
#458=AXIS2_PLACEMENT_3D($,#634,#505,#506);
#459=AXIS2_PLACEMENT_3D($,#637,#507,#508);
#460=AXIS2_PLACEMENT_3D($,#640,#509,#510);
#461=AXIS2_PLACEMENT_3D($,#643,#511,#512);
#462=AXIS2_PLACEMENT_3D($,#646,#513,#514);
#463=AXIS2_PLACEMENT_3D($,#649,#515,#516);
#464=AXIS2_PLACEMENT_3D($,#650,#517,#518);
#465=DIRECTION('',(0.,0.,1.));
#466=DIRECTION('',(1.,0.,0.));
#467=DIRECTION('',(0.,0.,1.));
#468=DIRECTION('',(-1.,0.,0.));
#469=DIRECTION('',(-0.707106781186542,0.707106781186553,-3.14018491736736E-16));
#470=DIRECTION('',(0.,1.,0.));
#471=DIRECTION('',(0.707106781186547,0.707106781186548,6.28036983473467E-16));
#472=DIRECTION('',(1.,0.,0.));
#473=DIRECTION('',(0.707106781186542,-0.707106781186554,3.14018491736736E-16));
#474=DIRECTION('',(0.,-1.,0.));
#475=DIRECTION('',(-0.707106781186547,-0.707106781186548,-9.86076131526265E-32));
#476=DIRECTION('',(0.,0.,-1.));
#477=DIRECTION('',(0.,0.,-1.));
#478=DIRECTION('',(0.,0.,-1.));
#479=DIRECTION('',(0.,0.,-1.));
#480=DIRECTION('',(0.,0.,-1.));
#481=DIRECTION('',(0.,0.,-1.));
#482=DIRECTION('',(0.,0.,-1.));
#483=DIRECTION('',(0.,0.,-1.));
#484=DIRECTION('',(0.,0.,-1.));
#485=DIRECTION('',(0.,0.,1.));
#486=DIRECTION('',(1.,6.44859402673723E-14,0.));
#487=DIRECTION('',(0.,0.,1.));
#488=DIRECTION('',(1.,6.44859402673725E-14,0.));
#489=DIRECTION('',(0.,0.,1.));
#490=DIRECTION('',(1.,6.54238568082672E-14,0.));
#491=DIRECTION('',(0.,0.,1.));
#492=DIRECTION('',(1.,0.,0.));
#493=DIRECTION('',(0.,0.,1.));
#494=DIRECTION('',(1.,6.34413156928652E-14,0.));
#495=DIRECTION('',(0.,0.,1.));
#496=DIRECTION('',(1.,6.3441315692865E-14,0.));
#497=DIRECTION('',(0.,0.,1.));
#498=DIRECTION('',(1.,6.54238568082672E-14,0.));
#499=DIRECTION('',(0.,0.,1.));
#500=DIRECTION('',(1.,-1.90323947078595E-13,0.));
#501=DIRECTION('',(0.,0.,1.));
#502=DIRECTION('',(1.,6.44859402673723E-14,0.));
#503=DIRECTION('',(0.,0.,1.));
#504=DIRECTION('',(1.,6.44859402673725E-14,0.));
#505=DIRECTION('',(0.,0.,1.));
#506=DIRECTION('',(1.,6.54238568082672E-14,0.));
#507=DIRECTION('',(0.,0.,1.));
#508=DIRECTION('',(1.,0.,0.));
#509=DIRECTION('',(0.,0.,1.));
#510=DIRECTION('',(1.,6.34413156928652E-14,0.));
#511=DIRECTION('',(0.,0.,1.));
#512=DIRECTION('',(1.,6.3441315692865E-14,0.));
#513=DIRECTION('',(0.,0.,1.));
#514=DIRECTION('',(1.,6.54238568082672E-14,0.));
#515=DIRECTION('',(0.,0.,1.));
#516=DIRECTION('',(1.,-1.90323947078595E-13,0.));
#517=DIRECTION('',(0.,0.,1.));
#518=DIRECTION('',(1.,0.,0.));
#519=CARTESIAN_POINT('',(0.,0.,0.));
#520=CARTESIAN_POINT('',(-0.125000000986353,0.125000000986353,0.0100000005304839));
#521=CARTESIAN_POINT('',(-0.115000000986352,0.0617766956589829,0.0100000005304839));
#522=CARTESIAN_POINT('',(-0.0617766956589822,0.115000000986353,0.0100000005304839));
#523=CARTESIAN_POINT('',(0.0617766956589836,0.115000000986353,0.0100000005304839));
#524=CARTESIAN_POINT('',(0.115000000986353,0.0617766956589865,0.0100000005304839));
#525=CARTESIAN_POINT('',(0.115000000986353,-0.0617766956589847,0.0100000005304839));
#526=CARTESIAN_POINT('',(0.0617766956589836,-0.115000000986353,0.0100000005304839));
#527=CARTESIAN_POINT('',(-0.0617766956589822,-0.115000000986353,0.0100000005304839));
#528=CARTESIAN_POINT('',(-0.115000000986352,-0.0617766956589847,0.0100000005304839));
#529=CARTESIAN_POINT('',(0.0919238815542516,4.51401581871614E-16,0.00500000026524194));
#530=CARTESIAN_POINT('',(-0.0919238815542493,-1.33226762955019E-15,0.00500000026524194));
#531=CARTESIAN_POINT('',(2.77555756156289E-16,0.0919238815542518,0.00500000026524194));
#532=CARTESIAN_POINT('',(7.16354684274472E-16,-0.0919238815542514,0.00500000026524194));
#533=CARTESIAN_POINT('',(0.0750000000000013,-0.0749999999999988,0.00500000026524194));
#534=CARTESIAN_POINT('',(0.0749999999999996,0.0750000000000015,0.00500000026524194));
#535=CARTESIAN_POINT('',(-0.0750000000000008,0.0749999999999997,0.00500000026524194));
#536=CARTESIAN_POINT('',(-0.074999999999999,-0.0750000000000024,0.00500000026524194));
#537=CARTESIAN_POINT('',(-0.125000000986353,0.125000000986353,0.));
#538=CARTESIAN_POINT('',(-0.115000000986352,-0.0617766956589829,0.0100000005304839));
#539=CARTESIAN_POINT('',(0.0989238815542517,0.,0.0100000005304839));
#540=CARTESIAN_POINT('',(-0.0849238815542501,0.,0.0100000005304839));
#541=CARTESIAN_POINT('',(0.00700000000000039,0.0919238815542514,0.0100000005304839));
#542=CARTESIAN_POINT('',(0.00700000000000039,-0.0919238815542514,0.0100000005304839));
#543=CARTESIAN_POINT('',(0.0820000000000006,-0.0749999999999993,0.0100000005304839));
#544=CARTESIAN_POINT('',(0.0819999999999997,0.0750000000000011,0.0100000005304839));
#545=CARTESIAN_POINT('',(-0.0679999999999998,0.0749999999999993,0.0100000005304839));
#546=CARTESIAN_POINT('',(-0.0679999999999989,-0.0750000000000011,0.0100000005304839));
#547=CARTESIAN_POINT('',(-0.0617766956589822,-0.115000000986353,0.0100000005304839));
#548=CARTESIAN_POINT('',(0.0617766956589836,-0.115000000986353,0.0100000005304839));
#549=CARTESIAN_POINT('',(0.115000000986354,-0.0617766956589829,0.0100000005304839));
#550=CARTESIAN_POINT('',(0.115000000986353,0.0617766956589829,0.0100000005304839));
#551=CARTESIAN_POINT('',(0.0617766956589836,0.115000000986353,0.0100000005304839));
#552=CARTESIAN_POINT('',(-0.0617766956589822,0.115000000986353,0.0100000005304839));
#553=CARTESIAN_POINT('',(-0.115000000986353,0.0617766956589829,0.0100000005304839));
#554=CARTESIAN_POINT('',(-0.115000000986352,-0.0617766956589829,0.));
#555=CARTESIAN_POINT('',(-0.115000000986353,0.0617766956589829,0.));
#556=CARTESIAN_POINT('',(-0.0617766956589822,0.115000000986353,0.));
#557=CARTESIAN_POINT('',(0.0617766956589836,0.115000000986353,0.));
#558=CARTESIAN_POINT('',(0.115000000986353,0.0617766956589829,0.));
#559=CARTESIAN_POINT('',(0.115000000986354,-0.0617766956589829,0.));
#560=CARTESIAN_POINT('',(0.0617766956589836,-0.115000000986353,0.));
#561=CARTESIAN_POINT('',(-0.0617766956589822,-0.115000000986353,0.));
#562=CARTESIAN_POINT('',(0.0989238815542517,0.,0.));
#563=CARTESIAN_POINT('',(-0.0849238815542501,0.,0.));
#564=CARTESIAN_POINT('',(0.00700000000000039,0.0919238815542514,0.));
#565=CARTESIAN_POINT('',(0.00700000000000039,-0.0919238815542514,0.));
#566=CARTESIAN_POINT('',(0.0820000000000006,-0.0749999999999993,0.));
#567=CARTESIAN_POINT('',(0.0819999999999997,0.0750000000000011,0.));
#568=CARTESIAN_POINT('',(-0.0679999999999998,0.0749999999999993,0.));
#569=CARTESIAN_POINT('',(-0.0679999999999989,-0.0750000000000011,0.));
#570=CARTESIAN_POINT('',(-0.115000000986352,-0.0617766956589829,0.0100000005304839));
#571=CARTESIAN_POINT('',(-0.115000000986353,0.0617766956589829,0.0100000005304839));
#572=CARTESIAN_POINT('',(0.0919238815542516,-4.51401581871614E-16,0.0100000005304839));
#573=CARTESIAN_POINT('',(-0.0919238815542502,-4.51401581871614E-16,0.0100000005304839));
#574=CARTESIAN_POINT('',(2.91433543964104E-16,0.0919238815542509,0.0100000005304839));
#575=CARTESIAN_POINT('',(7.16354684274472E-16,-0.0919238815542514,0.0100000005304839));
#576=CARTESIAN_POINT('',(0.0750000000000005,-0.0749999999999997,0.0100000005304839));
#577=CARTESIAN_POINT('',(0.0749999999999996,0.0750000000000006,0.0100000005304839));
#578=CARTESIAN_POINT('',(-0.0749999999999999,0.0749999999999988,0.0100000005304839));
#579=CARTESIAN_POINT('',(-0.074999999999999,-0.0749999999999997,0.0100000005304839));
#580=CARTESIAN_POINT('',(-0.0617766956589822,-0.115000000986353,0.0100000005304839));
#581=CARTESIAN_POINT('',(-0.115000000986352,-0.0617766956589829,0.0100000005304839));
#582=CARTESIAN_POINT('',(0.0617766956589836,-0.115000000986353,0.0100000005304839));
#583=CARTESIAN_POINT('',(-0.0617766956589822,-0.115000000986353,0.0100000005304839));
#584=CARTESIAN_POINT('',(0.115000000986354,-0.0617766956589829,0.0100000005304839));
#585=CARTESIAN_POINT('',(0.0617766956589836,-0.115000000986353,0.0100000005304839));
#586=CARTESIAN_POINT('',(0.115000000986353,0.0617766956589829,0.0100000005304839));
#587=CARTESIAN_POINT('',(0.115000000986354,-0.0617766956589829,0.0100000005304839));
#588=CARTESIAN_POINT('',(0.0617766956589836,0.115000000986353,0.0100000005304839));
#589=CARTESIAN_POINT('',(0.115000000986353,0.0617766956589829,0.0100000005304839));
#590=CARTESIAN_POINT('',(-0.0617766956589822,0.115000000986353,0.0100000005304839));
#591=CARTESIAN_POINT('',(0.0617766956589836,0.115000000986353,0.0100000005304839));
#592=CARTESIAN_POINT('',(-0.115000000986353,0.0617766956589829,0.0100000005304839));
#593=CARTESIAN_POINT('',(-0.0617766956589822,0.115000000986353,0.0100000005304839));
#594=CARTESIAN_POINT('',(-0.115000000986352,-0.0617766956589829,0.0100000005304839));
#595=CARTESIAN_POINT('',(-0.115000000986352,-0.0617766956589829,0.));
#596=CARTESIAN_POINT('',(-0.115000000986352,-0.0617766956589829,0.));
#597=CARTESIAN_POINT('',(-0.115000000986353,0.0617766956589829,0.));
#598=CARTESIAN_POINT('',(-0.115000000986353,0.0617766956589829,0.));
#599=CARTESIAN_POINT('',(-0.115000000986353,0.0617766956589829,0.0100000005304839));
#600=CARTESIAN_POINT('',(-0.115000000986353,0.0617766956589829,0.));
#601=CARTESIAN_POINT('',(-0.0617766956589822,0.115000000986353,0.));
#602=CARTESIAN_POINT('',(-0.0617766956589822,0.115000000986353,0.));
#603=CARTESIAN_POINT('',(-0.0617766956589822,0.115000000986353,0.0100000005304839));
#604=CARTESIAN_POINT('',(-0.0617766956589822,0.115000000986353,0.));
#605=CARTESIAN_POINT('',(0.0617766956589836,0.115000000986353,0.));
#606=CARTESIAN_POINT('',(0.0617766956589836,0.115000000986353,0.));
#607=CARTESIAN_POINT('',(0.0617766956589836,0.115000000986353,0.0100000005304839));
#608=CARTESIAN_POINT('',(0.0617766956589836,0.115000000986353,0.));
#609=CARTESIAN_POINT('',(0.115000000986353,0.0617766956589829,0.));
#610=CARTESIAN_POINT('',(0.115000000986353,0.0617766956589829,0.));
#611=CARTESIAN_POINT('',(0.115000000986353,0.0617766956589829,0.0100000005304839));
#612=CARTESIAN_POINT('',(0.115000000986353,0.0617766956589829,0.));
#613=CARTESIAN_POINT('',(0.115000000986354,-0.0617766956589829,0.));
#614=CARTESIAN_POINT('',(0.115000000986354,-0.0617766956589829,0.));
#615=CARTESIAN_POINT('',(0.115000000986354,-0.0617766956589829,0.0100000005304839));
#616=CARTESIAN_POINT('',(0.115000000986354,-0.0617766956589829,0.));
#617=CARTESIAN_POINT('',(0.0617766956589836,-0.115000000986353,0.));
#618=CARTESIAN_POINT('',(0.0617766956589836,-0.115000000986353,0.));
#619=CARTESIAN_POINT('',(0.0617766956589836,-0.115000000986353,0.0100000005304839));
#620=CARTESIAN_POINT('',(0.0617766956589836,-0.115000000986353,0.));
#621=CARTESIAN_POINT('',(-0.0617766956589822,-0.115000000986353,0.));
#622=CARTESIAN_POINT('',(-0.0617766956589822,-0.115000000986353,0.));
#623=CARTESIAN_POINT('',(-0.0617766956589822,-0.115000000986353,0.0100000005304839));
#624=CARTESIAN_POINT('',(-0.0617766956589822,-0.115000000986353,0.));
#625=CARTESIAN_POINT('',(-0.115000000986352,-0.0617766956589829,0.));
#626=CARTESIAN_POINT('',(0.0989238815542517,0.,0.0100000005304839));
#627=CARTESIAN_POINT('',(0.0989238815542517,0.,0.));
#628=CARTESIAN_POINT('',(0.0919238815542516,-4.51401581871614E-16,0.));
#629=CARTESIAN_POINT('',(-0.0849238815542501,0.,0.0100000005304839));
#630=CARTESIAN_POINT('',(-0.0849238815542501,0.,0.));
#631=CARTESIAN_POINT('',(-0.0919238815542502,-4.51401581871614E-16,0.));
#632=CARTESIAN_POINT('',(0.00700000000000039,0.0919238815542514,0.0100000005304839));
#633=CARTESIAN_POINT('',(0.00700000000000039,0.0919238815542514,0.));
#634=CARTESIAN_POINT('',(2.91433543964104E-16,0.0919238815542509,0.));
#635=CARTESIAN_POINT('',(0.00700000000000039,-0.0919238815542514,0.0100000005304839));
#636=CARTESIAN_POINT('',(0.00700000000000039,-0.0919238815542514,0.));
#637=CARTESIAN_POINT('',(7.16354684274472E-16,-0.0919238815542514,0.));
#638=CARTESIAN_POINT('',(0.0820000000000006,-0.0749999999999993,0.0100000005304839));
#639=CARTESIAN_POINT('',(0.0820000000000006,-0.0749999999999993,0.));
#640=CARTESIAN_POINT('',(0.0750000000000005,-0.0749999999999997,0.));
#641=CARTESIAN_POINT('',(0.0819999999999997,0.0750000000000011,0.0100000005304839));
#642=CARTESIAN_POINT('',(0.0819999999999997,0.0750000000000011,0.));
#643=CARTESIAN_POINT('',(0.0749999999999996,0.0750000000000006,0.));
#644=CARTESIAN_POINT('',(-0.0679999999999998,0.0749999999999993,0.0100000005304839));
#645=CARTESIAN_POINT('',(-0.0679999999999998,0.0749999999999993,0.));
#646=CARTESIAN_POINT('',(-0.0749999999999999,0.0749999999999988,0.));
#647=CARTESIAN_POINT('',(-0.0679999999999989,-0.0750000000000011,0.0100000005304839));
#648=CARTESIAN_POINT('',(-0.0679999999999989,-0.0750000000000011,0.));
#649=CARTESIAN_POINT('',(-0.074999999999999,-0.0749999999999997,0.));
#650=CARTESIAN_POINT('',(0.,0.,0.));
ENDSEC;
END-ISO-10303-21;
