ISO-10303-21;
HEADER;
/* Generated by software containing ST-Developer
 * from STEP Tools, Inc. (www.steptools.com) 
 */
/* OPTION: using custom schema-name function */

FILE_DESCRIPTION(
/* description */ (''),
/* implementation_level */ '2;1');

FILE_NAME(
/* name */ 'schoring_body_end_1',
/* time_stamp */ '2025-09-21T23:05:36+02:00',
/* author */ (''),
/* organization */ (''),
/* preprocessor_version */ 'ST-DEVELOPER v19.2',
/* originating_system */ 'Rhino 8.23',
/* authorisation */ '');

FILE_SCHEMA (('CONFIG_CONTROL_DESIGN'));
ENDSEC;

DATA;
#10=SHAPE_REPRESENTATION_RELATIONSHIP('','',#148,#12);
#11=MANIFOLD_SOLID_BREP('brep_1',#13);
#12=ADVANCED_BREP_SHAPE_REPRESENTATION('brep_rep_0',(#11,#158),#147);
#13=CLOSED_SHELL('',(#16,#17,#18,#19));
#14=FACE_BOUND('',#27,.T.);
#15=FACE_BOUND('',#29,.T.);
#16=ADVANCED_FACE('',(#20),#60,.T.);
#17=ADVANCED_FACE('',(#21),#61,.F.);
#18=ADVANCED_FACE('',(#22,#14),#58,.T.);
#19=ADVANCED_FACE('',(#23,#15),#59,.T.);
#20=FACE_OUTER_BOUND('',#24,.T.);
#21=FACE_OUTER_BOUND('',#25,.T.);
#22=FACE_OUTER_BOUND('',#26,.T.);
#23=FACE_OUTER_BOUND('',#28,.T.);
#24=EDGE_LOOP('',(#30,#31,#32,#33));
#25=EDGE_LOOP('',(#34,#35,#36,#37));
#26=EDGE_LOOP('',(#38));
#27=EDGE_LOOP('',(#39));
#28=EDGE_LOOP('',(#40));
#29=EDGE_LOOP('',(#41));
#30=ORIENTED_EDGE('',*,*,#46,.T.);
#31=ORIENTED_EDGE('',*,*,#43,.F.);
#32=ORIENTED_EDGE('',*,*,#42,.T.);
#33=ORIENTED_EDGE('',*,*,#43,.T.);
#34=ORIENTED_EDGE('',*,*,#47,.T.);
#35=ORIENTED_EDGE('',*,*,#45,.F.);
#36=ORIENTED_EDGE('',*,*,#44,.T.);
#37=ORIENTED_EDGE('',*,*,#45,.T.);
#38=ORIENTED_EDGE('',*,*,#42,.F.);
#39=ORIENTED_EDGE('',*,*,#44,.F.);
#40=ORIENTED_EDGE('',*,*,#46,.F.);
#41=ORIENTED_EDGE('',*,*,#47,.F.);
#42=EDGE_CURVE('',#54,#54,#50,.T.);
#43=EDGE_CURVE('',#54,#56,#48,.T.);
#44=EDGE_CURVE('',#55,#55,#51,.T.);
#45=EDGE_CURVE('',#55,#57,#49,.T.);
#46=EDGE_CURVE('',#56,#56,#52,.T.);
#47=EDGE_CURVE('',#57,#57,#53,.T.);
#48=(
BOUNDED_CURVE()
B_SPLINE_CURVE(1,(#185,#186),.UNSPECIFIED.,.F.,.F.)
B_SPLINE_CURVE_WITH_KNOTS((2,2),(0.,2.89000002159476),.UNSPECIFIED.)
CURVE()
GEOMETRIC_REPRESENTATION_ITEM()
RATIONAL_B_SPLINE_CURVE((1.,1.))
REPRESENTATION_ITEM('')
);
#49=(
BOUNDED_CURVE()
B_SPLINE_CURVE(1,(#188,#189),.UNSPECIFIED.,.F.,.F.)
B_SPLINE_CURVE_WITH_KNOTS((2,2),(0.,2.89000002159476),.UNSPECIFIED.)
CURVE()
GEOMETRIC_REPRESENTATION_ITEM()
RATIONAL_B_SPLINE_CURVE((1.,1.))
REPRESENTATION_ITEM('')
);
#50=CIRCLE('',#154,0.0625000017161418);
#51=CIRCLE('',#155,0.0571426868437111);
#52=CIRCLE('',#156,0.062500001716142);
#53=CIRCLE('',#157,0.0571426868437113);
#54=VERTEX_POINT('',#180);
#55=VERTEX_POINT('',#181);
#56=VERTEX_POINT('',#182);
#57=VERTEX_POINT('',#183);
#58=PLANE('',#152);
#59=PLANE('',#153);
#60=CYLINDRICAL_SURFACE('',#150,0.0625000017161419);
#61=CYLINDRICAL_SURFACE('',#151,0.0571426868437112);
#62=SHAPE_DEFINITION_REPRESENTATION(#63,#148);
#63=PRODUCT_DEFINITION_SHAPE($,$,#65);
#64=PRODUCT_DEFINITION_CONTEXT('3D Mechanical Parts',#137,'design');
#65=PRODUCT_DEFINITION('A','First version',#107,#64);
#66=DATE_TIME_ROLE('classification_date');
#67=DATE_TIME_ROLE('creation_date');
#68=APPLIED_DATE_AND_TIME_ASSIGNMENT(#92,#66,(#71));
#69=APPLIED_DATE_AND_TIME_ASSIGNMENT(#94,#67,(#65));
#70=SECURITY_CLASSIFICATION_LEVEL('unclassified');
#71=SECURITY_CLASSIFICATION('A','Security for version',#70);
#72=APPLIED_SECURITY_CLASSIFICATION_ASSIGNMENT(#71,(#107));
#73=APPROVAL_ROLE('Version approval');
#74=APPROVAL_ROLE('Version Security approval');
#75=APPROVAL_ROLE('Definition approval');
#76=APPROVAL_PERSON_ORGANIZATION(#125,#101,#73);
#77=APPROVAL_PERSON_ORGANIZATION(#126,#102,#74);
#78=APPROVAL_PERSON_ORGANIZATION(#129,#103,#75);
#79=COORDINATED_UNIVERSAL_TIME_OFFSET(5,0,.BEHIND.);
#80=LOCAL_TIME(0,0,0.,#79);
#81=LOCAL_TIME(0,0,0.,#79);
#82=LOCAL_TIME(0,0,0.,#79);
#83=LOCAL_TIME(0,0,0.,#79);
#84=LOCAL_TIME(0,0,0.,#79);
#85=CALENDAR_DATE(1999,1,1);
#86=CALENDAR_DATE(1999,1,1);
#87=CALENDAR_DATE(1999,1,1);
#88=CALENDAR_DATE(1999,1,1);
#89=CALENDAR_DATE(1999,1,1);
#90=DATE_AND_TIME(#85,#80);
#91=DATE_AND_TIME(#86,#81);
#92=DATE_AND_TIME(#87,#82);
#93=DATE_AND_TIME(#88,#83);
#94=DATE_AND_TIME(#89,#84);
#95=APPROVAL_DATE_TIME(#90,#101);
#96=APPROVAL_DATE_TIME(#91,#102);
#97=APPROVAL_DATE_TIME(#93,#103);
#98=APPROVAL_STATUS('not_yet_approved');
#99=APPROVAL_STATUS('not_yet_approved');
#100=APPROVAL_STATUS('approved');
#101=APPROVAL(#98,'Version approval');
#102=APPROVAL(#99,'Version Security approval');
#103=APPROVAL(#100,'Definition approval');
#104=APPLIED_APPROVAL_ASSIGNMENT(#101,(#107));
#105=APPLIED_APPROVAL_ASSIGNMENT(#102,(#71));
#106=APPLIED_APPROVAL_ASSIGNMENT(#103,(#65));
#107=PRODUCT_DEFINITION_FORMATION_WITH_SPECIFIED_SOURCE('A',
'First version',#139,.MADE.);
#108=PERSON_AND_ORGANIZATION_ROLE('design_owner');
#109=PERSON_AND_ORGANIZATION_ROLE('creator');
#110=PERSON_AND_ORGANIZATION_ROLE('design_supplier');
#111=PERSON_AND_ORGANIZATION_ROLE('classification_officer');
#112=PERSON_AND_ORGANIZATION_ROLE('creator');
#113=ORGANIZATION('STI','lab','lab');
#114=ORGANIZATION('STI','unknown','unknown');
#115=ORGANIZATION('STI','unknown','unknown');
#116=ORGANIZATION('STI','unknown','unknown');
#117=ORGANIZATION('STI','unknown','unknown');
#118=ORGANIZATION('STI','unknown','unknown');
#119=ORGANIZATION('STI','unknown','unknown');
#120=PERSON('1','Box','vc60',$,$,$);
#121=PERSON('2','last','first',$,$,$);
#122=PERSON('3','President','Mr.',$,$,$);
#123=PERSON_AND_ORGANIZATION(#120,#113);
#124=PERSON_AND_ORGANIZATION(#121,#114);
#125=PERSON_AND_ORGANIZATION(#122,#115);
#126=PERSON_AND_ORGANIZATION(#122,#116);
#127=PERSON_AND_ORGANIZATION(#122,#117);
#128=PERSON_AND_ORGANIZATION(#121,#118);
#129=PERSON_AND_ORGANIZATION(#122,#119);
#130=APPLIED_PERSON_AND_ORGANIZATION_ASSIGNMENT(#123,#108,(#139));
#131=APPLIED_PERSON_AND_ORGANIZATION_ASSIGNMENT(#124,#109,(#107));
#132=APPLIED_PERSON_AND_ORGANIZATION_ASSIGNMENT(#124,#110,(#107));
#133=APPLIED_PERSON_AND_ORGANIZATION_ASSIGNMENT(#127,#111,(#71));
#134=APPLIED_PERSON_AND_ORGANIZATION_ASSIGNMENT(#128,#112,(#65));
#135=PRODUCT_RELATED_PRODUCT_CATEGORY('detail','detail',(#139));
#136=APPLICATION_PROTOCOL_DEFINITION('International Standard',
'config_control_design',1994,#137);
#137=APPLICATION_CONTEXT(
'configuration controlled 3d designs of mechanical parts and assemblie
s');
#138=PRODUCT_CONTEXT('3D Mechanical Parts',#137,'mechanical');
#139=PRODUCT('Document','Document','',(#138));
#140=(
LENGTH_UNIT()
NAMED_UNIT(*)
SI_UNIT(.MILLI.,.METRE.)
);
#141=(
NAMED_UNIT(*)
PLANE_ANGLE_UNIT()
SI_UNIT($,.RADIAN.)
);
#142=DIMENSIONAL_EXPONENTS(0.,0.,0.,0.,0.,0.,0.);
#143=PLANE_ANGLE_MEASURE_WITH_UNIT(PLANE_ANGLE_MEASURE(0.01745329252),#141);
#144=(
CONVERSION_BASED_UNIT('DEGREES',#143)
NAMED_UNIT(#142)
PLANE_ANGLE_UNIT()
);
#145=(
NAMED_UNIT(*)
SI_UNIT($,.STERADIAN.)
SOLID_ANGLE_UNIT()
);
#146=UNCERTAINTY_MEASURE_WITH_UNIT(LENGTH_MEASURE(0.001),#140,
'DISTANCE_ACCURACY_VALUE',
'Maximum model space distance between geometric entities at asserted c
onnectivities');
#147=(
GEOMETRIC_REPRESENTATION_CONTEXT(3)
GLOBAL_UNCERTAINTY_ASSIGNED_CONTEXT((#146))
GLOBAL_UNIT_ASSIGNED_CONTEXT((#145,#144,#140))
REPRESENTATION_CONTEXT('ID1','3D')
);
#148=SHAPE_REPRESENTATION('Document',(#149,#158),#147);
#149=AXIS2_PLACEMENT_3D($,#175,#159,#160);
#150=AXIS2_PLACEMENT_3D('',#176,#161,$);
#151=AXIS2_PLACEMENT_3D('',#177,#162,$);
#152=AXIS2_PLACEMENT_3D('',#178,#163,$);
#153=AXIS2_PLACEMENT_3D('',#179,#164,$);
#154=AXIS2_PLACEMENT_3D($,#184,#165,#166);
#155=AXIS2_PLACEMENT_3D($,#187,#167,#168);
#156=AXIS2_PLACEMENT_3D($,#190,#169,#170);
#157=AXIS2_PLACEMENT_3D($,#191,#171,#172);
#158=AXIS2_PLACEMENT_3D($,#192,#173,#174);
#159=DIRECTION('',(0.,0.,1.));
#160=DIRECTION('',(1.,0.,0.));
#161=DIRECTION('',(0.,0.,1.));
#162=DIRECTION('',(3.41176233863377E-15,-1.85990819879627E-15,-1.));
#163=DIRECTION('',(0.,0.,-1.));
#164=DIRECTION('',(0.,0.,1.));
#165=DIRECTION('',(0.,0.,1.));
#166=DIRECTION('',(0.478643251871616,0.878009474571753,0.));
#167=DIRECTION('',(6.82352467726748E-15,-3.71981639759247E-15,-1.));
#168=DIRECTION('',(0.478643251871603,0.87800947457176,0.));
#169=DIRECTION('',(0.,0.,-1.));
#170=DIRECTION('',(0.478643251871625,0.878009474571748,0.));
#171=DIRECTION('',(0.,0.,1.));
#172=DIRECTION('',(0.478643251871618,0.878009474571751,0.));
#173=DIRECTION('',(0.,0.,1.));
#174=DIRECTION('',(1.,0.,0.));
#175=CARTESIAN_POINT('',(0.,0.,0.));
#176=CARTESIAN_POINT('',(4.5538392056155E-14,1.06861414166427E-11,-1.44000001053214));
#177=CARTESIAN_POINT('',(4.57030753407029E-14,1.06860488461015E-11,-1.44000001053214));
#178=CARTESIAN_POINT('',(0.0312004870052054,-0.105988497152962,-2.89000002159476));
#179=CARTESIAN_POINT('',(-0.125000000986308,0.125000000997038,-4.44089209850063E-16));
#180=CARTESIAN_POINT('',(0.0299152040634415,0.0548755936782102,-2.89000002159476));
#181=CARTESIAN_POINT('',(0.0273509614516011,0.050171820461952,-2.89000002159476));
#182=CARTESIAN_POINT('',(0.0299152040634415,0.0548755936782085,-4.44089209850063E-16));
#183=CARTESIAN_POINT('',(0.0273509614516011,0.0501718204619502,-4.44089209850063E-16));
#184=CARTESIAN_POINT('',(4.58706510300567E-14,1.06869661725402E-11,-2.89000002159476));
#185=CARTESIAN_POINT('',(0.0299152040634415,0.0548755936782102,-2.89000002159476));
#186=CARTESIAN_POINT('',(0.0299152040634415,0.0548755936782085,-4.44089209850063E-16));
#187=CARTESIAN_POINT('',(4.65620830515298E-14,1.06865892412193E-11,-2.89000002159476));
#188=CARTESIAN_POINT('',(0.0273509614516011,0.050171820461952,-2.89000002159476));
#189=CARTESIAN_POINT('',(0.0273509614516011,0.0501718204619502,-4.44089209850063E-16));
#190=CARTESIAN_POINT('',(4.52124005758417E-14,1.0685307655794E-11,-4.44089209850063E-16));
#191=CARTESIAN_POINT('',(4.55855313857506E-14,1.06851028480052E-11,-4.44089209850063E-16));
#192=CARTESIAN_POINT('',(0.,0.,0.));
ENDSEC;
END-ISO-10303-21;
