ISO-10303-21;
HEADER;
/* Generated by software containing ST-Developer
 * from STEP Tools, Inc. (www.steptools.com) 
 */
/* OPTION: using custom schema-name function */

FILE_DESCRIPTION(
/* description */ (''),
/* implementation_level */ '2;1');

FILE_NAME(
/* name */ 'schoring_body_end_0',
/* time_stamp */ '2026-04-20T23:26:41+02:00',
/* author */ (''),
/* organization */ (''),
/* preprocessor_version */ 'ST-DEVELOPER v19.2',
/* originating_system */ 'Rhino 8.30',
/* authorisation */ '');

FILE_SCHEMA (('CONFIG_CONTROL_DESIGN'));
ENDSEC;

DATA;
#10=SHAPE_REPRESENTATION_RELATIONSHIP('','',#330,#12);
#11=MANIFOLD_SOLID_BREP('brep_1',#13);
#12=ADVANCED_BREP_SHAPE_REPRESENTATION('brep_rep_0',(#11,#358),#329);
#13=CLOSED_SHELL('',(#14,#15,#16,#17,#18,#19,#20,#21,#22,#23,#24,#25,#26,
#27,#28));
#14=ADVANCED_FACE('',(#31,#29),#238,.T.);
#15=ADVANCED_FACE('',(#32),#232,.T.);
#16=ADVANCED_FACE('',(#33),#229,.T.);
#17=ADVANCED_FACE('',(#34),#230,.T.);
#18=ADVANCED_FACE('',(#35),#231,.T.);
#19=ADVANCED_FACE('',(#36),#233,.T.);
#20=ADVANCED_FACE('',(#37),#239,.T.);
#21=ADVANCED_FACE('',(#38),#240,.T.);
#22=ADVANCED_FACE('',(#39),#234,.T.);
#23=ADVANCED_FACE('',(#40),#235,.T.);
#24=ADVANCED_FACE('',(#41,#30),#241,.T.);
#25=ADVANCED_FACE('',(#42),#242,.T.);
#26=ADVANCED_FACE('',(#43),#243,.T.);
#27=ADVANCED_FACE('',(#44),#236,.T.);
#28=ADVANCED_FACE('',(#45),#237,.T.);
#29=FACE_BOUND('',#47,.T.);
#30=FACE_BOUND('',#58,.T.);
#31=FACE_OUTER_BOUND('',#46,.T.);
#32=FACE_OUTER_BOUND('',#48,.T.);
#33=FACE_OUTER_BOUND('',#49,.T.);
#34=FACE_OUTER_BOUND('',#50,.T.);
#35=FACE_OUTER_BOUND('',#51,.T.);
#36=FACE_OUTER_BOUND('',#52,.T.);
#37=FACE_OUTER_BOUND('',#53,.T.);
#38=FACE_OUTER_BOUND('',#54,.T.);
#39=FACE_OUTER_BOUND('',#55,.T.);
#40=FACE_OUTER_BOUND('',#56,.T.);
#41=FACE_OUTER_BOUND('',#57,.T.);
#42=FACE_OUTER_BOUND('',#59,.T.);
#43=FACE_OUTER_BOUND('',#60,.T.);
#44=FACE_OUTER_BOUND('',#61,.T.);
#45=FACE_OUTER_BOUND('',#62,.T.);
#46=EDGE_LOOP('',(#63,#64,#65,#66));
#47=EDGE_LOOP('',(#67,#68,#69));
#48=EDGE_LOOP('',(#70,#71));
#49=EDGE_LOOP('',(#72,#73,#74,#75));
#50=EDGE_LOOP('',(#76,#77,#78,#79));
#51=EDGE_LOOP('',(#80,#81,#82,#83));
#52=EDGE_LOOP('',(#84,#85));
#53=EDGE_LOOP('',(#86,#87,#88,#89));
#54=EDGE_LOOP('',(#90,#91,#92,#93,#94));
#55=EDGE_LOOP('',(#95,#96,#97,#98));
#56=EDGE_LOOP('',(#99,#100,#101,#102,#103));
#57=EDGE_LOOP('',(#104,#105,#106,#107));
#58=EDGE_LOOP('',(#108,#109,#110));
#59=EDGE_LOOP('',(#111,#112,#113,#114));
#60=EDGE_LOOP('',(#115,#116,#117,#118,#119));
#61=EDGE_LOOP('',(#120,#121,#122,#123));
#62=EDGE_LOOP('',(#124,#125,#126,#127,#128));
#63=ORIENTED_EDGE('',*,*,#150,.T.);
#64=ORIENTED_EDGE('',*,*,#131,.F.);
#65=ORIENTED_EDGE('',*,*,#130,.F.);
#66=ORIENTED_EDGE('',*,*,#129,.T.);
#67=ORIENTED_EDGE('',*,*,#132,.T.);
#68=ORIENTED_EDGE('',*,*,#134,.T.);
#69=ORIENTED_EDGE('',*,*,#136,.T.);
#70=ORIENTED_EDGE('',*,*,#151,.F.);
#71=ORIENTED_EDGE('',*,*,#129,.F.);
#72=ORIENTED_EDGE('',*,*,#138,.F.);
#73=ORIENTED_EDGE('',*,*,#133,.F.);
#74=ORIENTED_EDGE('',*,*,#139,.F.);
#75=ORIENTED_EDGE('',*,*,#132,.F.);
#76=ORIENTED_EDGE('',*,*,#140,.F.);
#77=ORIENTED_EDGE('',*,*,#134,.F.);
#78=ORIENTED_EDGE('',*,*,#139,.T.);
#79=ORIENTED_EDGE('',*,*,#135,.F.);
#80=ORIENTED_EDGE('',*,*,#140,.T.);
#81=ORIENTED_EDGE('',*,*,#137,.F.);
#82=ORIENTED_EDGE('',*,*,#138,.T.);
#83=ORIENTED_EDGE('',*,*,#136,.F.);
#84=ORIENTED_EDGE('',*,*,#142,.T.);
#85=ORIENTED_EDGE('',*,*,#154,.T.);
#86=ORIENTED_EDGE('',*,*,#153,.T.);
#87=ORIENTED_EDGE('',*,*,#142,.F.);
#88=ORIENTED_EDGE('',*,*,#141,.F.);
#89=ORIENTED_EDGE('',*,*,#148,.T.);
#90=ORIENTED_EDGE('',*,*,#156,.T.);
#91=ORIENTED_EDGE('',*,*,#144,.F.);
#92=ORIENTED_EDGE('',*,*,#143,.F.);
#93=ORIENTED_EDGE('',*,*,#161,.F.);
#94=ORIENTED_EDGE('',*,*,#158,.F.);
#95=ORIENTED_EDGE('',*,*,#152,.T.);
#96=ORIENTED_EDGE('',*,*,#145,.T.);
#97=ORIENTED_EDGE('',*,*,#144,.T.);
#98=ORIENTED_EDGE('',*,*,#159,.F.);
#99=ORIENTED_EDGE('',*,*,#160,.T.);
#100=ORIENTED_EDGE('',*,*,#161,.T.);
#101=ORIENTED_EDGE('',*,*,#149,.T.);
#102=ORIENTED_EDGE('',*,*,#146,.F.);
#103=ORIENTED_EDGE('',*,*,#155,.F.);
#104=ORIENTED_EDGE('',*,*,#151,.T.);
#105=ORIENTED_EDGE('',*,*,#130,.T.);
#106=ORIENTED_EDGE('',*,*,#152,.F.);
#107=ORIENTED_EDGE('',*,*,#150,.F.);
#108=ORIENTED_EDGE('',*,*,#137,.T.);
#109=ORIENTED_EDGE('',*,*,#135,.T.);
#110=ORIENTED_EDGE('',*,*,#133,.T.);
#111=ORIENTED_EDGE('',*,*,#155,.T.);
#112=ORIENTED_EDGE('',*,*,#141,.T.);
#113=ORIENTED_EDGE('',*,*,#154,.F.);
#114=ORIENTED_EDGE('',*,*,#153,.F.);
#115=ORIENTED_EDGE('',*,*,#147,.F.);
#116=ORIENTED_EDGE('',*,*,#149,.F.);
#117=ORIENTED_EDGE('',*,*,#143,.T.);
#118=ORIENTED_EDGE('',*,*,#157,.F.);
#119=ORIENTED_EDGE('',*,*,#156,.F.);
#120=ORIENTED_EDGE('',*,*,#159,.T.);
#121=ORIENTED_EDGE('',*,*,#157,.T.);
#122=ORIENTED_EDGE('',*,*,#145,.F.);
#123=ORIENTED_EDGE('',*,*,#131,.T.);
#124=ORIENTED_EDGE('',*,*,#148,.F.);
#125=ORIENTED_EDGE('',*,*,#146,.T.);
#126=ORIENTED_EDGE('',*,*,#147,.T.);
#127=ORIENTED_EDGE('',*,*,#158,.T.);
#128=ORIENTED_EDGE('',*,*,#160,.F.);
#129=EDGE_CURVE('',#209,#222,#181,.T.);
#130=EDGE_CURVE('',#209,#210,#171,.T.);
#131=EDGE_CURVE('',#210,#223,#182,.T.);
#132=EDGE_CURVE('',#211,#212,#162,.T.);
#133=EDGE_CURVE('',#213,#214,#163,.T.);
#134=EDGE_CURVE('',#212,#215,#172,.T.);
#135=EDGE_CURVE('',#216,#213,#173,.T.);
#136=EDGE_CURVE('',#215,#211,#164,.T.);
#137=EDGE_CURVE('',#214,#216,#165,.T.);
#138=EDGE_CURVE('',#214,#211,#166,.T.);
#139=EDGE_CURVE('',#212,#213,#167,.T.);
#140=EDGE_CURVE('',#215,#216,#168,.T.);
#141=EDGE_CURVE('',#217,#218,#169,.T.);
#142=EDGE_CURVE('',#218,#225,#183,.T.);
#143=EDGE_CURVE('',#219,#220,#174,.T.);
#144=EDGE_CURVE('',#220,#227,#184,.T.);
#145=EDGE_CURVE('',#210,#220,#175,.T.);
#146=EDGE_CURVE('',#217,#221,#176,.T.);
#147=EDGE_CURVE('',#221,#226,#185,.T.);
#148=EDGE_CURVE('',#217,#224,#186,.T.);
#149=EDGE_CURVE('',#219,#221,#187,.T.);
#150=EDGE_CURVE('',#222,#223,#177,.T.);
#151=EDGE_CURVE('',#222,#209,#188,.T.);
#152=EDGE_CURVE('',#223,#210,#189,.T.);
#153=EDGE_CURVE('',#224,#225,#170,.T.);
#154=EDGE_CURVE('',#225,#218,#190,.T.);
#155=EDGE_CURVE('',#224,#217,#191,.T.);
#156=EDGE_CURVE('',#226,#227,#178,.T.);
#157=EDGE_CURVE('',#227,#220,#192,.T.);
#158=EDGE_CURVE('',#226,#228,#193,.T.);
#159=EDGE_CURVE('',#223,#227,#179,.T.);
#160=EDGE_CURVE('',#224,#228,#180,.T.);
#161=EDGE_CURVE('',#228,#219,#194,.T.);
#162=B_SPLINE_CURVE_WITH_KNOTS('',3,(#488,#489,#490,#491,#492,#493,#494),
 .UNSPECIFIED.,.F.,.F.,(4,3,4),(0.,0.0106375291974704,0.0212572617382711),
 .UNSPECIFIED.);
#163=B_SPLINE_CURVE_WITH_KNOTS('',3,(#495,#496,#497,#498,#499,#500,#501,
#502,#503),.UNSPECIFIED.,.F.,.F.,(4,3,2,4),(0.,0.0106197325402848,0.0158092785249754,
0.0210369560152369),.UNSPECIFIED.);
#164=B_SPLINE_CURVE_WITH_KNOTS('',3,(#521,#522,#523,#524,#525,#526,#527,
#528,#529,#530,#531,#532,#533,#534,#535,#536,#537),.UNSPECIFIED.,.F.,.F.,
(4,3,2,3,3,2,4),(0.,0.0106357547154921,0.0212572582172782,0.0212572689374711,
0.0318787726794712,0.0370674879638692,0.0422943157467158),.UNSPECIFIED.);
#165=B_SPLINE_CURVE_WITH_KNOTS('',3,(#538,#539,#540,#541,#542,#543,#544,
#545,#546,#547,#548,#549,#550,#551,#552,#553,#554),.UNSPECIFIED.,.F.,.F.,
(4,3,2,3,3,2,4),(0.,0.0106357469579043,0.0212572506993876,0.0212572614195782,
0.0318787649208486,0.0370674837700662,0.042294315300509),.UNSPECIFIED.);
#166=B_SPLINE_CURVE_WITH_KNOTS('',1,(#555,#556),.UNSPECIFIED.,.F.,.F.,(2,
2),(0.023620786053698,0.0780274934513851),.UNSPECIFIED.);
#167=B_SPLINE_CURVE_WITH_KNOTS('',1,(#557,#558),.UNSPECIFIED.,.F.,.F.,(2,
2),(-0.0839207860536994,-0.023620786053699),.UNSPECIFIED.);
#168=B_SPLINE_CURVE_WITH_KNOTS('',1,(#559,#560),.UNSPECIFIED.,.F.,.F.,(2,
2),(-0.0780274969462247,-0.0236207860536979),.UNSPECIFIED.);
#169=B_SPLINE_CURVE_WITH_KNOTS('',1,(#561,#562),.UNSPECIFIED.,.F.,.F.,(2,
2),(0.301,3.19099999999999),.UNSPECIFIED.);
#170=B_SPLINE_CURVE_WITH_KNOTS('',1,(#596,#597),.UNSPECIFIED.,.F.,.F.,(2,
2),(0.301,3.19099999999999),.UNSPECIFIED.);
#171=(
BOUNDED_CURVE()
B_SPLINE_CURVE(1,(#483,#484),.UNSPECIFIED.,.F.,.F.)
B_SPLINE_CURVE_WITH_KNOTS((2,2),(0.,0.2),.UNSPECIFIED.)
CURVE()
GEOMETRIC_REPRESENTATION_ITEM()
RATIONAL_B_SPLINE_CURVE((1.,1.))
REPRESENTATION_ITEM('')
);
#172=(
BOUNDED_CURVE()
B_SPLINE_CURVE(3,(#504,#505,#506,#507,#508,#509,#510,#511,#512,#513),
 .UNSPECIFIED.,.F.,.F.)
B_SPLINE_CURVE_WITH_KNOTS((4,3,3,4),(0.,0.0106232854825573,0.0158111740840324,
0.0210371563664432),.UNSPECIFIED.)
CURVE()
GEOMETRIC_REPRESENTATION_ITEM()
RATIONAL_B_SPLINE_CURVE((1.,1.,1.,1.,1.,1.,1.,1.,1.,1.))
REPRESENTATION_ITEM('')
);
#173=(
BOUNDED_CURVE()
B_SPLINE_CURVE(3,(#514,#515,#516,#517,#518,#519,#520),.UNSPECIFIED.,.F.,
 .F.)
B_SPLINE_CURVE_WITH_KNOTS((4,3,4),(0.,0.0106339734290679,0.0212572589015487),
 .UNSPECIFIED.)
CURVE()
GEOMETRIC_REPRESENTATION_ITEM()
RATIONAL_B_SPLINE_CURVE((1.,1.,1.,1.,1.,1.,1.))
REPRESENTATION_ITEM('')
);
#174=(
BOUNDED_CURVE()
B_SPLINE_CURVE(1,(#566,#567),.UNSPECIFIED.,.F.,.F.)
B_SPLINE_CURVE_WITH_KNOTS((2,2),(0.,0.0100000053325258),.UNSPECIFIED.)
CURVE()
GEOMETRIC_REPRESENTATION_ITEM()
RATIONAL_B_SPLINE_CURVE((1.,1.))
REPRESENTATION_ITEM('')
);
#175=(
BOUNDED_CURVE()
B_SPLINE_CURVE(3,(#571,#572,#573,#574),.UNSPECIFIED.,.F.,.F.)
B_SPLINE_CURVE_WITH_KNOTS((4,4),(0.,0.0811051305647726),.UNSPECIFIED.)
CURVE()
GEOMETRIC_REPRESENTATION_ITEM()
RATIONAL_B_SPLINE_CURVE((1.,1.,1.,1.))
REPRESENTATION_ITEM('')
);
#176=(
BOUNDED_CURVE()
B_SPLINE_CURVE(3,(#575,#576,#577,#578),.UNSPECIFIED.,.F.,.F.)
B_SPLINE_CURVE_WITH_KNOTS((4,4),(0.,0.0353553308715841),.UNSPECIFIED.)
CURVE()
GEOMETRIC_REPRESENTATION_ITEM()
RATIONAL_B_SPLINE_CURVE((1.,1.,1.,1.))
REPRESENTATION_ITEM('')
);
#177=(
BOUNDED_CURVE()
B_SPLINE_CURVE(1,(#588,#589),.UNSPECIFIED.,.F.,.F.)
B_SPLINE_CURVE_WITH_KNOTS((2,2),(0.,0.2),.UNSPECIFIED.)
CURVE()
GEOMETRIC_REPRESENTATION_ITEM()
RATIONAL_B_SPLINE_CURVE((1.,1.))
REPRESENTATION_ITEM('')
);
#178=(
BOUNDED_CURVE()
B_SPLINE_CURVE(1,(#604,#605),.UNSPECIFIED.,.F.,.F.)
B_SPLINE_CURVE_WITH_KNOTS((2,2),(0.,0.0100000053325258),.UNSPECIFIED.)
CURVE()
GEOMETRIC_REPRESENTATION_ITEM()
RATIONAL_B_SPLINE_CURVE((1.,1.))
REPRESENTATION_ITEM('')
);
#179=(
BOUNDED_CURVE()
B_SPLINE_CURVE(3,(#612,#613,#614,#615),.UNSPECIFIED.,.F.,.F.)
B_SPLINE_CURVE_WITH_KNOTS((4,4),(0.,0.0811051305647726),.UNSPECIFIED.)
CURVE()
GEOMETRIC_REPRESENTATION_ITEM()
RATIONAL_B_SPLINE_CURVE((1.,1.,1.,1.))
REPRESENTATION_ITEM('')
);
#180=(
BOUNDED_CURVE()
B_SPLINE_CURVE(3,(#616,#617,#618,#619),.UNSPECIFIED.,.F.,.F.)
B_SPLINE_CURVE_WITH_KNOTS((4,4),(0.,0.0353553308715841),.UNSPECIFIED.)
CURVE()
GEOMETRIC_REPRESENTATION_ITEM()
RATIONAL_B_SPLINE_CURVE((1.,1.,1.,1.))
REPRESENTATION_ITEM('')
);
#181=TRIMMED_CURVE($,#195,(#481),(#482),.T.,.CARTESIAN.);
#182=TRIMMED_CURVE($,#196,(#486),(#487),.T.,.CARTESIAN.);
#183=TRIMMED_CURVE($,#197,(#564),(#565),.T.,.CARTESIAN.);
#184=TRIMMED_CURVE($,#198,(#569),(#570),.T.,.CARTESIAN.);
#185=TRIMMED_CURVE($,#199,(#580),(#581),.T.,.CARTESIAN.);
#186=TRIMMED_CURVE($,#200,(#583),(#584),.T.,.CARTESIAN.);
#187=TRIMMED_CURVE($,#201,(#586),(#587),.T.,.CARTESIAN.);
#188=TRIMMED_CURVE($,#202,(#591),(#592),.T.,.CARTESIAN.);
#189=TRIMMED_CURVE($,#203,(#594),(#595),.T.,.CARTESIAN.);
#190=TRIMMED_CURVE($,#204,(#599),(#600),.T.,.CARTESIAN.);
#191=TRIMMED_CURVE($,#205,(#602),(#603),.T.,.CARTESIAN.);
#192=TRIMMED_CURVE($,#206,(#607),(#608),.T.,.CARTESIAN.);
#193=TRIMMED_CURVE($,#207,(#610),(#611),.T.,.CARTESIAN.);
#194=TRIMMED_CURVE($,#208,(#621),(#622),.T.,.CARTESIAN.);
#195=CIRCLE('',#344,0.0301500000000002);
#196=CIRCLE('',#345,0.0301500000000002);
#197=CIRCLE('',#346,0.062500000000011);
#198=CIRCLE('',#347,0.087499987811371);
#199=CIRCLE('',#348,0.087499987811371);
#200=CIRCLE('',#349,0.062500000000011);
#201=CIRCLE('',#350,0.087499987811371);
#202=CIRCLE('',#351,0.0301500000000002);
#203=CIRCLE('',#352,0.0301500000000002);
#204=CIRCLE('',#353,0.062500000000011);
#205=CIRCLE('',#354,0.062500000000011);
#206=CIRCLE('',#355,0.087499987811371);
#207=CIRCLE('',#356,0.087499987811371);
#208=CIRCLE('',#357,0.087499987811371);
#209=VERTEX_POINT('',#460);
#210=VERTEX_POINT('',#461);
#211=VERTEX_POINT('',#462);
#212=VERTEX_POINT('',#463);
#213=VERTEX_POINT('',#464);
#214=VERTEX_POINT('',#465);
#215=VERTEX_POINT('',#466);
#216=VERTEX_POINT('',#467);
#217=VERTEX_POINT('',#468);
#218=VERTEX_POINT('',#469);
#219=VERTEX_POINT('',#470);
#220=VERTEX_POINT('',#471);
#221=VERTEX_POINT('',#472);
#222=VERTEX_POINT('',#473);
#223=VERTEX_POINT('',#474);
#224=VERTEX_POINT('',#475);
#225=VERTEX_POINT('',#476);
#226=VERTEX_POINT('',#477);
#227=VERTEX_POINT('',#478);
#228=VERTEX_POINT('',#479);
#229=B_SPLINE_SURFACE_WITH_KNOTS('',1,3,((#406,#407,#408,#409,#410,#411),
(#412,#413,#414,#415,#416,#417)),.UNSPECIFIED.,.F.,.F.,.F.,(2,2),(4,2,4),
(0.,0.204764080499515),(-0.0206988260654931,-0.010351065340867,0.),
 .UNSPECIFIED.);
#230=B_SPLINE_SURFACE_WITH_KNOTS('',1,3,((#418,#419,#420,#421,#422,#423),
(#424,#425,#426,#427,#428,#429)),.UNSPECIFIED.,.F.,.F.,.F.,(2,2),(4,2,4),
(0.,0.204764080499515),(-0.0413976438888383,-0.0310498872749073,-0.0206988260654931),
 .UNSPECIFIED.);
#231=B_SPLINE_SURFACE_WITH_KNOTS('',1,3,((#430,#431,#432,#433,#434,#435,
#436,#437,#438,#439),(#440,#441,#442,#443,#444,#445,#446,#447,#448,#449)),
 .UNSPECIFIED.,.F.,.F.,.F.,(2,2),(4,2,2,2,4),(0.,0.204764080499515),(-0.0413976438888382,
-0.0310482373803095,-0.0206988322708575,-0.0103494154467827,0.),
 .UNSPECIFIED.);
#232=PLANE('',#333);
#233=PLANE('',#334);
#234=PLANE('',#337);
#235=PLANE('',#338);
#236=PLANE('',#342);
#237=PLANE('',#343);
#238=CYLINDRICAL_SURFACE('',#332,0.0301500000000002);
#239=CYLINDRICAL_SURFACE('',#335,0.062500000000011);
#240=CYLINDRICAL_SURFACE('',#336,0.087499987811371);
#241=CYLINDRICAL_SURFACE('',#339,0.0301500000000002);
#242=CYLINDRICAL_SURFACE('',#340,0.062500000000011);
#243=CYLINDRICAL_SURFACE('',#341,0.087499987811371);
#244=SHAPE_DEFINITION_REPRESENTATION(#245,#330);
#245=PRODUCT_DEFINITION_SHAPE($,$,#247);
#246=PRODUCT_DEFINITION_CONTEXT('3D Mechanical Parts',#319,'design');
#247=PRODUCT_DEFINITION('A','First version',#289,#246);
#248=DATE_TIME_ROLE('classification_date');
#249=DATE_TIME_ROLE('creation_date');
#250=APPLIED_DATE_AND_TIME_ASSIGNMENT(#274,#248,(#253));
#251=APPLIED_DATE_AND_TIME_ASSIGNMENT(#276,#249,(#247));
#252=SECURITY_CLASSIFICATION_LEVEL('unclassified');
#253=SECURITY_CLASSIFICATION('A','Security for version',#252);
#254=APPLIED_SECURITY_CLASSIFICATION_ASSIGNMENT(#253,(#289));
#255=APPROVAL_ROLE('Version approval');
#256=APPROVAL_ROLE('Version Security approval');
#257=APPROVAL_ROLE('Definition approval');
#258=APPROVAL_PERSON_ORGANIZATION(#307,#283,#255);
#259=APPROVAL_PERSON_ORGANIZATION(#308,#284,#256);
#260=APPROVAL_PERSON_ORGANIZATION(#311,#285,#257);
#261=COORDINATED_UNIVERSAL_TIME_OFFSET(5,0,.BEHIND.);
#262=LOCAL_TIME(0,0,0.,#261);
#263=LOCAL_TIME(0,0,0.,#261);
#264=LOCAL_TIME(0,0,0.,#261);
#265=LOCAL_TIME(0,0,0.,#261);
#266=LOCAL_TIME(0,0,0.,#261);
#267=CALENDAR_DATE(1999,1,1);
#268=CALENDAR_DATE(1999,1,1);
#269=CALENDAR_DATE(1999,1,1);
#270=CALENDAR_DATE(1999,1,1);
#271=CALENDAR_DATE(1999,1,1);
#272=DATE_AND_TIME(#267,#262);
#273=DATE_AND_TIME(#268,#263);
#274=DATE_AND_TIME(#269,#264);
#275=DATE_AND_TIME(#270,#265);
#276=DATE_AND_TIME(#271,#266);
#277=APPROVAL_DATE_TIME(#272,#283);
#278=APPROVAL_DATE_TIME(#273,#284);
#279=APPROVAL_DATE_TIME(#275,#285);
#280=APPROVAL_STATUS('not_yet_approved');
#281=APPROVAL_STATUS('not_yet_approved');
#282=APPROVAL_STATUS('approved');
#283=APPROVAL(#280,'Version approval');
#284=APPROVAL(#281,'Version Security approval');
#285=APPROVAL(#282,'Definition approval');
#286=APPLIED_APPROVAL_ASSIGNMENT(#283,(#289));
#287=APPLIED_APPROVAL_ASSIGNMENT(#284,(#253));
#288=APPLIED_APPROVAL_ASSIGNMENT(#285,(#247));
#289=PRODUCT_DEFINITION_FORMATION_WITH_SPECIFIED_SOURCE('A',
'First version',#321,.MADE.);
#290=PERSON_AND_ORGANIZATION_ROLE('design_owner');
#291=PERSON_AND_ORGANIZATION_ROLE('creator');
#292=PERSON_AND_ORGANIZATION_ROLE('design_supplier');
#293=PERSON_AND_ORGANIZATION_ROLE('classification_officer');
#294=PERSON_AND_ORGANIZATION_ROLE('creator');
#295=ORGANIZATION('STI','lab','lab');
#296=ORGANIZATION('STI','unknown','unknown');
#297=ORGANIZATION('STI','unknown','unknown');
#298=ORGANIZATION('STI','unknown','unknown');
#299=ORGANIZATION('STI','unknown','unknown');
#300=ORGANIZATION('STI','unknown','unknown');
#301=ORGANIZATION('STI','unknown','unknown');
#302=PERSON('1','Box','vc60',$,$,$);
#303=PERSON('2','last','first',$,$,$);
#304=PERSON('3','President','Mr.',$,$,$);
#305=PERSON_AND_ORGANIZATION(#302,#295);
#306=PERSON_AND_ORGANIZATION(#303,#296);
#307=PERSON_AND_ORGANIZATION(#304,#297);
#308=PERSON_AND_ORGANIZATION(#304,#298);
#309=PERSON_AND_ORGANIZATION(#304,#299);
#310=PERSON_AND_ORGANIZATION(#303,#300);
#311=PERSON_AND_ORGANIZATION(#304,#301);
#312=APPLIED_PERSON_AND_ORGANIZATION_ASSIGNMENT(#305,#290,(#321));
#313=APPLIED_PERSON_AND_ORGANIZATION_ASSIGNMENT(#306,#291,(#289));
#314=APPLIED_PERSON_AND_ORGANIZATION_ASSIGNMENT(#306,#292,(#289));
#315=APPLIED_PERSON_AND_ORGANIZATION_ASSIGNMENT(#309,#293,(#253));
#316=APPLIED_PERSON_AND_ORGANIZATION_ASSIGNMENT(#310,#294,(#247));
#317=PRODUCT_RELATED_PRODUCT_CATEGORY('detail','detail',(#321));
#318=APPLICATION_PROTOCOL_DEFINITION('International Standard',
'config_control_design',1994,#319);
#319=APPLICATION_CONTEXT(
'configuration controlled 3d designs of mechanical parts and assemblie
s');
#320=PRODUCT_CONTEXT('3D Mechanical Parts',#319,'mechanical');
#321=PRODUCT('Document','Document','',(#320));
#322=(
LENGTH_UNIT()
NAMED_UNIT(*)
SI_UNIT(.MILLI.,.METRE.)
);
#323=(
NAMED_UNIT(*)
PLANE_ANGLE_UNIT()
SI_UNIT($,.RADIAN.)
);
#324=DIMENSIONAL_EXPONENTS(0.,0.,0.,0.,0.,0.,0.);
#325=PLANE_ANGLE_MEASURE_WITH_UNIT(PLANE_ANGLE_MEASURE(0.01745329252),#323);
#326=(
CONVERSION_BASED_UNIT('DEGREES',#325)
NAMED_UNIT(#324)
PLANE_ANGLE_UNIT()
);
#327=(
NAMED_UNIT(*)
SI_UNIT($,.STERADIAN.)
SOLID_ANGLE_UNIT()
);
#328=UNCERTAINTY_MEASURE_WITH_UNIT(LENGTH_MEASURE(0.001),#322,
'DISTANCE_ACCURACY_VALUE',
'Maximum model space distance between geometric entities at asserted c
onnectivities');
#329=(
GEOMETRIC_REPRESENTATION_CONTEXT(3)
GLOBAL_UNCERTAINTY_ASSIGNED_CONTEXT((#328))
GLOBAL_UNIT_ASSIGNED_CONTEXT((#327,#326,#322))
REPRESENTATION_CONTEXT('ID1','3D')
);
#330=SHAPE_REPRESENTATION('Document',(#331,#358),#329);
#331=AXIS2_PLACEMENT_3D($,#403,#359,#360);
#332=AXIS2_PLACEMENT_3D('',#404,#361,$);
#333=AXIS2_PLACEMENT_3D('',#405,#362,$);
#334=AXIS2_PLACEMENT_3D('',#450,#363,$);
#335=AXIS2_PLACEMENT_3D('',#451,#364,$);
#336=AXIS2_PLACEMENT_3D('',#452,#365,$);
#337=AXIS2_PLACEMENT_3D('',#453,#366,$);
#338=AXIS2_PLACEMENT_3D('',#454,#367,$);
#339=AXIS2_PLACEMENT_3D('',#455,#368,$);
#340=AXIS2_PLACEMENT_3D('',#456,#369,$);
#341=AXIS2_PLACEMENT_3D('',#457,#370,$);
#342=AXIS2_PLACEMENT_3D('',#458,#371,$);
#343=AXIS2_PLACEMENT_3D('',#459,#372,$);
#344=AXIS2_PLACEMENT_3D($,#480,#373,#374);
#345=AXIS2_PLACEMENT_3D($,#485,#375,#376);
#346=AXIS2_PLACEMENT_3D($,#563,#377,#378);
#347=AXIS2_PLACEMENT_3D($,#568,#379,#380);
#348=AXIS2_PLACEMENT_3D($,#579,#381,#382);
#349=AXIS2_PLACEMENT_3D($,#582,#383,#384);
#350=AXIS2_PLACEMENT_3D($,#585,#385,#386);
#351=AXIS2_PLACEMENT_3D($,#590,#387,#388);
#352=AXIS2_PLACEMENT_3D($,#593,#389,#390);
#353=AXIS2_PLACEMENT_3D($,#598,#391,#392);
#354=AXIS2_PLACEMENT_3D($,#601,#393,#394);
#355=AXIS2_PLACEMENT_3D($,#606,#395,#396);
#356=AXIS2_PLACEMENT_3D($,#609,#397,#398);
#357=AXIS2_PLACEMENT_3D($,#620,#399,#400);
#358=AXIS2_PLACEMENT_3D($,#623,#401,#402);
#359=DIRECTION('',(0.,0.,1.));
#360=DIRECTION('',(1.,0.,0.));
#361=DIRECTION('',(0.,0.,-1.));
#362=DIRECTION('',(0.,0.,1.));
#363=DIRECTION('',(0.,0.,-1.));
#364=DIRECTION('',(0.,0.,-1.));
#365=DIRECTION('',(0.,0.,1.));
#366=DIRECTION('',(0.,0.,1.));
#367=DIRECTION('',(2.13301092369201E-7,-1.48030481135738E-15,-0.999999999999977));
#368=DIRECTION('',(0.,0.,-1.));
#369=DIRECTION('',(0.,0.,-1.));
#370=DIRECTION('',(0.,0.,1.));
#371=DIRECTION('',(0.,0.,1.));
#372=DIRECTION('',(-2.13300891745558E-7,-1.48028980227721E-15,-0.999999999999977));
#373=DIRECTION('',(0.,0.,-1.));
#374=DIRECTION('',(-1.,3.54585093416073E-14,0.));
#375=DIRECTION('',(0.,0.,-1.));
#376=DIRECTION('',(-1.,3.54585093416073E-14,0.));
#377=DIRECTION('',(3.5527136787997E-15,3.55271367879987E-15,-1.));
#378=DIRECTION('',(-5.28373691252212E-14,1.,0.));
#379=DIRECTION('',(0.,0.,1.));
#380=DIRECTION('',(-1.,3.45617896791958E-14,0.));
#381=DIRECTION('',(0.,0.,-1.));
#382=DIRECTION('',(3.46254931376479E-14,1.,0.));
#383=DIRECTION('',(3.55271367880005E-15,-3.55271366556496E-15,-1.));
#384=DIRECTION('',(3.45915589074962E-14,1.,-3.55271365233009E-15));
#385=DIRECTION('',(0.,0.,-1.));
#386=DIRECTION('',(-1.,3.47564742350488E-14,0.));
#387=DIRECTION('',(0.,0.,-1.));
#388=DIRECTION('',(1.,-1.36676591202499E-14,0.));
#389=DIRECTION('',(0.,0.,-1.));
#390=DIRECTION('',(1.,-1.36676591202499E-14,0.));
#391=DIRECTION('',(1.06581410364002E-14,3.55271367879987E-15,-1.));
#392=DIRECTION('',(-5.24646740196244E-14,-1.,-7.10542735759975E-15));
#393=DIRECTION('',(3.55271369203464E-15,-3.55271367879984E-15,-1.));
#394=DIRECTION('',(5.03362825317002E-14,-1.,3.55271367879987E-15));
#395=DIRECTION('',(0.,0.,1.));
#396=DIRECTION('',(1.,-3.4612216379732E-14,0.));
#397=DIRECTION('',(0.,0.,-1.));
#398=DIRECTION('',(1.,-3.58668198272827E-14,0.));
#399=DIRECTION('',(0.,0.,-1.));
#400=DIRECTION('',(-3.43827020046474E-14,-1.,0.));
#401=DIRECTION('',(0.,0.,1.));
#402=DIRECTION('',(1.,0.,0.));
#403=CARTESIAN_POINT('',(0.,0.,0.));
#404=CARTESIAN_POINT('',(2.22506317250405E-9,2.70963605782152E-15,0.110000005332525));
#405=CARTESIAN_POINT('',(0.0376875022250634,-0.0376874999999977,0.210000005332525));
#406=CARTESIAN_POINT('',(3.96767605595271E-10,-0.0537707860536966,0.167000005332525));
#407=CARTESIAN_POINT('',(-0.00350822224775151,-0.0537707858255571,0.167000005332525));
#408=CARTESIAN_POINT('',(-0.00682203838166313,-0.0530343594509591,0.168437852840612));
#409=CARTESIAN_POINT('',(-0.0115612239644392,-0.0515610364519851,0.173175868435779));
#410=CARTESIAN_POINT('',(-0.0129999996032323,-0.0508241397525389,0.176490662253922));
#411=CARTESIAN_POINT('',(-0.0129999996032323,-0.0508241397525389,0.180000005332525));
#412=CARTESIAN_POINT('',(3.96767605595271E-10,0.150993294445818,0.167000005332525));
#413=CARTESIAN_POINT('',(-0.00350822224775151,0.150993294673958,0.167000005332525));
#414=CARTESIAN_POINT('',(-0.00682203838166313,0.151729721048556,0.168437852840612));
#415=CARTESIAN_POINT('',(-0.0115612239644392,0.15320304404753,0.173175868435779));
#416=CARTESIAN_POINT('',(-0.0129999996032323,0.153939940746976,0.176490662253922));
#417=CARTESIAN_POINT('',(-0.0129999996032323,0.153939940746976,0.180000005332525));
#418=CARTESIAN_POINT('',(0.0130000003967677,-0.0508241414999587,0.180000005332525));
#419=CARTESIAN_POINT('',(0.0130000003967677,-0.0508241415860326,0.176491782769265));
#420=CARTESIAN_POINT('',(0.0115621529210221,-0.0515605676393277,0.173177966589529));
#421=CARTESIAN_POINT('',(0.00682413727758352,-0.053033889949738,0.168438780952298));
#422=CARTESIAN_POINT('',(0.0035093434113484,-0.053770786281909,0.167000005332525));
#423=CARTESIAN_POINT('',(3.96767608779353E-10,-0.0537707860536966,0.167000005332525));
#424=CARTESIAN_POINT('',(0.0130000003967677,0.153939938999556,0.180000005332525));
#425=CARTESIAN_POINT('',(0.0130000003967677,0.153939938913482,0.176491782769265));
#426=CARTESIAN_POINT('',(0.0115621529210221,0.153203512860187,0.173177966589529));
#427=CARTESIAN_POINT('',(0.00682413727758352,0.151730190549777,0.168438780952298));
#428=CARTESIAN_POINT('',(0.0035093434113484,0.150993294217606,0.167000005332525));
#429=CARTESIAN_POINT('',(3.96767608779353E-10,0.150993294445818,0.167000005332525));
#430=CARTESIAN_POINT('',(-0.0129999996032323,-0.0508241397525389,0.180000005332525));
#431=CARTESIAN_POINT('',(-0.0129999996032322,-0.0508241397525389,0.183508787006671));
#432=CARTESIAN_POINT('',(-0.0115616890701167,-0.0515608007844502,0.186823090879187));
#433=CARTESIAN_POINT('',(-0.00682309180075577,-0.0530341232920655,0.191561690743154));
#434=CARTESIAN_POINT('',(-0.00350878945818248,-0.0537707847677694,0.193000002900285));
#435=CARTESIAN_POINT('',(0.00350877620051828,-0.0537707873396211,0.193000007764762));
#436=CARTESIAN_POINT('',(0.00682308387401465,-0.053034126146197,0.191561696871488));
#437=CARTESIAN_POINT('',(0.0115616878921362,-0.0515608032694099,0.186823095442646));
#438=CARTESIAN_POINT('',(0.0130000003967677,-0.050824141586047,0.183508789300615));
#439=CARTESIAN_POINT('',(0.0130000003967677,-0.0508241414999587,0.180000005332525));
#440=CARTESIAN_POINT('',(-0.0129999996032323,0.153939940746976,0.180000005332525));
#441=CARTESIAN_POINT('',(-0.0129999996032322,0.153939940746976,0.183508787006671));
#442=CARTESIAN_POINT('',(-0.0115616890701167,0.153203279715065,0.186823090879187));
#443=CARTESIAN_POINT('',(-0.00682309180075577,0.151729957207449,0.191561690743154));
#444=CARTESIAN_POINT('',(-0.00350878945818248,0.150993295731745,0.193000002900285));
#445=CARTESIAN_POINT('',(0.00350877620051828,0.150993293159894,0.193000007764762));
#446=CARTESIAN_POINT('',(0.00682308387401465,0.151729954353318,0.191561696871488));
#447=CARTESIAN_POINT('',(0.0115616878921362,0.153203277230105,0.186823095442646));
#448=CARTESIAN_POINT('',(0.0130000003967677,0.153939938913468,0.183508789300615));
#449=CARTESIAN_POINT('',(0.0130000003967677,0.153939938999556,0.180000005332525));
#450=CARTESIAN_POINT('',(0.686999989427026,-0.687000000000019,-2.88999999466747));
#451=CARTESIAN_POINT('',(-1.05729933458712E-8,2.45326880432202E-18,-1.44499999466747));
#452=CARTESIAN_POINT('',(2.22506360305285E-9,2.52686747394789E-15,0.00500000266626291));
#453=CARTESIAN_POINT('',(0.0301500022250633,2.11969416013321E-15,0.0100000053325253));
#454=CARTESIAN_POINT('',(-1.0572998708844E-8,-0.0625000000000087,5.33252242362892E-9));
#455=CARTESIAN_POINT('',(2.22506315901107E-9,2.53177408260874E-15,0.110000005332525));
#456=CARTESIAN_POINT('',(-1.05729933581376E-8,0.,-1.44499999466747));
#457=CARTESIAN_POINT('',(2.22506360795939E-9,2.52686747394789E-15,0.00500000266626291));
#458=CARTESIAN_POINT('',(-0.030149997774937,3.77871011447098E-15,0.0100000053325253));
#459=CARTESIAN_POINT('',(-1.05729943854157E-8,0.0625000000000134,5.33252197953971E-9));
#460=CARTESIAN_POINT('',(-0.030149997774937,3.77871011449546E-15,0.210000005332525));
#461=CARTESIAN_POINT('',(-0.030149997774937,3.26389847637849E-15,0.0100000053325253));
#462=CARTESIAN_POINT('',(-0.0129999996032321,0.0272033536988458,0.180000005332525));
#463=CARTESIAN_POINT('',(3.96767604474758E-10,0.0301500000000028,0.167000005332525));
#464=CARTESIAN_POINT('',(3.96767607082265E-10,-0.0301499999999976,0.167000005332525));
#465=CARTESIAN_POINT('',(-0.0129999996032321,-0.0272033536988405,0.180000005332525));
#466=CARTESIAN_POINT('',(0.0130000003967675,0.0272033554462656,0.180000005332525));
#467=CARTESIAN_POINT('',(0.0130000003967675,-0.0272033554462604,0.180000005332525));
#468=CARTESIAN_POINT('',(-1.05729943866423E-8,0.0625000000000134,5.33252197953971E-9));
#469=CARTESIAN_POINT('',(-1.05729933534656E-8,0.0625000000000081,-2.88999999466747));
#470=CARTESIAN_POINT('',(-0.0874999855863074,5.55102364961669E-15,0.));
#471=CARTESIAN_POINT('',(-0.0874999855863074,5.54844493254374E-15,0.0100000053325258));
#472=CARTESIAN_POINT('',(2.22506663094535E-9,0.0874999878113735,0.));
#473=CARTESIAN_POINT('',(0.0301500022250633,2.11969416013321E-15,0.210000005332525));
#474=CARTESIAN_POINT('',(0.0301500022250633,2.11969416013321E-15,0.0100000053325253));
#475=CARTESIAN_POINT('',(-1.05729933817438E-8,-0.0625000000000087,5.33252242362892E-9));
#476=CARTESIAN_POINT('',(-1.05729933350793E-8,-0.062500000000014,-2.88999999466747));
#477=CARTESIAN_POINT('',(0.0874999900364346,-5.80205660337384E-16,0.));
#478=CARTESIAN_POINT('',(0.0874999900364346,-5.01701037403195E-16,0.0100000053325258));
#479=CARTESIAN_POINT('',(2.22506058022987E-9,-0.0874999878113685,0.));
#480=CARTESIAN_POINT('',(2.22506317250405E-9,2.70963605782152E-15,0.210000005332525));
#481=CARTESIAN_POINT('',(-0.030149997774937,3.77871011447098E-15,0.210000005332525));
#482=CARTESIAN_POINT('',(0.0301500022250633,2.12626873964274E-15,0.210000005332525));
#483=CARTESIAN_POINT('',(-0.030149997774937,3.77871011449546E-15,0.210000005332525));
#484=CARTESIAN_POINT('',(-0.030149997774937,3.26389847637849E-15,0.0100000053325253));
#485=CARTESIAN_POINT('',(2.22506317250405E-9,2.70963605782152E-15,0.0100000053325253));
#486=CARTESIAN_POINT('',(-0.030149997774937,3.77871011447098E-15,0.0100000053325253));
#487=CARTESIAN_POINT('',(0.0301500022250633,2.12626873964274E-15,0.0100000053325253));
#488=CARTESIAN_POINT('',(-0.0129999996032321,0.0272033536988458,0.180000005332525));
#489=CARTESIAN_POINT('',(-0.0129999996032321,0.0272033536988458,0.176497753495488));
#490=CARTESIAN_POINT('',(-0.0115786699033516,0.0279506812945188,0.173193310067721));
#491=CARTESIAN_POINT('',(-0.0091912528619915,0.0287148625266578,0.170806482420532));
#492=CARTESIAN_POINT('',(-0.0068004360485418,0.0294801319817505,0.168416255840572));
#493=CARTESIAN_POINT('',(-0.00350089547818147,0.0301499997877086,0.167000005332525));
#494=CARTESIAN_POINT('',(3.96767604474758E-10,0.0301500000000028,0.167000005332525));
#495=CARTESIAN_POINT('',(3.96767607082265E-10,-0.0301499999999976,0.167000005332525));
#496=CARTESIAN_POINT('',(-0.00350089547498875,-0.0301499997877033,0.167000005332525));
#497=CARTESIAN_POINT('',(-0.00680043605061265,-0.0294801319810825,0.168416255842642));
#498=CARTESIAN_POINT('',(-0.0091912528619915,-0.0287148625266526,0.170806482420532));
#499=CARTESIAN_POINT('',(-0.0103787520127133,-0.0283347594493764,0.171993688407108));
#500=CARTESIAN_POINT('',(-0.011332202012561,-0.027948431576965,0.173417897901672));
#501=CARTESIAN_POINT('',(-0.0126490601345468,-0.0273777727587711,0.176563536117197));
#502=CARTESIAN_POINT('',(-0.0129999996032321,-0.0272033536988405,0.178261781387691));
#503=CARTESIAN_POINT('',(-0.0129999996032321,-0.0272033536988405,0.180000005332525));
#504=CARTESIAN_POINT('',(3.96767604474758E-10,0.0301500000000028,0.167000005332525));
#505=CARTESIAN_POINT('',(0.00350203547899174,0.0301500000000028,0.1670000058312));
#506=CARTESIAN_POINT('',(0.00680254421703311,0.0294796665311525,0.168417182559611));
#507=CARTESIAN_POINT('',(0.00919352331474555,0.0287141371100323,0.170808752079752));
#508=CARTESIAN_POINT('',(0.0103803523544235,0.0283341452696257,0.171995874192039));
#509=CARTESIAN_POINT('',(0.0113332353609876,0.0279480033597249,0.17341979790296));
#510=CARTESIAN_POINT('',(0.011988855042939,0.0276638736667055,0.174986457431389));
#511=CARTESIAN_POINT('',(0.0126492888157274,0.0273776576633003,0.176564620643262));
#512=CARTESIAN_POINT('',(0.0130000003967675,0.0272033554462656,0.178262342245376));
#513=CARTESIAN_POINT('',(0.0130000003967675,0.0272033554462656,0.180000005332525));
#514=CARTESIAN_POINT('',(0.0130000003967675,-0.0272033554462604,0.180000005332525));
#515=CARTESIAN_POINT('',(0.0130000003967675,-0.0272033554462604,0.176498882866315));
#516=CARTESIAN_POINT('',(0.0115795998276549,-0.0279501773692565,0.173195417804457));
#517=CARTESIAN_POINT('',(0.00919352331474555,-0.0287141371100271,0.170808752079752));
#518=CARTESIAN_POINT('',(0.00680254421910866,-0.0294796665304828,0.168417182561687));
#519=CARTESIAN_POINT('',(0.00350203547578965,-0.0301499999999976,0.167000005831199));
#520=CARTESIAN_POINT('',(3.96767607082265E-10,-0.0301499999999976,0.167000005332525));
#521=CARTESIAN_POINT('',(0.0130000003967675,0.0272033554462656,0.180000005332525));
#522=CARTESIAN_POINT('',(0.0130000003967675,0.0272033554462656,0.183501693720629));
#523=CARTESIAN_POINT('',(0.0115791342966218,0.027950430615314,0.186805649047693));
#524=CARTESIAN_POINT('',(0.00919238604072784,0.0287145012108111,0.189192395999414));
#525=CARTESIAN_POINT('',(0.00680148843281848,0.0294799001398924,0.191583292300883));
#526=CARTESIAN_POINT('',(0.00350146512626536,0.0301500000000028,0.193000004803613));
#527=CARTESIAN_POINT('',(-1.38817328135788E-9,0.0301500000000009,0.193000005332525));
#528=CARTESIAN_POINT('',(-5.00141095896454E-9,0.0301500000000015,0.193000005332524));
#529=CARTESIAN_POINT('',(-8.61464884279947E-9,0.0301500000000028,0.193000005332522));
#530=CARTESIAN_POINT('',(-0.00350147159614351,0.0301499987411337,0.193000002905357));
#531=CARTESIAN_POINT('',(-0.0068014939952872,0.0294798977317894,0.191583288560449));
#532=CARTESIAN_POINT('',(-0.00919239027529029,0.0287144984305771,0.189192390971317));
#533=CARTESIAN_POINT('',(-0.0103795535951729,0.02833445100524,0.188005227001406));
#534=CARTESIAN_POINT('',(-0.011332719470766,0.0279482162099868,0.18658116068575));
#535=CARTESIAN_POINT('',(-0.0126491743294448,0.027377714206063,0.183435931132178));
#536=CARTESIAN_POINT('',(-0.0129999996032321,0.0272033536988458,0.181737948203219));
#537=CARTESIAN_POINT('',(-0.0129999996032321,0.0272033536988458,0.180000005332525));
#538=CARTESIAN_POINT('',(-0.0129999996032321,-0.0272033536988405,0.180000005332525));
#539=CARTESIAN_POINT('',(-0.0129999996032321,-0.0272033536988405,0.183501691248255));
#540=CARTESIAN_POINT('',(-0.0115791355140744,-0.0279504280050932,0.186805644425676));
#541=CARTESIAN_POINT('',(-0.00919239027529029,-0.0287144984305718,0.189192390971317));
#542=CARTESIAN_POINT('',(-0.00680149399736058,-0.0294798977311204,0.191583288558375));
#543=CARTESIAN_POINT('',(-0.00350147159294638,-0.0301499987411284,0.193000002905357));
#544=CARTESIAN_POINT('',(-5.00141129654943E-9,-0.0301499999999973,0.193000005332524));
#545=CARTESIAN_POINT('',(-1.38817395652763E-9,-0.0301499999999978,0.193000005332525));
#546=CARTESIAN_POINT('',(2.22506317726512E-9,-0.0301499999999976,0.193000005332525));
#547=CARTESIAN_POINT('',(0.00350146512306729,-0.0301499999999977,0.193000004803613));
#548=CARTESIAN_POINT('',(0.00680148843489183,-0.0294799001392235,0.19158329229881));
#549=CARTESIAN_POINT('',(0.00919238604072784,-0.0287145012108059,0.189192395999414));
#550=CARTESIAN_POINT('',(0.0103795508793495,-0.0283344536951289,0.188005231809486));
#551=CARTESIAN_POINT('',(0.0113327179760586,-0.0279482187057219,0.186581164884574));
#552=CARTESIAN_POINT('',(0.0126491746402358,-0.0273777162051078,0.183435933440543));
#553=CARTESIAN_POINT('',(0.0130000003967675,-0.0272033554462604,0.181737949492621));
#554=CARTESIAN_POINT('',(0.0130000003967675,-0.0272033554462604,0.180000005332525));
#555=CARTESIAN_POINT('',(-0.0129999996032321,-0.0272033536988405,0.180000005332525));
#556=CARTESIAN_POINT('',(-0.0129999996032321,0.0272033536988458,0.180000005332525));
#557=CARTESIAN_POINT('',(3.96767604474758E-10,0.0301500000000028,0.167000005332525));
#558=CARTESIAN_POINT('',(3.96767607082265E-10,-0.0301499999999976,0.167000005332525));
#559=CARTESIAN_POINT('',(0.0130000003967675,0.0272033554462656,0.180000005332525));
#560=CARTESIAN_POINT('',(0.0130000003967675,-0.0272033554462604,0.180000005332525));
#561=CARTESIAN_POINT('',(-1.05729943866423E-8,0.0625000000000134,5.33252197953971E-9));
#562=CARTESIAN_POINT('',(-1.05729933534656E-8,0.0625000000000081,-2.88999999466747));
#563=CARTESIAN_POINT('',(-1.05729900511301E-8,-2.96845603715194E-15,-2.88999999466747));
#564=CARTESIAN_POINT('',(-1.05729933534656E-8,0.0625000000000081,-2.88999999466747));
#565=CARTESIAN_POINT('',(-1.05729933192119E-8,-0.062500000000014,-2.88999999466747));
#566=CARTESIAN_POINT('',(-0.0874999855863074,5.55102364961669E-15,0.));
#567=CARTESIAN_POINT('',(-0.0874999855863074,5.54844493254374E-15,0.0100000053325258));
#568=CARTESIAN_POINT('',(2.22506360305285E-9,2.52686747394789E-15,0.0100000053325258));
#569=CARTESIAN_POINT('',(-0.0874999855863074,5.55102364961669E-15,0.0100000053325258));
#570=CARTESIAN_POINT('',(0.0874999900364346,-5.0800435972077E-16,0.0100000053325258));
#571=CARTESIAN_POINT('',(-0.030149997774937,3.26389847637849E-15,0.0100000053325253));
#572=CARTESIAN_POINT('',(-0.0492666603787271,4.0254139617669E-15,0.0100000053325255));
#573=CARTESIAN_POINT('',(-0.0683833229825173,4.78692944715532E-15,0.0100000053325256));
#574=CARTESIAN_POINT('',(-0.0874999855863074,5.54844493254374E-15,0.0100000053325258));
#575=CARTESIAN_POINT('',(-1.05729943866423E-8,0.0625000000000134,5.33252197953971E-9));
#576=CARTESIAN_POINT('',(-6.3069740474464E-9,0.0708333292704668,3.55501465302647E-9));
#577=CARTESIAN_POINT('',(-2.04095370825052E-9,0.0791666585409201,1.77750732651324E-9));
#578=CARTESIAN_POINT('',(2.22506663094535E-9,0.0874999878113735,0.));
#579=CARTESIAN_POINT('',(2.22506360121512E-9,2.50578236799149E-15,0.));
#580=CARTESIAN_POINT('',(2.22506663094535E-9,0.0874999878113735,0.));
#581=CARTESIAN_POINT('',(0.0874999900364346,-5.76876731189044E-16,0.));
#582=CARTESIAN_POINT('',(-1.05729965473881E-8,2.37476476837525E-15,5.33252220158431E-9));
#583=CARTESIAN_POINT('',(-1.05729943854157E-8,0.0625000000000134,5.33252197953971E-9));
#584=CARTESIAN_POINT('',(-1.0572993372636E-8,-0.0625000000000087,5.33252242362892E-9));
#585=CARTESIAN_POINT('',(2.22506362289332E-9,2.50983257768368E-15,0.));
#586=CARTESIAN_POINT('',(-0.0874999855863074,5.55102364961669E-15,0.));
#587=CARTESIAN_POINT('',(2.22506663929766E-9,0.0874999878113735,0.));
#588=CARTESIAN_POINT('',(0.0301500022250633,2.11969416013321E-15,0.210000005332525));
#589=CARTESIAN_POINT('',(0.0301500022250633,2.11969416013321E-15,0.0100000053325253));
#590=CARTESIAN_POINT('',(2.22506315901107E-9,2.53177408260874E-15,0.210000005332525));
#591=CARTESIAN_POINT('',(0.0301500022250633,2.11969416013321E-15,0.210000005332525));
#592=CARTESIAN_POINT('',(-0.030149997774937,2.53848300467547E-15,0.210000005332525));
#593=CARTESIAN_POINT('',(2.22506315901107E-9,2.53177408260874E-15,0.0100000053325253));
#594=CARTESIAN_POINT('',(0.0301500022250633,2.11969416013321E-15,0.0100000053325253));
#595=CARTESIAN_POINT('',(-0.030149997774937,2.53848300467547E-15,0.0100000053325253));
#596=CARTESIAN_POINT('',(-1.05729933507778E-8,-0.0625000000000059,5.33252236811776E-9));
#597=CARTESIAN_POINT('',(-1.05729933507778E-8,-0.0625000000000161,-2.88999999466747));
#598=CARTESIAN_POINT('',(-1.05729900560371E-8,-2.9684560357425E-15,-2.88999999466747));
#599=CARTESIAN_POINT('',(-1.05729933350793E-8,-0.062500000000014,-2.88999999466747));
#600=CARTESIAN_POINT('',(-1.05729933627205E-8,0.0625000000000081,-2.88999999466747));
#601=CARTESIAN_POINT('',(-1.05729965277615E-8,2.36495168283599E-15,5.33252220158432E-9));
#602=CARTESIAN_POINT('',(-1.05729933817438E-8,-0.0625000000000087,5.33252242362892E-9));
#603=CARTESIAN_POINT('',(-1.05729944078738E-8,0.0625000000000134,5.33252197953971E-9));
#604=CARTESIAN_POINT('',(0.0874999900364346,-5.01701037403195E-16,0.));
#605=CARTESIAN_POINT('',(0.0874999900364346,-5.01701037403195E-16,0.0100000053325258));
#606=CARTESIAN_POINT('',(2.22506360795939E-9,2.52686747394789E-15,0.0100000053325258));
#607=CARTESIAN_POINT('',(0.0874999900364346,-5.01701037403196E-16,0.0100000053325258));
#608=CARTESIAN_POINT('',(-0.0874999855863074,5.56615164329884E-15,0.0100000053325258));
#609=CARTESIAN_POINT('',(2.22506358786226E-9,2.55814063738249E-15,0.));
#610=CARTESIAN_POINT('',(0.0874999900364346,-5.80205660337384E-16,0.));
#611=CARTESIAN_POINT('',(2.22506057144719E-9,-0.0874999878113685,0.));
#612=CARTESIAN_POINT('',(0.0301500022250633,2.11969416013321E-15,0.0100000053325253));
#613=CARTESIAN_POINT('',(0.0492666648288538,1.24589576095441E-15,0.0100000053325255));
#614=CARTESIAN_POINT('',(0.0683833274326442,3.72097361775605E-16,0.0100000053325256));
#615=CARTESIAN_POINT('',(0.0874999900364346,-5.01701037403195E-16,0.0100000053325258));
#616=CARTESIAN_POINT('',(-1.0572998708844E-8,-0.0625000000000087,5.33252242362892E-9));
#617=CARTESIAN_POINT('',(-6.30697894581938E-9,-0.0708333292704619,3.55501494908595E-9));
#618=CARTESIAN_POINT('',(-2.04095918279476E-9,-0.0791666585409152,1.77750747454297E-9));
#619=CARTESIAN_POINT('',(2.22506058022987E-9,-0.0874999878113685,0.));
#620=CARTESIAN_POINT('',(2.22506358871587E-9,2.51187091629659E-15,0.));
#621=CARTESIAN_POINT('',(2.22506058022987E-9,-0.0874999878113685,0.));
#622=CARTESIAN_POINT('',(-0.0874999855863074,5.55385689407434E-15,0.));
#623=CARTESIAN_POINT('',(0.,0.,0.));
ENDSEC;
END-ISO-10303-21;
