ISO-10303-21;
HEADER;
/* Generated by software containing ST-Developer
 * from STEP Tools, Inc. (www.steptools.com) 
 */
/* OPTION: using custom schema-name function */

FILE_DESCRIPTION(
/* description */ (''),
/* implementation_level */ '2;1');

FILE_NAME(
/* name */ 'schoring_foot_0',
/* time_stamp */ '2025-09-21T23:05:37+02:00',
/* author */ (''),
/* organization */ (''),
/* preprocessor_version */ 'ST-DEVELOPER v19.2',
/* originating_system */ 'Rhino 8.23',
/* authorisation */ '');

FILE_SCHEMA (('CONFIG_CONTROL_DESIGN'));
ENDSEC;

DATA;
#10=SHAPE_REPRESENTATION_RELATIONSHIP('','',#804,#14);
#11=MANIFOLD_SOLID_BREP('brep_1',#15);
#12=MANIFOLD_SOLID_BREP('brep_2',#16);
#13=MANIFOLD_SOLID_BREP('brep_3',#17);
#14=ADVANCED_BREP_SHAPE_REPRESENTATION('brep_rep_0',(#11,#12,#13,#878),
#803);
#15=CLOSED_SHELL('',(#33,#34,#35,#36,#37,#38,#39,#40,#41,#42,#43,#44,#45,
#46,#47,#48,#49));
#16=CLOSED_SHELL('',(#50,#51,#52,#53,#54,#55,#56,#57,#58,#59,#60,#61,#62,
#63,#64,#65));
#17=CLOSED_SHELL('',(#66,#67,#68,#69,#70));
#18=FACE_BOUND('',#115,.T.);
#19=FACE_BOUND('',#116,.T.);
#20=FACE_BOUND('',#117,.T.);
#21=FACE_BOUND('',#124,.T.);
#22=FACE_BOUND('',#125,.T.);
#23=FACE_BOUND('',#126,.T.);
#24=FACE_BOUND('',#138,.T.);
#25=FACE_BOUND('',#139,.T.);
#26=FACE_BOUND('',#142,.T.);
#27=FACE_BOUND('',#143,.T.);
#28=FACE_BOUND('',#145,.T.);
#29=FACE_BOUND('',#146,.T.);
#30=FACE_BOUND('',#149,.T.);
#31=FACE_BOUND('',#150,.T.);
#32=FACE_BOUND('',#161,.T.);
#33=ADVANCED_FACE('',(#71),#709,.F.);
#34=ADVANCED_FACE('',(#72),#710,.F.);
#35=ADVANCED_FACE('',(#73),#680,.T.);
#36=ADVANCED_FACE('',(#74),#681,.T.);
#37=ADVANCED_FACE('',(#75),#682,.T.);
#38=ADVANCED_FACE('',(#76,#18,#19,#20),#683,.T.);
#39=ADVANCED_FACE('',(#77),#684,.T.);
#40=ADVANCED_FACE('',(#78),#685,.T.);
#41=ADVANCED_FACE('',(#79),#686,.T.);
#42=ADVANCED_FACE('',(#80),#687,.T.);
#43=ADVANCED_FACE('',(#81),#688,.T.);
#44=ADVANCED_FACE('',(#82,#21,#22,#23),#689,.T.);
#45=ADVANCED_FACE('',(#83),#690,.T.);
#46=ADVANCED_FACE('',(#84),#691,.T.);
#47=ADVANCED_FACE('',(#85),#692,.T.);
#48=ADVANCED_FACE('',(#86),#693,.T.);
#49=ADVANCED_FACE('',(#87),#711,.F.);
#50=ADVANCED_FACE('',(#88),#712,.F.);
#51=ADVANCED_FACE('',(#89),#713,.F.);
#52=ADVANCED_FACE('',(#90),#694,.T.);
#53=ADVANCED_FACE('',(#91),#695,.T.);
#54=ADVANCED_FACE('',(#92),#696,.T.);
#55=ADVANCED_FACE('',(#93,#24,#25),#697,.T.);
#56=ADVANCED_FACE('',(#94),#698,.T.);
#57=ADVANCED_FACE('',(#95,#26,#27),#699,.T.);
#58=ADVANCED_FACE('',(#96,#28,#29),#700,.T.);
#59=ADVANCED_FACE('',(#97),#701,.T.);
#60=ADVANCED_FACE('',(#98,#30,#31),#702,.T.);
#61=ADVANCED_FACE('',(#99),#703,.T.);
#62=ADVANCED_FACE('',(#100),#704,.T.);
#63=ADVANCED_FACE('',(#101),#705,.T.);
#64=ADVANCED_FACE('',(#102),#714,.F.);
#65=ADVANCED_FACE('',(#103),#715,.F.);
#66=ADVANCED_FACE('',(#104),#716,.T.);
#67=ADVANCED_FACE('',(#105),#706,.T.);
#68=ADVANCED_FACE('',(#106),#717,.T.);
#69=ADVANCED_FACE('',(#107),#707,.T.);
#70=ADVANCED_FACE('',(#108,#32),#708,.T.);
#71=FACE_OUTER_BOUND('',#109,.T.);
#72=FACE_OUTER_BOUND('',#110,.T.);
#73=FACE_OUTER_BOUND('',#111,.T.);
#74=FACE_OUTER_BOUND('',#112,.T.);
#75=FACE_OUTER_BOUND('',#113,.T.);
#76=FACE_OUTER_BOUND('',#114,.T.);
#77=FACE_OUTER_BOUND('',#118,.T.);
#78=FACE_OUTER_BOUND('',#119,.T.);
#79=FACE_OUTER_BOUND('',#120,.T.);
#80=FACE_OUTER_BOUND('',#121,.T.);
#81=FACE_OUTER_BOUND('',#122,.T.);
#82=FACE_OUTER_BOUND('',#123,.T.);
#83=FACE_OUTER_BOUND('',#127,.T.);
#84=FACE_OUTER_BOUND('',#128,.T.);
#85=FACE_OUTER_BOUND('',#129,.T.);
#86=FACE_OUTER_BOUND('',#130,.T.);
#87=FACE_OUTER_BOUND('',#131,.T.);
#88=FACE_OUTER_BOUND('',#132,.T.);
#89=FACE_OUTER_BOUND('',#133,.T.);
#90=FACE_OUTER_BOUND('',#134,.T.);
#91=FACE_OUTER_BOUND('',#135,.T.);
#92=FACE_OUTER_BOUND('',#136,.T.);
#93=FACE_OUTER_BOUND('',#137,.T.);
#94=FACE_OUTER_BOUND('',#140,.T.);
#95=FACE_OUTER_BOUND('',#141,.T.);
#96=FACE_OUTER_BOUND('',#144,.T.);
#97=FACE_OUTER_BOUND('',#147,.T.);
#98=FACE_OUTER_BOUND('',#148,.T.);
#99=FACE_OUTER_BOUND('',#151,.T.);
#100=FACE_OUTER_BOUND('',#152,.T.);
#101=FACE_OUTER_BOUND('',#153,.T.);
#102=FACE_OUTER_BOUND('',#154,.T.);
#103=FACE_OUTER_BOUND('',#155,.T.);
#104=FACE_OUTER_BOUND('',#156,.T.);
#105=FACE_OUTER_BOUND('',#157,.T.);
#106=FACE_OUTER_BOUND('',#158,.T.);
#107=FACE_OUTER_BOUND('',#159,.T.);
#108=FACE_OUTER_BOUND('',#160,.T.);
#109=EDGE_LOOP('',(#162,#163,#164,#165,#166,#167));
#110=EDGE_LOOP('',(#168,#169,#170,#171,#172,#173));
#111=EDGE_LOOP('',(#174,#175,#176,#177));
#112=EDGE_LOOP('',(#178,#179,#180,#181));
#113=EDGE_LOOP('',(#182,#183,#184,#185));
#114=EDGE_LOOP('',(#186,#187,#188,#189));
#115=EDGE_LOOP('',(#190,#191));
#116=EDGE_LOOP('',(#192,#193));
#117=EDGE_LOOP('',(#194));
#118=EDGE_LOOP('',(#195,#196,#197,#198));
#119=EDGE_LOOP('',(#199,#200,#201,#202));
#120=EDGE_LOOP('',(#203,#204,#205,#206));
#121=EDGE_LOOP('',(#207,#208,#209,#210));
#122=EDGE_LOOP('',(#211,#212,#213,#214));
#123=EDGE_LOOP('',(#215,#216,#217,#218));
#124=EDGE_LOOP('',(#219,#220));
#125=EDGE_LOOP('',(#221,#222));
#126=EDGE_LOOP('',(#223));
#127=EDGE_LOOP('',(#224,#225,#226,#227));
#128=EDGE_LOOP('',(#228,#229,#230,#231));
#129=EDGE_LOOP('',(#232,#233,#234,#235,#236,#237,#238,#239,#240,#241,#242,
#243));
#130=EDGE_LOOP('',(#244,#245,#246,#247,#248,#249,#250,#251,#252,#253,#254,
#255));
#131=EDGE_LOOP('',(#256,#257,#258,#259));
#132=EDGE_LOOP('',(#260,#261,#262,#263,#264,#265));
#133=EDGE_LOOP('',(#266,#267,#268,#269,#270,#271));
#134=EDGE_LOOP('',(#272,#273,#274,#275));
#135=EDGE_LOOP('',(#276,#277,#278,#279));
#136=EDGE_LOOP('',(#280,#281,#282,#283));
#137=EDGE_LOOP('',(#284,#285,#286,#287));
#138=EDGE_LOOP('',(#288,#289));
#139=EDGE_LOOP('',(#290,#291));
#140=EDGE_LOOP('',(#292,#293,#294,#295));
#141=EDGE_LOOP('',(#296,#297,#298,#299));
#142=EDGE_LOOP('',(#300,#301));
#143=EDGE_LOOP('',(#302,#303));
#144=EDGE_LOOP('',(#304,#305,#306,#307));
#145=EDGE_LOOP('',(#308,#309));
#146=EDGE_LOOP('',(#310,#311));
#147=EDGE_LOOP('',(#312,#313,#314,#315));
#148=EDGE_LOOP('',(#316,#317,#318,#319));
#149=EDGE_LOOP('',(#320,#321));
#150=EDGE_LOOP('',(#322,#323));
#151=EDGE_LOOP('',(#324,#325,#326,#327));
#152=EDGE_LOOP('',(#328,#329,#330,#331));
#153=EDGE_LOOP('',(#332,#333,#334,#335));
#154=EDGE_LOOP('',(#336,#337,#338,#339,#340,#341));
#155=EDGE_LOOP('',(#342,#343,#344,#345,#346,#347));
#156=EDGE_LOOP('',(#348,#349,#350,#351,#352,#353));
#157=EDGE_LOOP('',(#354,#355));
#158=EDGE_LOOP('',(#356,#357,#358,#359,#360,#361));
#159=EDGE_LOOP('',(#362,#363));
#160=EDGE_LOOP('',(#364,#365));
#161=EDGE_LOOP('',(#366,#367));
#162=ORIENTED_EDGE('',*,*,#368,.T.);
#163=ORIENTED_EDGE('',*,*,#369,.T.);
#164=ORIENTED_EDGE('',*,*,#372,.T.);
#165=ORIENTED_EDGE('',*,*,#370,.T.);
#166=ORIENTED_EDGE('',*,*,#371,.T.);
#167=ORIENTED_EDGE('',*,*,#372,.F.);
#168=ORIENTED_EDGE('',*,*,#373,.T.);
#169=ORIENTED_EDGE('',*,*,#374,.T.);
#170=ORIENTED_EDGE('',*,*,#377,.T.);
#171=ORIENTED_EDGE('',*,*,#375,.T.);
#172=ORIENTED_EDGE('',*,*,#376,.T.);
#173=ORIENTED_EDGE('',*,*,#377,.F.);
#174=ORIENTED_EDGE('',*,*,#381,.F.);
#175=ORIENTED_EDGE('',*,*,#380,.F.);
#176=ORIENTED_EDGE('',*,*,#379,.F.);
#177=ORIENTED_EDGE('',*,*,#378,.F.);
#178=ORIENTED_EDGE('',*,*,#379,.T.);
#179=ORIENTED_EDGE('',*,*,#384,.F.);
#180=ORIENTED_EDGE('',*,*,#383,.F.);
#181=ORIENTED_EDGE('',*,*,#382,.F.);
#182=ORIENTED_EDGE('',*,*,#383,.T.);
#183=ORIENTED_EDGE('',*,*,#387,.F.);
#184=ORIENTED_EDGE('',*,*,#386,.F.);
#185=ORIENTED_EDGE('',*,*,#385,.F.);
#186=ORIENTED_EDGE('',*,*,#390,.F.);
#187=ORIENTED_EDGE('',*,*,#389,.F.);
#188=ORIENTED_EDGE('',*,*,#388,.F.);
#189=ORIENTED_EDGE('',*,*,#386,.T.);
#190=ORIENTED_EDGE('',*,*,#368,.F.);
#191=ORIENTED_EDGE('',*,*,#369,.F.);
#192=ORIENTED_EDGE('',*,*,#374,.F.);
#193=ORIENTED_EDGE('',*,*,#373,.F.);
#194=ORIENTED_EDGE('',*,*,#414,.F.);
#195=ORIENTED_EDGE('',*,*,#389,.T.);
#196=ORIENTED_EDGE('',*,*,#393,.F.);
#197=ORIENTED_EDGE('',*,*,#392,.F.);
#198=ORIENTED_EDGE('',*,*,#391,.F.);
#199=ORIENTED_EDGE('',*,*,#392,.T.);
#200=ORIENTED_EDGE('',*,*,#396,.F.);
#201=ORIENTED_EDGE('',*,*,#395,.F.);
#202=ORIENTED_EDGE('',*,*,#394,.F.);
#203=ORIENTED_EDGE('',*,*,#395,.T.);
#204=ORIENTED_EDGE('',*,*,#399,.F.);
#205=ORIENTED_EDGE('',*,*,#398,.F.);
#206=ORIENTED_EDGE('',*,*,#397,.F.);
#207=ORIENTED_EDGE('',*,*,#398,.T.);
#208=ORIENTED_EDGE('',*,*,#402,.F.);
#209=ORIENTED_EDGE('',*,*,#401,.F.);
#210=ORIENTED_EDGE('',*,*,#400,.F.);
#211=ORIENTED_EDGE('',*,*,#401,.T.);
#212=ORIENTED_EDGE('',*,*,#405,.F.);
#213=ORIENTED_EDGE('',*,*,#404,.F.);
#214=ORIENTED_EDGE('',*,*,#403,.F.);
#215=ORIENTED_EDGE('',*,*,#408,.F.);
#216=ORIENTED_EDGE('',*,*,#407,.F.);
#217=ORIENTED_EDGE('',*,*,#406,.F.);
#218=ORIENTED_EDGE('',*,*,#404,.T.);
#219=ORIENTED_EDGE('',*,*,#370,.F.);
#220=ORIENTED_EDGE('',*,*,#371,.F.);
#221=ORIENTED_EDGE('',*,*,#376,.F.);
#222=ORIENTED_EDGE('',*,*,#375,.F.);
#223=ORIENTED_EDGE('',*,*,#415,.F.);
#224=ORIENTED_EDGE('',*,*,#407,.T.);
#225=ORIENTED_EDGE('',*,*,#411,.F.);
#226=ORIENTED_EDGE('',*,*,#410,.F.);
#227=ORIENTED_EDGE('',*,*,#409,.F.);
#228=ORIENTED_EDGE('',*,*,#410,.T.);
#229=ORIENTED_EDGE('',*,*,#413,.F.);
#230=ORIENTED_EDGE('',*,*,#381,.T.);
#231=ORIENTED_EDGE('',*,*,#412,.F.);
#232=ORIENTED_EDGE('',*,*,#378,.T.);
#233=ORIENTED_EDGE('',*,*,#382,.T.);
#234=ORIENTED_EDGE('',*,*,#385,.T.);
#235=ORIENTED_EDGE('',*,*,#388,.T.);
#236=ORIENTED_EDGE('',*,*,#391,.T.);
#237=ORIENTED_EDGE('',*,*,#394,.T.);
#238=ORIENTED_EDGE('',*,*,#397,.T.);
#239=ORIENTED_EDGE('',*,*,#400,.T.);
#240=ORIENTED_EDGE('',*,*,#403,.T.);
#241=ORIENTED_EDGE('',*,*,#406,.T.);
#242=ORIENTED_EDGE('',*,*,#409,.T.);
#243=ORIENTED_EDGE('',*,*,#412,.T.);
#244=ORIENTED_EDGE('',*,*,#411,.T.);
#245=ORIENTED_EDGE('',*,*,#408,.T.);
#246=ORIENTED_EDGE('',*,*,#405,.T.);
#247=ORIENTED_EDGE('',*,*,#402,.T.);
#248=ORIENTED_EDGE('',*,*,#399,.T.);
#249=ORIENTED_EDGE('',*,*,#396,.T.);
#250=ORIENTED_EDGE('',*,*,#393,.T.);
#251=ORIENTED_EDGE('',*,*,#390,.T.);
#252=ORIENTED_EDGE('',*,*,#387,.T.);
#253=ORIENTED_EDGE('',*,*,#384,.T.);
#254=ORIENTED_EDGE('',*,*,#380,.T.);
#255=ORIENTED_EDGE('',*,*,#413,.T.);
#256=ORIENTED_EDGE('',*,*,#414,.T.);
#257=ORIENTED_EDGE('',*,*,#416,.F.);
#258=ORIENTED_EDGE('',*,*,#415,.T.);
#259=ORIENTED_EDGE('',*,*,#416,.T.);
#260=ORIENTED_EDGE('',*,*,#417,.T.);
#261=ORIENTED_EDGE('',*,*,#418,.T.);
#262=ORIENTED_EDGE('',*,*,#421,.T.);
#263=ORIENTED_EDGE('',*,*,#419,.T.);
#264=ORIENTED_EDGE('',*,*,#420,.T.);
#265=ORIENTED_EDGE('',*,*,#421,.F.);
#266=ORIENTED_EDGE('',*,*,#422,.T.);
#267=ORIENTED_EDGE('',*,*,#423,.T.);
#268=ORIENTED_EDGE('',*,*,#426,.T.);
#269=ORIENTED_EDGE('',*,*,#424,.T.);
#270=ORIENTED_EDGE('',*,*,#425,.T.);
#271=ORIENTED_EDGE('',*,*,#426,.F.);
#272=ORIENTED_EDGE('',*,*,#430,.F.);
#273=ORIENTED_EDGE('',*,*,#429,.F.);
#274=ORIENTED_EDGE('',*,*,#428,.F.);
#275=ORIENTED_EDGE('',*,*,#427,.F.);
#276=ORIENTED_EDGE('',*,*,#431,.T.);
#277=ORIENTED_EDGE('',*,*,#434,.T.);
#278=ORIENTED_EDGE('',*,*,#433,.T.);
#279=ORIENTED_EDGE('',*,*,#432,.T.);
#280=ORIENTED_EDGE('',*,*,#435,.F.);
#281=ORIENTED_EDGE('',*,*,#430,.T.);
#282=ORIENTED_EDGE('',*,*,#438,.F.);
#283=ORIENTED_EDGE('',*,*,#432,.F.);
#284=ORIENTED_EDGE('',*,*,#429,.T.);
#285=ORIENTED_EDGE('',*,*,#435,.T.);
#286=ORIENTED_EDGE('',*,*,#433,.F.);
#287=ORIENTED_EDGE('',*,*,#437,.F.);
#288=ORIENTED_EDGE('',*,*,#420,.F.);
#289=ORIENTED_EDGE('',*,*,#419,.F.);
#290=ORIENTED_EDGE('',*,*,#424,.F.);
#291=ORIENTED_EDGE('',*,*,#425,.F.);
#292=ORIENTED_EDGE('',*,*,#436,.T.);
#293=ORIENTED_EDGE('',*,*,#428,.T.);
#294=ORIENTED_EDGE('',*,*,#437,.T.);
#295=ORIENTED_EDGE('',*,*,#434,.F.);
#296=ORIENTED_EDGE('',*,*,#427,.T.);
#297=ORIENTED_EDGE('',*,*,#436,.F.);
#298=ORIENTED_EDGE('',*,*,#431,.F.);
#299=ORIENTED_EDGE('',*,*,#438,.T.);
#300=ORIENTED_EDGE('',*,*,#418,.F.);
#301=ORIENTED_EDGE('',*,*,#417,.F.);
#302=ORIENTED_EDGE('',*,*,#422,.F.);
#303=ORIENTED_EDGE('',*,*,#423,.F.);
#304=ORIENTED_EDGE('',*,*,#442,.T.);
#305=ORIENTED_EDGE('',*,*,#441,.T.);
#306=ORIENTED_EDGE('',*,*,#440,.T.);
#307=ORIENTED_EDGE('',*,*,#439,.T.);
#308=ORIENTED_EDGE('',*,*,#459,.T.);
#309=ORIENTED_EDGE('',*,*,#458,.T.);
#310=ORIENTED_EDGE('',*,*,#453,.T.);
#311=ORIENTED_EDGE('',*,*,#454,.T.);
#312=ORIENTED_EDGE('',*,*,#441,.F.);
#313=ORIENTED_EDGE('',*,*,#445,.T.);
#314=ORIENTED_EDGE('',*,*,#444,.T.);
#315=ORIENTED_EDGE('',*,*,#443,.T.);
#316=ORIENTED_EDGE('',*,*,#448,.T.);
#317=ORIENTED_EDGE('',*,*,#447,.T.);
#318=ORIENTED_EDGE('',*,*,#446,.T.);
#319=ORIENTED_EDGE('',*,*,#444,.F.);
#320=ORIENTED_EDGE('',*,*,#457,.T.);
#321=ORIENTED_EDGE('',*,*,#456,.T.);
#322=ORIENTED_EDGE('',*,*,#451,.T.);
#323=ORIENTED_EDGE('',*,*,#452,.T.);
#324=ORIENTED_EDGE('',*,*,#447,.F.);
#325=ORIENTED_EDGE('',*,*,#450,.T.);
#326=ORIENTED_EDGE('',*,*,#439,.F.);
#327=ORIENTED_EDGE('',*,*,#449,.T.);
#328=ORIENTED_EDGE('',*,*,#440,.F.);
#329=ORIENTED_EDGE('',*,*,#443,.F.);
#330=ORIENTED_EDGE('',*,*,#446,.F.);
#331=ORIENTED_EDGE('',*,*,#449,.F.);
#332=ORIENTED_EDGE('',*,*,#450,.F.);
#333=ORIENTED_EDGE('',*,*,#448,.F.);
#334=ORIENTED_EDGE('',*,*,#445,.F.);
#335=ORIENTED_EDGE('',*,*,#442,.F.);
#336=ORIENTED_EDGE('',*,*,#451,.F.);
#337=ORIENTED_EDGE('',*,*,#452,.F.);
#338=ORIENTED_EDGE('',*,*,#455,.T.);
#339=ORIENTED_EDGE('',*,*,#453,.F.);
#340=ORIENTED_EDGE('',*,*,#454,.F.);
#341=ORIENTED_EDGE('',*,*,#455,.F.);
#342=ORIENTED_EDGE('',*,*,#456,.F.);
#343=ORIENTED_EDGE('',*,*,#457,.F.);
#344=ORIENTED_EDGE('',*,*,#460,.T.);
#345=ORIENTED_EDGE('',*,*,#458,.F.);
#346=ORIENTED_EDGE('',*,*,#459,.F.);
#347=ORIENTED_EDGE('',*,*,#460,.F.);
#348=ORIENTED_EDGE('',*,*,#465,.F.);
#349=ORIENTED_EDGE('',*,*,#464,.F.);
#350=ORIENTED_EDGE('',*,*,#463,.F.);
#351=ORIENTED_EDGE('',*,*,#465,.T.);
#352=ORIENTED_EDGE('',*,*,#462,.F.);
#353=ORIENTED_EDGE('',*,*,#461,.F.);
#354=ORIENTED_EDGE('',*,*,#463,.T.);
#355=ORIENTED_EDGE('',*,*,#464,.T.);
#356=ORIENTED_EDGE('',*,*,#470,.T.);
#357=ORIENTED_EDGE('',*,*,#469,.F.);
#358=ORIENTED_EDGE('',*,*,#468,.F.);
#359=ORIENTED_EDGE('',*,*,#470,.F.);
#360=ORIENTED_EDGE('',*,*,#467,.F.);
#361=ORIENTED_EDGE('',*,*,#466,.F.);
#362=ORIENTED_EDGE('',*,*,#466,.T.);
#363=ORIENTED_EDGE('',*,*,#467,.T.);
#364=ORIENTED_EDGE('',*,*,#469,.T.);
#365=ORIENTED_EDGE('',*,*,#468,.T.);
#366=ORIENTED_EDGE('',*,*,#461,.T.);
#367=ORIENTED_EDGE('',*,*,#462,.T.);
#368=EDGE_CURVE('',#606,#607,#540,.T.);
#369=EDGE_CURVE('',#607,#606,#541,.T.);
#370=EDGE_CURVE('',#608,#609,#542,.T.);
#371=EDGE_CURVE('',#609,#608,#543,.T.);
#372=EDGE_CURVE('',#606,#608,#472,.T.);
#373=EDGE_CURVE('',#610,#611,#544,.T.);
#374=EDGE_CURVE('',#611,#610,#545,.T.);
#375=EDGE_CURVE('',#612,#613,#546,.T.);
#376=EDGE_CURVE('',#613,#612,#547,.T.);
#377=EDGE_CURVE('',#610,#612,#473,.T.);
#378=EDGE_CURVE('',#614,#615,#474,.T.);
#379=EDGE_CURVE('',#615,#616,#475,.T.);
#380=EDGE_CURVE('',#616,#617,#476,.T.);
#381=EDGE_CURVE('',#617,#614,#477,.T.);
#382=EDGE_CURVE('',#615,#618,#478,.T.);
#383=EDGE_CURVE('',#618,#619,#479,.T.);
#384=EDGE_CURVE('',#619,#616,#480,.T.);
#385=EDGE_CURVE('',#618,#620,#481,.T.);
#386=EDGE_CURVE('',#620,#621,#482,.T.);
#387=EDGE_CURVE('',#621,#619,#483,.T.);
#388=EDGE_CURVE('',#620,#622,#484,.T.);
#389=EDGE_CURVE('',#622,#623,#485,.T.);
#390=EDGE_CURVE('',#623,#621,#486,.T.);
#391=EDGE_CURVE('',#622,#624,#487,.T.);
#392=EDGE_CURVE('',#624,#625,#488,.T.);
#393=EDGE_CURVE('',#625,#623,#489,.T.);
#394=EDGE_CURVE('',#624,#626,#490,.T.);
#395=EDGE_CURVE('',#626,#627,#491,.T.);
#396=EDGE_CURVE('',#627,#625,#492,.T.);
#397=EDGE_CURVE('',#626,#628,#493,.T.);
#398=EDGE_CURVE('',#628,#629,#494,.T.);
#399=EDGE_CURVE('',#629,#627,#495,.T.);
#400=EDGE_CURVE('',#628,#630,#496,.T.);
#401=EDGE_CURVE('',#630,#631,#497,.T.);
#402=EDGE_CURVE('',#631,#629,#498,.T.);
#403=EDGE_CURVE('',#630,#632,#499,.T.);
#404=EDGE_CURVE('',#632,#633,#500,.T.);
#405=EDGE_CURVE('',#633,#631,#501,.T.);
#406=EDGE_CURVE('',#632,#634,#502,.T.);
#407=EDGE_CURVE('',#634,#635,#503,.T.);
#408=EDGE_CURVE('',#635,#633,#504,.T.);
#409=EDGE_CURVE('',#634,#636,#505,.T.);
#410=EDGE_CURVE('',#636,#637,#506,.T.);
#411=EDGE_CURVE('',#637,#635,#507,.T.);
#412=EDGE_CURVE('',#636,#614,#508,.T.);
#413=EDGE_CURVE('',#617,#637,#509,.T.);
#414=EDGE_CURVE('',#638,#638,#580,.T.);
#415=EDGE_CURVE('',#639,#639,#581,.T.);
#416=EDGE_CURVE('',#639,#638,#471,.T.);
#417=EDGE_CURVE('',#640,#641,#548,.T.);
#418=EDGE_CURVE('',#641,#640,#549,.T.);
#419=EDGE_CURVE('',#642,#643,#550,.T.);
#420=EDGE_CURVE('',#643,#642,#551,.T.);
#421=EDGE_CURVE('',#640,#642,#510,.T.);
#422=EDGE_CURVE('',#644,#645,#552,.T.);
#423=EDGE_CURVE('',#645,#644,#553,.T.);
#424=EDGE_CURVE('',#646,#647,#554,.T.);
#425=EDGE_CURVE('',#647,#646,#555,.T.);
#426=EDGE_CURVE('',#644,#646,#511,.T.);
#427=EDGE_CURVE('',#648,#649,#512,.T.);
#428=EDGE_CURVE('',#649,#650,#513,.T.);
#429=EDGE_CURVE('',#650,#651,#514,.T.);
#430=EDGE_CURVE('',#651,#648,#515,.T.);
#431=EDGE_CURVE('',#652,#653,#516,.T.);
#432=EDGE_CURVE('',#654,#652,#517,.T.);
#433=EDGE_CURVE('',#655,#654,#518,.T.);
#434=EDGE_CURVE('',#653,#655,#519,.T.);
#435=EDGE_CURVE('',#651,#654,#520,.T.);
#436=EDGE_CURVE('',#653,#649,#521,.T.);
#437=EDGE_CURVE('',#650,#655,#522,.T.);
#438=EDGE_CURVE('',#652,#648,#523,.T.);
#439=EDGE_CURVE('',#660,#661,#524,.T.);
#440=EDGE_CURVE('',#662,#660,#525,.T.);
#441=EDGE_CURVE('',#663,#662,#526,.T.);
#442=EDGE_CURVE('',#661,#663,#527,.T.);
#443=EDGE_CURVE('',#664,#662,#528,.T.);
#444=EDGE_CURVE('',#665,#664,#529,.T.);
#445=EDGE_CURVE('',#663,#665,#530,.T.);
#446=EDGE_CURVE('',#670,#664,#531,.T.);
#447=EDGE_CURVE('',#671,#670,#532,.T.);
#448=EDGE_CURVE('',#665,#671,#533,.T.);
#449=EDGE_CURVE('',#660,#670,#534,.T.);
#450=EDGE_CURVE('',#671,#661,#535,.T.);
#451=EDGE_CURVE('',#669,#668,#556,.T.);
#452=EDGE_CURVE('',#668,#669,#557,.T.);
#453=EDGE_CURVE('',#659,#658,#558,.T.);
#454=EDGE_CURVE('',#658,#659,#559,.T.);
#455=EDGE_CURVE('',#668,#658,#536,.T.);
#456=EDGE_CURVE('',#667,#666,#560,.T.);
#457=EDGE_CURVE('',#666,#667,#561,.T.);
#458=EDGE_CURVE('',#657,#656,#562,.T.);
#459=EDGE_CURVE('',#656,#657,#563,.T.);
#460=EDGE_CURVE('',#666,#656,#537,.T.);
#461=EDGE_CURVE('',#672,#673,#564,.T.);
#462=EDGE_CURVE('',#673,#672,#565,.T.);
#463=EDGE_CURVE('',#674,#675,#566,.T.);
#464=EDGE_CURVE('',#675,#674,#567,.T.);
#465=EDGE_CURVE('',#674,#672,#538,.T.);
#466=EDGE_CURVE('',#676,#677,#568,.T.);
#467=EDGE_CURVE('',#677,#676,#569,.T.);
#468=EDGE_CURVE('',#678,#679,#570,.T.);
#469=EDGE_CURVE('',#679,#678,#571,.T.);
#470=EDGE_CURVE('',#676,#678,#539,.T.);
#471=(
BOUNDED_CURVE()
B_SPLINE_CURVE(1,(#1143,#1144),.UNSPECIFIED.,.F.,.F.)
B_SPLINE_CURVE_WITH_KNOTS((2,2),(0.0331251850864261,0.0411052352355911),
 .UNSPECIFIED.)
CURVE()
GEOMETRIC_REPRESENTATION_ITEM()
RATIONAL_B_SPLINE_CURVE((1.,1.))
REPRESENTATION_ITEM('')
);
#472=B_SPLINE_CURVE_WITH_KNOTS('',1,(#1053,#1054),.UNSPECIFIED.,.F.,.F.,
(2,2),(0.0100000000000354,7.99005014916502),.UNSPECIFIED.);
#473=B_SPLINE_CURVE_WITH_KNOTS('',1,(#1067,#1068),.UNSPECIFIED.,.F.,.F.,
(2,2),(0.0100000000000231,7.990050149165),.UNSPECIFIED.);
#474=B_SPLINE_CURVE_WITH_KNOTS('',1,(#1069,#1070),.UNSPECIFIED.,.F.,.F.,
(2,2),(8.97954284604714E-28,8.),.UNSPECIFIED.);
#475=B_SPLINE_CURVE_WITH_KNOTS('',1,(#1071,#1072),.UNSPECIFIED.,.F.,.F.,
(2,2),(-310.000000000001,0.),.UNSPECIFIED.);
#476=B_SPLINE_CURVE_WITH_KNOTS('',1,(#1073,#1074),.UNSPECIFIED.,.F.,.F.,
(2,2),(-8.,0.),.UNSPECIFIED.);
#477=B_SPLINE_CURVE_WITH_KNOTS('',1,(#1075,#1076),.UNSPECIFIED.,.F.,.F.,
(2,2),(0.,310.000000000001),.UNSPECIFIED.);
#478=B_SPLINE_CURVE_WITH_KNOTS('',1,(#1077,#1078),.UNSPECIFIED.,.F.,.F.,
(2,2),(-7.10542735760115E-15,31.8431457505076),.UNSPECIFIED.);
#479=B_SPLINE_CURVE_WITH_KNOTS('',1,(#1079,#1080),.UNSPECIFIED.,.F.,.F.,
(2,2),(-310.000000000001,0.),.UNSPECIFIED.);
#480=B_SPLINE_CURVE_WITH_KNOTS('',1,(#1081,#1082),.UNSPECIFIED.,.F.,.F.,
(2,2),(-31.8431457505076,0.),.UNSPECIFIED.);
#481=B_SPLINE_CURVE_WITH_KNOTS('',1,(#1083,#1084),.UNSPECIFIED.,.F.,.F.,
(2,2),(-7.38657096712759E-28,8.48528137423857),.UNSPECIFIED.);
#482=B_SPLINE_CURVE_WITH_KNOTS('',1,(#1085,#1086),.UNSPECIFIED.,.F.,.F.,
(2,2),(-310.000000000001,0.),.UNSPECIFIED.);
#483=B_SPLINE_CURVE_WITH_KNOTS('',1,(#1087,#1088),.UNSPECIFIED.,.F.,.F.,
(2,2),(-8.48528137423857,0.),.UNSPECIFIED.);
#484=B_SPLINE_CURVE_WITH_KNOTS('',1,(#1089,#1090),.UNSPECIFIED.,.F.,.F.,
(2,2),(-1.46664599509605E-28,40.3137084989849),.UNSPECIFIED.);
#485=B_SPLINE_CURVE_WITH_KNOTS('',1,(#1091,#1092),.UNSPECIFIED.,.F.,.F.,
(2,2),(-310.000000000001,0.),.UNSPECIFIED.);
#486=B_SPLINE_CURVE_WITH_KNOTS('',1,(#1093,#1094),.UNSPECIFIED.,.F.,.F.,
(2,2),(-40.3137084989849,0.),.UNSPECIFIED.);
#487=B_SPLINE_CURVE_WITH_KNOTS('',1,(#1095,#1096),.UNSPECIFIED.,.F.,.F.,
(2,2),(5.31242030966258E-28,8.48528137423857),.UNSPECIFIED.);
#488=B_SPLINE_CURVE_WITH_KNOTS('',1,(#1097,#1098),.UNSPECIFIED.,.F.,.F.,
(2,2),(-310.000000000001,0.),.UNSPECIFIED.);
#489=B_SPLINE_CURVE_WITH_KNOTS('',1,(#1099,#1100),.UNSPECIFIED.,.F.,.F.,
(2,2),(-8.48528137423857,0.),.UNSPECIFIED.);
#490=B_SPLINE_CURVE_WITH_KNOTS('',1,(#1101,#1102),.UNSPECIFIED.,.F.,.F.,
(2,2),(-1.46664599509605E-28,31.8431457505076),.UNSPECIFIED.);
#491=B_SPLINE_CURVE_WITH_KNOTS('',1,(#1103,#1104),.UNSPECIFIED.,.F.,.F.,
(2,2),(-310.000000000001,0.),.UNSPECIFIED.);
#492=B_SPLINE_CURVE_WITH_KNOTS('',1,(#1105,#1106),.UNSPECIFIED.,.F.,.F.,
(2,2),(-31.8431457505076,0.),.UNSPECIFIED.);
#493=B_SPLINE_CURVE_WITH_KNOTS('',1,(#1107,#1108),.UNSPECIFIED.,.F.,.F.,
(2,2),(-9.04265171846482E-28,8.),.UNSPECIFIED.);
#494=B_SPLINE_CURVE_WITH_KNOTS('',1,(#1109,#1110),.UNSPECIFIED.,.F.,.F.,
(2,2),(-310.000000000001,0.),.UNSPECIFIED.);
#495=B_SPLINE_CURVE_WITH_KNOTS('',1,(#1111,#1112),.UNSPECIFIED.,.F.,.F.,
(2,2),(-8.,0.),.UNSPECIFIED.);
#496=B_SPLINE_CURVE_WITH_KNOTS('',1,(#1113,#1114),.UNSPECIFIED.,.F.,.F.,
(2,2),(1.46664599509605E-28,28.5294372515228),.UNSPECIFIED.);
#497=B_SPLINE_CURVE_WITH_KNOTS('',1,(#1115,#1116),.UNSPECIFIED.,.F.,.F.,
(2,2),(-310.000000000001,0.),.UNSPECIFIED.);
#498=B_SPLINE_CURVE_WITH_KNOTS('',1,(#1117,#1118),.UNSPECIFIED.,.F.,.F.,
(2,2),(-28.5294372515228,0.),.UNSPECIFIED.);
#499=B_SPLINE_CURVE_WITH_KNOTS('',1,(#1119,#1120),.UNSPECIFIED.,.F.,.F.,
(2,2),(-5.31242030966244E-28,8.45706802462052),.UNSPECIFIED.);
#500=B_SPLINE_CURVE_WITH_KNOTS('',1,(#1121,#1122),.UNSPECIFIED.,.F.,.F.,
(2,2),(-310.000000000001,0.),.UNSPECIFIED.);
#501=B_SPLINE_CURVE_WITH_KNOTS('',1,(#1123,#1124),.UNSPECIFIED.,.F.,.F.,
(2,2),(-8.45706802462052,0.),.UNSPECIFIED.);
#502=B_SPLINE_CURVE_WITH_KNOTS('',1,(#1125,#1126),.UNSPECIFIED.,.F.,.F.,
(2,2),(1.46664599509605E-28,46.9810251986241),.UNSPECIFIED.);
#503=B_SPLINE_CURVE_WITH_KNOTS('',1,(#1127,#1128),.UNSPECIFIED.,.F.,.F.,
(2,2),(-310.000000000001,0.),.UNSPECIFIED.);
#504=B_SPLINE_CURVE_WITH_KNOTS('',1,(#1129,#1130),.UNSPECIFIED.,.F.,.F.,
(2,2),(-46.9810251986241,0.),.UNSPECIFIED.);
#505=B_SPLINE_CURVE_WITH_KNOTS('',1,(#1131,#1132),.UNSPECIFIED.,.F.,.F.,
(2,2),(7.38657096712754E-28,8.45706802462045),.UNSPECIFIED.);
#506=B_SPLINE_CURVE_WITH_KNOTS('',1,(#1133,#1134),.UNSPECIFIED.,.F.,.F.,
(2,2),(-310.000000000001,0.),.UNSPECIFIED.);
#507=B_SPLINE_CURVE_WITH_KNOTS('',1,(#1135,#1136),.UNSPECIFIED.,.F.,.F.,
(2,2),(-8.45706802462045,0.),.UNSPECIFIED.);
#508=B_SPLINE_CURVE_WITH_KNOTS('',1,(#1137,#1138),.UNSPECIFIED.,.F.,.F.,
(2,2),(1.46664599509605E-28,28.5294372515227),.UNSPECIFIED.);
#509=B_SPLINE_CURVE_WITH_KNOTS('',1,(#1139,#1140),.UNSPECIFIED.,.F.,.F.,
(2,2),(-28.5294372515227,0.),.UNSPECIFIED.);
#510=B_SPLINE_CURVE_WITH_KNOTS('',1,(#1205,#1206),.UNSPECIFIED.,.F.,.F.,
(2,2),(0.0100000000000056,8.00999999999978),.UNSPECIFIED.);
#511=B_SPLINE_CURVE_WITH_KNOTS('',1,(#1219,#1220),.UNSPECIFIED.,.F.,.F.,
(2,2),(0.0100000000000056,8.00999999999978),.UNSPECIFIED.);
#512=B_SPLINE_CURVE_WITH_KNOTS('',1,(#1221,#1222),.UNSPECIFIED.,.F.,.F.,
(2,2),(-40.,40.),.UNSPECIFIED.);
#513=B_SPLINE_CURVE_WITH_KNOTS('',1,(#1223,#1224),.UNSPECIFIED.,.F.,.F.,
(2,2),(-3.99999999999989,3.99999999999989),.UNSPECIFIED.);
#514=B_SPLINE_CURVE_WITH_KNOTS('',1,(#1225,#1226),.UNSPECIFIED.,.F.,.F.,
(2,2),(-40.,40.),.UNSPECIFIED.);
#515=B_SPLINE_CURVE_WITH_KNOTS('',1,(#1227,#1228),.UNSPECIFIED.,.F.,.F.,
(2,2),(-3.99999999999989,3.99999999999989),.UNSPECIFIED.);
#516=B_SPLINE_CURVE_WITH_KNOTS('',1,(#1229,#1230),.UNSPECIFIED.,.F.,.F.,
(2,2),(-40.,40.),.UNSPECIFIED.);
#517=B_SPLINE_CURVE_WITH_KNOTS('',1,(#1231,#1232),.UNSPECIFIED.,.F.,.F.,
(2,2),(-3.99999999999989,3.99999999999989),.UNSPECIFIED.);
#518=B_SPLINE_CURVE_WITH_KNOTS('',1,(#1233,#1234),.UNSPECIFIED.,.F.,.F.,
(2,2),(-40.,40.),.UNSPECIFIED.);
#519=B_SPLINE_CURVE_WITH_KNOTS('',1,(#1235,#1236),.UNSPECIFIED.,.F.,.F.,
(2,2),(-3.99999999999989,3.99999999999989),.UNSPECIFIED.);
#520=B_SPLINE_CURVE_WITH_KNOTS('',1,(#1237,#1238),.UNSPECIFIED.,.F.,.F.,
(2,2),(-90.5,90.5),.UNSPECIFIED.);
#521=B_SPLINE_CURVE_WITH_KNOTS('',1,(#1239,#1240),.UNSPECIFIED.,.F.,.F.,
(2,2),(-90.5,90.5),.UNSPECIFIED.);
#522=B_SPLINE_CURVE_WITH_KNOTS('',1,(#1241,#1242),.UNSPECIFIED.,.F.,.F.,
(2,2),(-90.5,90.5),.UNSPECIFIED.);
#523=B_SPLINE_CURVE_WITH_KNOTS('',1,(#1243,#1244),.UNSPECIFIED.,.F.,.F.,
(2,2),(-90.5,90.5),.UNSPECIFIED.);
#524=B_SPLINE_CURVE_WITH_KNOTS('',1,(#1245,#1246),.UNSPECIFIED.,.F.,.F.,
(2,2),(-90.5,90.5),.UNSPECIFIED.);
#525=B_SPLINE_CURVE_WITH_KNOTS('',1,(#1247,#1248),.UNSPECIFIED.,.F.,.F.,
(2,2),(-40.,40.),.UNSPECIFIED.);
#526=B_SPLINE_CURVE_WITH_KNOTS('',1,(#1249,#1250),.UNSPECIFIED.,.F.,.F.,
(2,2),(-90.5,90.5),.UNSPECIFIED.);
#527=B_SPLINE_CURVE_WITH_KNOTS('',1,(#1251,#1252),.UNSPECIFIED.,.F.,.F.,
(2,2),(-40.,40.),.UNSPECIFIED.);
#528=B_SPLINE_CURVE_WITH_KNOTS('',1,(#1253,#1254),.UNSPECIFIED.,.F.,.F.,
(2,2),(-3.99999999999989,3.99999999999989),.UNSPECIFIED.);
#529=B_SPLINE_CURVE_WITH_KNOTS('',1,(#1255,#1256),.UNSPECIFIED.,.F.,.F.,
(2,2),(-90.5,90.5),.UNSPECIFIED.);
#530=B_SPLINE_CURVE_WITH_KNOTS('',1,(#1257,#1258),.UNSPECIFIED.,.F.,.F.,
(2,2),(-3.99999999999989,3.99999999999989),.UNSPECIFIED.);
#531=B_SPLINE_CURVE_WITH_KNOTS('',1,(#1259,#1260),.UNSPECIFIED.,.F.,.F.,
(2,2),(-40.,40.),.UNSPECIFIED.);
#532=B_SPLINE_CURVE_WITH_KNOTS('',1,(#1261,#1262),.UNSPECIFIED.,.F.,.F.,
(2,2),(-90.5,90.5),.UNSPECIFIED.);
#533=B_SPLINE_CURVE_WITH_KNOTS('',1,(#1263,#1264),.UNSPECIFIED.,.F.,.F.,
(2,2),(-40.,40.),.UNSPECIFIED.);
#534=B_SPLINE_CURVE_WITH_KNOTS('',1,(#1265,#1266),.UNSPECIFIED.,.F.,.F.,
(2,2),(-3.99999999999989,3.99999999999989),.UNSPECIFIED.);
#535=B_SPLINE_CURVE_WITH_KNOTS('',1,(#1267,#1268),.UNSPECIFIED.,.F.,.F.,
(2,2),(-3.99999999999989,3.99999999999989),.UNSPECIFIED.);
#536=B_SPLINE_CURVE_WITH_KNOTS('',1,(#1281,#1282),.UNSPECIFIED.,.F.,.F.,
(2,2),(0.00999999999999401,8.00999999999977),.UNSPECIFIED.);
#537=B_SPLINE_CURVE_WITH_KNOTS('',1,(#1295,#1296),.UNSPECIFIED.,.F.,.F.,
(2,2),(0.00999999999999401,8.00999999999977),.UNSPECIFIED.);
#538=B_SPLINE_CURVE_WITH_KNOTS('',1,(#1322,#1323),.UNSPECIFIED.,.F.,.F.,
(2,2),(0.0100000000000104,110.010000000003),.UNSPECIFIED.);
#539=B_SPLINE_CURVE_WITH_KNOTS('',1,(#1336,#1337),.UNSPECIFIED.,.F.,.F.,
(2,2),(0.0100000000000031,5.01000000000021),.UNSPECIFIED.);
#540=TRIMMED_CURVE($,#572,(#1042),(#1043),.T.,.CARTESIAN.);
#541=TRIMMED_CURVE($,#573,(#1045),(#1046),.T.,.CARTESIAN.);
#542=TRIMMED_CURVE($,#574,(#1048),(#1049),.T.,.CARTESIAN.);
#543=TRIMMED_CURVE($,#575,(#1051),(#1052),.T.,.CARTESIAN.);
#544=TRIMMED_CURVE($,#576,(#1056),(#1057),.T.,.CARTESIAN.);
#545=TRIMMED_CURVE($,#577,(#1059),(#1060),.T.,.CARTESIAN.);
#546=TRIMMED_CURVE($,#578,(#1062),(#1063),.T.,.CARTESIAN.);
#547=TRIMMED_CURVE($,#579,(#1065),(#1066),.T.,.CARTESIAN.);
#548=TRIMMED_CURVE($,#582,(#1194),(#1195),.T.,.CARTESIAN.);
#549=TRIMMED_CURVE($,#583,(#1197),(#1198),.T.,.CARTESIAN.);
#550=TRIMMED_CURVE($,#584,(#1200),(#1201),.T.,.CARTESIAN.);
#551=TRIMMED_CURVE($,#585,(#1203),(#1204),.T.,.CARTESIAN.);
#552=TRIMMED_CURVE($,#586,(#1208),(#1209),.T.,.CARTESIAN.);
#553=TRIMMED_CURVE($,#587,(#1211),(#1212),.T.,.CARTESIAN.);
#554=TRIMMED_CURVE($,#588,(#1214),(#1215),.T.,.CARTESIAN.);
#555=TRIMMED_CURVE($,#589,(#1217),(#1218),.T.,.CARTESIAN.);
#556=TRIMMED_CURVE($,#590,(#1270),(#1271),.T.,.CARTESIAN.);
#557=TRIMMED_CURVE($,#591,(#1273),(#1274),.T.,.CARTESIAN.);
#558=TRIMMED_CURVE($,#592,(#1276),(#1277),.T.,.CARTESIAN.);
#559=TRIMMED_CURVE($,#593,(#1279),(#1280),.T.,.CARTESIAN.);
#560=TRIMMED_CURVE($,#594,(#1284),(#1285),.T.,.CARTESIAN.);
#561=TRIMMED_CURVE($,#595,(#1287),(#1288),.T.,.CARTESIAN.);
#562=TRIMMED_CURVE($,#596,(#1290),(#1291),.T.,.CARTESIAN.);
#563=TRIMMED_CURVE($,#597,(#1293),(#1294),.T.,.CARTESIAN.);
#564=TRIMMED_CURVE($,#598,(#1311),(#1312),.T.,.CARTESIAN.);
#565=TRIMMED_CURVE($,#599,(#1314),(#1315),.T.,.CARTESIAN.);
#566=TRIMMED_CURVE($,#600,(#1317),(#1318),.T.,.CARTESIAN.);
#567=TRIMMED_CURVE($,#601,(#1320),(#1321),.T.,.CARTESIAN.);
#568=TRIMMED_CURVE($,#602,(#1325),(#1326),.T.,.CARTESIAN.);
#569=TRIMMED_CURVE($,#603,(#1328),(#1329),.T.,.CARTESIAN.);
#570=TRIMMED_CURVE($,#604,(#1331),(#1332),.T.,.CARTESIAN.);
#571=TRIMMED_CURVE($,#605,(#1334),(#1335),.T.,.CARTESIAN.);
#572=CIRCLE('',#823,0.0139999999999998);
#573=CIRCLE('',#824,0.0139999999999998);
#574=CIRCLE('',#825,0.0139999999999998);
#575=CIRCLE('',#826,0.0139999999999998);
#576=CIRCLE('',#827,0.00899999999999992);
#577=CIRCLE('',#828,0.0089999999999999);
#578=CIRCLE('',#829,0.00899999999999987);
#579=CIRCLE('',#830,0.0089999999999999);
#580=CIRCLE('',#831,0.00900000000000011);
#581=CIRCLE('',#832,0.00900000000000011);
#582=CIRCLE('',#849,0.0129999999999999);
#583=CIRCLE('',#850,0.0129999999999999);
#584=CIRCLE('',#851,0.0129999999999999);
#585=CIRCLE('',#852,0.0129999999999999);
#586=CIRCLE('',#853,0.0129999999999999);
#587=CIRCLE('',#854,0.0129999999999999);
#588=CIRCLE('',#855,0.0129999999999999);
#589=CIRCLE('',#856,0.0129999999999999);
#590=CIRCLE('',#857,0.0129999999999999);
#591=CIRCLE('',#858,0.0129999999999999);
#592=CIRCLE('',#859,0.0129999999999999);
#593=CIRCLE('',#860,0.0129999999999999);
#594=CIRCLE('',#861,0.0129999999999999);
#595=CIRCLE('',#862,0.0129999999999999);
#596=CIRCLE('',#863,0.0129999999999999);
#597=CIRCLE('',#864,0.0129999999999999);
#598=CIRCLE('',#870,0.0125000000000002);
#599=CIRCLE('',#871,0.0125000000000002);
#600=CIRCLE('',#872,0.0125000000000002);
#601=CIRCLE('',#873,0.0125000000000002);
#602=CIRCLE('',#874,0.0150000000000001);
#603=CIRCLE('',#875,0.0150000000000001);
#604=CIRCLE('',#876,0.0150000000000001);
#605=CIRCLE('',#877,0.0150000000000001);
#606=VERTEX_POINT('',#1007);
#607=VERTEX_POINT('',#1008);
#608=VERTEX_POINT('',#1009);
#609=VERTEX_POINT('',#1010);
#610=VERTEX_POINT('',#1011);
#611=VERTEX_POINT('',#1012);
#612=VERTEX_POINT('',#1013);
#613=VERTEX_POINT('',#1014);
#614=VERTEX_POINT('',#1015);
#615=VERTEX_POINT('',#1016);
#616=VERTEX_POINT('',#1017);
#617=VERTEX_POINT('',#1018);
#618=VERTEX_POINT('',#1019);
#619=VERTEX_POINT('',#1020);
#620=VERTEX_POINT('',#1021);
#621=VERTEX_POINT('',#1022);
#622=VERTEX_POINT('',#1023);
#623=VERTEX_POINT('',#1024);
#624=VERTEX_POINT('',#1025);
#625=VERTEX_POINT('',#1026);
#626=VERTEX_POINT('',#1027);
#627=VERTEX_POINT('',#1028);
#628=VERTEX_POINT('',#1029);
#629=VERTEX_POINT('',#1030);
#630=VERTEX_POINT('',#1031);
#631=VERTEX_POINT('',#1032);
#632=VERTEX_POINT('',#1033);
#633=VERTEX_POINT('',#1034);
#634=VERTEX_POINT('',#1035);
#635=VERTEX_POINT('',#1036);
#636=VERTEX_POINT('',#1037);
#637=VERTEX_POINT('',#1038);
#638=VERTEX_POINT('',#1039);
#639=VERTEX_POINT('',#1040);
#640=VERTEX_POINT('',#1161);
#641=VERTEX_POINT('',#1162);
#642=VERTEX_POINT('',#1163);
#643=VERTEX_POINT('',#1164);
#644=VERTEX_POINT('',#1165);
#645=VERTEX_POINT('',#1166);
#646=VERTEX_POINT('',#1167);
#647=VERTEX_POINT('',#1168);
#648=VERTEX_POINT('',#1169);
#649=VERTEX_POINT('',#1170);
#650=VERTEX_POINT('',#1171);
#651=VERTEX_POINT('',#1172);
#652=VERTEX_POINT('',#1173);
#653=VERTEX_POINT('',#1174);
#654=VERTEX_POINT('',#1175);
#655=VERTEX_POINT('',#1176);
#656=VERTEX_POINT('',#1177);
#657=VERTEX_POINT('',#1178);
#658=VERTEX_POINT('',#1179);
#659=VERTEX_POINT('',#1180);
#660=VERTEX_POINT('',#1181);
#661=VERTEX_POINT('',#1182);
#662=VERTEX_POINT('',#1183);
#663=VERTEX_POINT('',#1184);
#664=VERTEX_POINT('',#1185);
#665=VERTEX_POINT('',#1186);
#666=VERTEX_POINT('',#1187);
#667=VERTEX_POINT('',#1188);
#668=VERTEX_POINT('',#1189);
#669=VERTEX_POINT('',#1190);
#670=VERTEX_POINT('',#1191);
#671=VERTEX_POINT('',#1192);
#672=VERTEX_POINT('',#1302);
#673=VERTEX_POINT('',#1303);
#674=VERTEX_POINT('',#1304);
#675=VERTEX_POINT('',#1305);
#676=VERTEX_POINT('',#1306);
#677=VERTEX_POINT('',#1307);
#678=VERTEX_POINT('',#1308);
#679=VERTEX_POINT('',#1309);
#680=PLANE('',#808);
#681=PLANE('',#809);
#682=PLANE('',#810);
#683=PLANE('',#811);
#684=PLANE('',#812);
#685=PLANE('',#813);
#686=PLANE('',#814);
#687=PLANE('',#815);
#688=PLANE('',#816);
#689=PLANE('',#817);
#690=PLANE('',#818);
#691=PLANE('',#819);
#692=PLANE('',#820);
#693=PLANE('',#821);
#694=PLANE('',#835);
#695=PLANE('',#836);
#696=PLANE('',#837);
#697=PLANE('',#838);
#698=PLANE('',#839);
#699=PLANE('',#840);
#700=PLANE('',#841);
#701=PLANE('',#842);
#702=PLANE('',#843);
#703=PLANE('',#844);
#704=PLANE('',#845);
#705=PLANE('',#846);
#706=PLANE('',#866);
#707=PLANE('',#868);
#708=PLANE('',#869);
#709=CYLINDRICAL_SURFACE('',#806,0.0139999999999998);
#710=CYLINDRICAL_SURFACE('',#807,0.0089999999999999);
#711=CYLINDRICAL_SURFACE('',#822,0.00900000000000011);
#712=CYLINDRICAL_SURFACE('',#833,0.0129999999999999);
#713=CYLINDRICAL_SURFACE('',#834,0.0129999999999999);
#714=CYLINDRICAL_SURFACE('',#847,0.0129999999999999);
#715=CYLINDRICAL_SURFACE('',#848,0.0129999999999999);
#716=CYLINDRICAL_SURFACE('',#865,0.0125000000000002);
#717=CYLINDRICAL_SURFACE('',#867,0.0150000000000001);
#718=SHAPE_DEFINITION_REPRESENTATION(#719,#804);
#719=PRODUCT_DEFINITION_SHAPE($,$,#721);
#720=PRODUCT_DEFINITION_CONTEXT('3D Mechanical Parts',#793,'design');
#721=PRODUCT_DEFINITION('A','First version',#763,#720);
#722=DATE_TIME_ROLE('classification_date');
#723=DATE_TIME_ROLE('creation_date');
#724=APPLIED_DATE_AND_TIME_ASSIGNMENT(#748,#722,(#727));
#725=APPLIED_DATE_AND_TIME_ASSIGNMENT(#750,#723,(#721));
#726=SECURITY_CLASSIFICATION_LEVEL('unclassified');
#727=SECURITY_CLASSIFICATION('A','Security for version',#726);
#728=APPLIED_SECURITY_CLASSIFICATION_ASSIGNMENT(#727,(#763));
#729=APPROVAL_ROLE('Version approval');
#730=APPROVAL_ROLE('Version Security approval');
#731=APPROVAL_ROLE('Definition approval');
#732=APPROVAL_PERSON_ORGANIZATION(#781,#757,#729);
#733=APPROVAL_PERSON_ORGANIZATION(#782,#758,#730);
#734=APPROVAL_PERSON_ORGANIZATION(#785,#759,#731);
#735=COORDINATED_UNIVERSAL_TIME_OFFSET(5,0,.BEHIND.);
#736=LOCAL_TIME(0,0,0.,#735);
#737=LOCAL_TIME(0,0,0.,#735);
#738=LOCAL_TIME(0,0,0.,#735);
#739=LOCAL_TIME(0,0,0.,#735);
#740=LOCAL_TIME(0,0,0.,#735);
#741=CALENDAR_DATE(1999,1,1);
#742=CALENDAR_DATE(1999,1,1);
#743=CALENDAR_DATE(1999,1,1);
#744=CALENDAR_DATE(1999,1,1);
#745=CALENDAR_DATE(1999,1,1);
#746=DATE_AND_TIME(#741,#736);
#747=DATE_AND_TIME(#742,#737);
#748=DATE_AND_TIME(#743,#738);
#749=DATE_AND_TIME(#744,#739);
#750=DATE_AND_TIME(#745,#740);
#751=APPROVAL_DATE_TIME(#746,#757);
#752=APPROVAL_DATE_TIME(#747,#758);
#753=APPROVAL_DATE_TIME(#749,#759);
#754=APPROVAL_STATUS('not_yet_approved');
#755=APPROVAL_STATUS('not_yet_approved');
#756=APPROVAL_STATUS('approved');
#757=APPROVAL(#754,'Version approval');
#758=APPROVAL(#755,'Version Security approval');
#759=APPROVAL(#756,'Definition approval');
#760=APPLIED_APPROVAL_ASSIGNMENT(#757,(#763));
#761=APPLIED_APPROVAL_ASSIGNMENT(#758,(#727));
#762=APPLIED_APPROVAL_ASSIGNMENT(#759,(#721));
#763=PRODUCT_DEFINITION_FORMATION_WITH_SPECIFIED_SOURCE('A',
'First version',#795,.MADE.);
#764=PERSON_AND_ORGANIZATION_ROLE('design_owner');
#765=PERSON_AND_ORGANIZATION_ROLE('creator');
#766=PERSON_AND_ORGANIZATION_ROLE('design_supplier');
#767=PERSON_AND_ORGANIZATION_ROLE('classification_officer');
#768=PERSON_AND_ORGANIZATION_ROLE('creator');
#769=ORGANIZATION('STI','lab','lab');
#770=ORGANIZATION('STI','unknown','unknown');
#771=ORGANIZATION('STI','unknown','unknown');
#772=ORGANIZATION('STI','unknown','unknown');
#773=ORGANIZATION('STI','unknown','unknown');
#774=ORGANIZATION('STI','unknown','unknown');
#775=ORGANIZATION('STI','unknown','unknown');
#776=PERSON('1','Box','vc60',$,$,$);
#777=PERSON('2','last','first',$,$,$);
#778=PERSON('3','President','Mr.',$,$,$);
#779=PERSON_AND_ORGANIZATION(#776,#769);
#780=PERSON_AND_ORGANIZATION(#777,#770);
#781=PERSON_AND_ORGANIZATION(#778,#771);
#782=PERSON_AND_ORGANIZATION(#778,#772);
#783=PERSON_AND_ORGANIZATION(#778,#773);
#784=PERSON_AND_ORGANIZATION(#777,#774);
#785=PERSON_AND_ORGANIZATION(#778,#775);
#786=APPLIED_PERSON_AND_ORGANIZATION_ASSIGNMENT(#779,#764,(#795));
#787=APPLIED_PERSON_AND_ORGANIZATION_ASSIGNMENT(#780,#765,(#763));
#788=APPLIED_PERSON_AND_ORGANIZATION_ASSIGNMENT(#780,#766,(#763));
#789=APPLIED_PERSON_AND_ORGANIZATION_ASSIGNMENT(#783,#767,(#727));
#790=APPLIED_PERSON_AND_ORGANIZATION_ASSIGNMENT(#784,#768,(#721));
#791=PRODUCT_RELATED_PRODUCT_CATEGORY('detail','detail',(#795));
#792=APPLICATION_PROTOCOL_DEFINITION('International Standard',
'config_control_design',1994,#793);
#793=APPLICATION_CONTEXT(
'configuration controlled 3d designs of mechanical parts and assemblie
s');
#794=PRODUCT_CONTEXT('3D Mechanical Parts',#793,'mechanical');
#795=PRODUCT('Document','Document','',(#794));
#796=(
LENGTH_UNIT()
NAMED_UNIT(*)
SI_UNIT(.MILLI.,.METRE.)
);
#797=(
NAMED_UNIT(*)
PLANE_ANGLE_UNIT()
SI_UNIT($,.RADIAN.)
);
#798=DIMENSIONAL_EXPONENTS(0.,0.,0.,0.,0.,0.,0.);
#799=PLANE_ANGLE_MEASURE_WITH_UNIT(PLANE_ANGLE_MEASURE(0.01745329252),#797);
#800=(
CONVERSION_BASED_UNIT('DEGREES',#799)
NAMED_UNIT(#798)
PLANE_ANGLE_UNIT()
);
#801=(
NAMED_UNIT(*)
SI_UNIT($,.STERADIAN.)
SOLID_ANGLE_UNIT()
);
#802=UNCERTAINTY_MEASURE_WITH_UNIT(LENGTH_MEASURE(0.001),#796,
'DISTANCE_ACCURACY_VALUE',
'Maximum model space distance between geometric entities at asserted c
onnectivities');
#803=(
GEOMETRIC_REPRESENTATION_CONTEXT(3)
GLOBAL_UNCERTAINTY_ASSIGNED_CONTEXT((#802))
GLOBAL_UNIT_ASSIGNED_CONTEXT((#801,#800,#796))
REPRESENTATION_CONTEXT('ID1','3D')
);
#804=SHAPE_REPRESENTATION('Document',(#805,#878),#803);
#805=AXIS2_PLACEMENT_3D($,#989,#879,#880);
#806=AXIS2_PLACEMENT_3D('',#990,#881,$);
#807=AXIS2_PLACEMENT_3D('',#991,#882,$);
#808=AXIS2_PLACEMENT_3D('',#992,#883,$);
#809=AXIS2_PLACEMENT_3D('',#993,#884,$);
#810=AXIS2_PLACEMENT_3D('',#994,#885,$);
#811=AXIS2_PLACEMENT_3D('',#995,#886,$);
#812=AXIS2_PLACEMENT_3D('',#996,#887,$);
#813=AXIS2_PLACEMENT_3D('',#997,#888,$);
#814=AXIS2_PLACEMENT_3D('',#998,#889,$);
#815=AXIS2_PLACEMENT_3D('',#999,#890,$);
#816=AXIS2_PLACEMENT_3D('',#1000,#891,$);
#817=AXIS2_PLACEMENT_3D('',#1001,#892,$);
#818=AXIS2_PLACEMENT_3D('',#1002,#893,$);
#819=AXIS2_PLACEMENT_3D('',#1003,#894,$);
#820=AXIS2_PLACEMENT_3D('',#1004,#895,$);
#821=AXIS2_PLACEMENT_3D('',#1005,#896,$);
#822=AXIS2_PLACEMENT_3D('',#1006,#897,$);
#823=AXIS2_PLACEMENT_3D($,#1041,#898,#899);
#824=AXIS2_PLACEMENT_3D($,#1044,#900,#901);
#825=AXIS2_PLACEMENT_3D($,#1047,#902,#903);
#826=AXIS2_PLACEMENT_3D($,#1050,#904,#905);
#827=AXIS2_PLACEMENT_3D($,#1055,#906,#907);
#828=AXIS2_PLACEMENT_3D($,#1058,#908,#909);
#829=AXIS2_PLACEMENT_3D($,#1061,#910,#911);
#830=AXIS2_PLACEMENT_3D($,#1064,#912,#913);
#831=AXIS2_PLACEMENT_3D($,#1141,#914,#915);
#832=AXIS2_PLACEMENT_3D($,#1142,#916,#917);
#833=AXIS2_PLACEMENT_3D('',#1145,#918,$);
#834=AXIS2_PLACEMENT_3D('',#1146,#919,$);
#835=AXIS2_PLACEMENT_3D('',#1147,#920,$);
#836=AXIS2_PLACEMENT_3D('',#1148,#921,$);
#837=AXIS2_PLACEMENT_3D('',#1149,#922,$);
#838=AXIS2_PLACEMENT_3D('',#1150,#923,$);
#839=AXIS2_PLACEMENT_3D('',#1151,#924,$);
#840=AXIS2_PLACEMENT_3D('',#1152,#925,$);
#841=AXIS2_PLACEMENT_3D('',#1153,#926,$);
#842=AXIS2_PLACEMENT_3D('',#1154,#927,$);
#843=AXIS2_PLACEMENT_3D('',#1155,#928,$);
#844=AXIS2_PLACEMENT_3D('',#1156,#929,$);
#845=AXIS2_PLACEMENT_3D('',#1157,#930,$);
#846=AXIS2_PLACEMENT_3D('',#1158,#931,$);
#847=AXIS2_PLACEMENT_3D('',#1159,#932,$);
#848=AXIS2_PLACEMENT_3D('',#1160,#933,$);
#849=AXIS2_PLACEMENT_3D($,#1193,#934,#935);
#850=AXIS2_PLACEMENT_3D($,#1196,#936,#937);
#851=AXIS2_PLACEMENT_3D($,#1199,#938,#939);
#852=AXIS2_PLACEMENT_3D($,#1202,#940,#941);
#853=AXIS2_PLACEMENT_3D($,#1207,#942,#943);
#854=AXIS2_PLACEMENT_3D($,#1210,#944,#945);
#855=AXIS2_PLACEMENT_3D($,#1213,#946,#947);
#856=AXIS2_PLACEMENT_3D($,#1216,#948,#949);
#857=AXIS2_PLACEMENT_3D($,#1269,#950,#951);
#858=AXIS2_PLACEMENT_3D($,#1272,#952,#953);
#859=AXIS2_PLACEMENT_3D($,#1275,#954,#955);
#860=AXIS2_PLACEMENT_3D($,#1278,#956,#957);
#861=AXIS2_PLACEMENT_3D($,#1283,#958,#959);
#862=AXIS2_PLACEMENT_3D($,#1286,#960,#961);
#863=AXIS2_PLACEMENT_3D($,#1289,#962,#963);
#864=AXIS2_PLACEMENT_3D($,#1292,#964,#965);
#865=AXIS2_PLACEMENT_3D('',#1297,#966,$);
#866=AXIS2_PLACEMENT_3D('',#1298,#967,$);
#867=AXIS2_PLACEMENT_3D('',#1299,#968,$);
#868=AXIS2_PLACEMENT_3D('',#1300,#969,$);
#869=AXIS2_PLACEMENT_3D('',#1301,#970,$);
#870=AXIS2_PLACEMENT_3D($,#1310,#971,#972);
#871=AXIS2_PLACEMENT_3D($,#1313,#973,#974);
#872=AXIS2_PLACEMENT_3D($,#1316,#975,#976);
#873=AXIS2_PLACEMENT_3D($,#1319,#977,#978);
#874=AXIS2_PLACEMENT_3D($,#1324,#979,#980);
#875=AXIS2_PLACEMENT_3D($,#1327,#981,#982);
#876=AXIS2_PLACEMENT_3D($,#1330,#983,#984);
#877=AXIS2_PLACEMENT_3D($,#1333,#985,#986);
#878=AXIS2_PLACEMENT_3D($,#1338,#987,#988);
#879=DIRECTION('',(0.,0.,1.));
#880=DIRECTION('',(1.,0.,0.));
#881=DIRECTION('',(-1.11517937741368E-15,3.71726459137923E-16,-1.));
#882=DIRECTION('',(-9.63735264431587E-17,1.44560289664734E-15,-1.));
#883=DIRECTION('',(0.,-1.,0.));
#884=DIRECTION('',(0.,0.,-1.));
#885=DIRECTION('',(3.95302208988681E-17,0.707106781186547,-0.707106781186548));
#886=DIRECTION('',(0.,0.,-1.));
#887=DIRECTION('',(9.46329530609269E-17,-0.707106781186547,-0.707106781186548));
#888=DIRECTION('',(0.,0.,-1.));
#889=DIRECTION('',(0.,1.,0.));
#890=DIRECTION('',(0.,0.,1.));
#891=DIRECTION('',(-6.4685816016325E-17,0.707106781186534,0.707106781186561));
#892=DIRECTION('',(0.,0.,1.));
#893=DIRECTION('',(-5.51027321620566E-17,-0.707106781186541,0.707106781186554));
#894=DIRECTION('',(0.,0.,1.));
#895=DIRECTION('',(1.,0.,0.));
#896=DIRECTION('',(-1.,0.,0.));
#897=DIRECTION('',(-3.92783984439661E-16,1.15402677500222E-15,-1.));
#898=DIRECTION('',(-9.29316147844745E-17,1.45592863162339E-15,-1.));
#899=DIRECTION('',(-1.,-1.68515994809178E-14,6.19544098563156E-17));
#900=DIRECTION('',(-9.29316147844727E-17,-5.88566893634991E-16,-1.));
#901=DIRECTION('',(1.,1.66037818414925E-14,-1.23908819712631E-16));
#902=DIRECTION('',(-8.67361737988416E-16,-4.95635278850544E-16,1.));
#903=DIRECTION('',(-1.,1.49929671852283E-14,-8.67361737988417E-16));
#904=DIRECTION('',(-8.67361737988416E-16,-3.7172645913786E-16,1.));
#905=DIRECTION('',(1.,-1.53646936443662E-14,8.67361737988417E-16));
#906=DIRECTION('',(-9.63735264431585E-17,1.44560289664734E-15,-1.));
#907=DIRECTION('',(-1.,-1.06010879087472E-14,9.63735264431568E-17));
#908=DIRECTION('',(-9.63735264431555E-17,-1.63834994953366E-15,-1.));
#909=DIRECTION('',(1.,1.2914052543383E-14,-1.92747052886314E-16));
#910=DIRECTION('',(-1.44560289664736E-15,9.63735264430847E-17,1.));
#911=DIRECTION('',(-1.,7.51713506256627E-15,-1.3492293702042E-15));
#912=DIRECTION('',(-1.44560289664736E-15,9.63735264432228E-17,1.));
#913=DIRECTION('',(1.,-6.16790569236205E-15,1.3492293702042E-15));
#914=DIRECTION('',(-1.41123171301396E-16,9.82139017667722E-16,-1.));
#915=DIRECTION('',(0.796197994886435,0.605036158373051,4.81867632215774E-16));
#916=DIRECTION('',(2.45042348853365E-17,-8.28674200639373E-16,1.));
#917=DIRECTION('',(0.796197994886436,0.60503615837305,5.78241158658929E-16));
#918=DIRECTION('',(-5.33761069531329E-16,1.,5.33761069531325E-16));
#919=DIRECTION('',(-1.06752213906266E-15,1.,1.06752213906265E-15));
#920=DIRECTION('',(1.,0.,0.));
#921=DIRECTION('',(-1.,0.,0.));
#922=DIRECTION('',(0.,0.,1.));
#923=DIRECTION('',(0.,-1.,0.));
#924=DIRECTION('',(0.,0.,-1.));
#925=DIRECTION('',(0.,1.,0.));
#926=DIRECTION('',(0.,-1.,0.));
#927=DIRECTION('',(0.,0.,1.));
#928=DIRECTION('',(0.,1.,0.));
#929=DIRECTION('',(0.,0.,-1.));
#930=DIRECTION('',(-1.,0.,0.));
#931=DIRECTION('',(1.,0.,0.));
#932=DIRECTION('',(-1.06752213906266E-15,1.,1.06752213906265E-15));
#933=DIRECTION('',(-8.00641604296994E-16,1.,8.00641604296988E-16));
#934=DIRECTION('',(4.00320802148497E-15,1.,8.00641604296987E-16));
#935=DIRECTION('',(-1.,4.27008855625064E-15,-8.00641604296994E-15));
#936=DIRECTION('',(4.00320802148497E-15,1.,1.86816374335964E-15));
#937=DIRECTION('',(1.,-3.73632748671931E-15,8.54017711250127E-15));
#938=DIRECTION('',(-1.28102656687519E-14,-1.,-1.60128320859397E-15));
#939=DIRECTION('',(-1.,1.28102656687519E-14,9.0739381820326E-15));
#940=DIRECTION('',(-1.22765045992206E-14,-1.,-1.06752213906265E-15));
#941=DIRECTION('',(1.,-1.22765045992206E-14,-8.00641604296994E-15));
#942=DIRECTION('',(3.7363274867193E-15,1.,1.06752213906265E-15));
#943=DIRECTION('',(-1.,3.7363274867193E-15,-5.87137176484462E-15));
#944=DIRECTION('',(3.7363274867193E-15,1.,1.60128320859398E-15));
#945=DIRECTION('',(1.,-3.7363274867193E-15,5.87137176484461E-15));
#946=DIRECTION('',(-1.25433851339862E-14,-1.,-1.33440267382832E-15));
#947=DIRECTION('',(-1.,1.28102656687519E-14,5.87137176484462E-15));
#948=DIRECTION('',(-1.25433851339862E-14,-1.,-1.3344026738283E-15));
#949=DIRECTION('',(1.,-1.22765045992206E-14,-8.00641604296993E-15));
#950=DIRECTION('',(1.06752213906266E-15,-1.,-1.06752213906265E-15));
#951=DIRECTION('',(1.,1.06752213906266E-15,-7.4726549734386E-15));
#952=DIRECTION('',(1.06752213906266E-15,-1.,-1.60128320859398E-15));
#953=DIRECTION('',(-1.,-1.06752213906266E-15,5.87137176484462E-15));
#954=DIRECTION('',(7.47265497343861E-15,1.,1.60128320859398E-15));
#955=DIRECTION('',(1.,-7.47265497343862E-15,6.93889390390729E-15));
#956=DIRECTION('',(7.47265497343861E-15,1.,1.06752213906265E-15));
#957=DIRECTION('',(-1.,7.4726549734386E-15,-8.54017711250126E-15));
#958=DIRECTION('',(8.00641604296994E-16,-1.,-8.00641604296987E-16));
#959=DIRECTION('',(1.,5.33761069531329E-16,-8.54017711250127E-15));
#960=DIRECTION('',(2.66880534765665E-16,-1.,-1.33440267382831E-15));
#961=DIRECTION('',(-1.,-5.33761069531329E-16,9.0739381820326E-15));
#962=DIRECTION('',(8.27329657773561E-15,1.,2.40192481289096E-15));
#963=DIRECTION('',(1.,-8.00641604296994E-15,8.00641604296994E-15));
#964=DIRECTION('',(8.80705764726693E-15,1.,-2.66880534765663E-16));
#965=DIRECTION('',(-1.,9.0739381820326E-15,-6.93889390390728E-15));
#966=DIRECTION('',(1.11022302462514E-15,-1.,-1.38777878078137E-15));
#967=DIRECTION('',(0.,-1.,0.));
#968=DIRECTION('',(-9.25185853854289E-16,1.,1.85037170770862E-15));
#969=DIRECTION('',(0.,1.,0.));
#970=DIRECTION('',(0.,-1.,0.));
#971=DIRECTION('',(-1.11022302462514E-15,1.,1.11022302462524E-15));
#972=DIRECTION('',(-1.,-5.5511151231257E-16,1.49880108324394E-14));
#973=DIRECTION('',(-1.11022302462514E-15,1.,1.66533453693766E-15));
#974=DIRECTION('',(1.,1.11022302462514E-15,-1.66533453693771E-14));
#975=DIRECTION('',(1.11022302462514E-15,-1.,-1.11022302462508E-15));
#976=DIRECTION('',(-1.,-1.11022302462514E-15,-1.66533453693771E-14));
#977=DIRECTION('',(1.11022302462514E-15,-1.,-1.11022302462523E-15));
#978=DIRECTION('',(1.,1.11022302462514E-15,1.38777878078142E-14));
#979=DIRECTION('',(-1.38777878078143E-15,1.,1.38777878078149E-15));
#980=DIRECTION('',(-1.,-1.38777878078143E-15,7.86407975776145E-15));
#981=DIRECTION('',(-1.38777878078143E-15,1.,1.38777878078141E-15));
#982=DIRECTION('',(1.,1.38777878078143E-15,-8.3266726846886E-15));
#983=DIRECTION('',(4.62592926927145E-16,-1.,-1.38777878078143E-15));
#984=DIRECTION('',(-1.,-4.62592926927144E-16,-8.78926561161574E-15));
#985=DIRECTION('',(4.62592926927144E-16,-1.,-1.38777878078146E-15));
#986=DIRECTION('',(1.,4.62592926927145E-16,6.47630097698003E-15));
#987=DIRECTION('',(0.,0.,1.));
#988=DIRECTION('',(1.,0.,0.));
#989=CARTESIAN_POINT('',(0.,0.,0.));
#990=CARTESIAN_POINT('',(0.209999999999999,3.33066907387547E-16,0.00999002507458244));
#991=CARTESIAN_POINT('',(0.177,1.94289029309402E-16,0.00999002507458245));
#992=CARTESIAN_POINT('',(0.267010000000001,-0.058,-1.00000000000516E-5));
#993=CARTESIAN_POINT('',(0.267010000000001,-0.05801,-1.38930394811783E-17));
#994=CARTESIAN_POINT('',(-0.04301,-0.0261639253173044,-7.07106781202708E-6));
#995=CARTESIAN_POINT('',(0.267010000000001,-0.0201668542494924,0.00600000000000002));
#996=CARTESIAN_POINT('',(0.267010000000001,0.0261639253173045,-7.07106781200747E-6));
#997=CARTESIAN_POINT('',(0.267010000000001,0.0261468542494924,2.36586094492754E-17));
#998=CARTESIAN_POINT('',(-0.0430100000000001,0.058,-9.99999999999612E-6));
#999=CARTESIAN_POINT('',(0.267010000000001,0.0580100000000003,0.00800000000000002));
#1000=CARTESIAN_POINT('',(-0.0430100000000001,0.0294776338162891,0.00799292893218803));
#1001=CARTESIAN_POINT('',(0.267010000000001,0.0235005125993122,0.013980050149165));
#1002=CARTESIAN_POINT('',(0.267010000000001,-0.0294776338162894,0.00799292893218795));
#1003=CARTESIAN_POINT('',(0.267010000000001,-0.029460562748477,0.00800000000000001));
#1004=CARTESIAN_POINT('',(0.267,-0.05801,-1.00000000001349E-5));
#1005=CARTESIAN_POINT('',(-0.0429999999999995,-0.05801,-1.00000000001627E-5));
#1006=CARTESIAN_POINT('',(0.0569999999999997,6.67868538251071E-17,-0.00672186608535478));
#1007=CARTESIAN_POINT('',(0.196,9.71445146547012E-17,0.00599999999999997));
#1008=CARTESIAN_POINT('',(0.223999999999999,1.21430643318376E-16,0.00599999999999997));
#1009=CARTESIAN_POINT('',(0.196,9.8879238130678E-17,0.0139800501491649));
#1010=CARTESIAN_POINT('',(0.223999999999999,1.17961196366423E-16,0.013980050149165));
#1011=CARTESIAN_POINT('',(0.168,7.11236625150491E-17,0.00599999999999997));
#1012=CARTESIAN_POINT('',(0.186,8.84708972748172E-17,0.00599999999999997));
#1013=CARTESIAN_POINT('',(0.168,6.76542155630955E-17,0.0139800501491649));
#1014=CARTESIAN_POINT('',(0.186,8.32667268468867E-17,0.013980050149165));
#1015=CARTESIAN_POINT('',(0.267000000000001,-0.058,0.00799999999999999));
#1016=CARTESIAN_POINT('',(0.267000000000001,-0.058,-1.38777878078145E-17));
#1017=CARTESIAN_POINT('',(-0.0430000000000004,-0.058,-1.38777878078145E-17));
#1018=CARTESIAN_POINT('',(-0.0430000000000004,-0.058,0.00799999999999999));
#1019=CARTESIAN_POINT('',(0.267000000000001,-0.0261568542494924,4.08171449298965E-18));
#1020=CARTESIAN_POINT('',(-0.0430000000000004,-0.0261568542494924,-2.36738611226393E-17));
#1021=CARTESIAN_POINT('',(0.267000000000001,-0.0201568542494924,0.00600000000000002));
#1022=CARTESIAN_POINT('',(-0.0430000000000004,-0.0201568542494924,0.00599999999999999));
#1023=CARTESIAN_POINT('',(0.267000000000001,0.0201568542494924,0.00600000000000002));
#1024=CARTESIAN_POINT('',(-0.0430000000000005,0.0201568542494924,0.00599999999999999));
#1025=CARTESIAN_POINT('',(0.267000000000001,0.0261568542494924,2.36738611226393E-17));
#1026=CARTESIAN_POINT('',(-0.0430000000000005,0.0261568542494924,-4.08171449298966E-18));
#1027=CARTESIAN_POINT('',(0.267000000000001,0.058,1.38777878078145E-17));
#1028=CARTESIAN_POINT('',(-0.0430000000000005,0.058,-1.38777878078144E-17));
#1029=CARTESIAN_POINT('',(0.267000000000001,0.058,0.00800000000000002));
#1030=CARTESIAN_POINT('',(-0.0430000000000005,0.058,0.00799999999999999));
#1031=CARTESIAN_POINT('',(0.267000000000001,0.0294705627484772,0.00800000000000001));
#1032=CARTESIAN_POINT('',(-0.0430000000000005,0.0294705627484772,0.00800000000000001));
#1033=CARTESIAN_POINT('',(0.267000000000001,0.023490512599312,0.013980050149165));
#1034=CARTESIAN_POINT('',(-0.0430000000000005,0.023490512599312,0.013980050149165));
#1035=CARTESIAN_POINT('',(0.267000000000001,-0.0234905125993122,0.013980050149165));
#1036=CARTESIAN_POINT('',(-0.0430000000000004,-0.0234905125993122,0.013980050149165));
#1037=CARTESIAN_POINT('',(0.267000000000001,-0.0294705627484773,0.00800000000000001));
#1038=CARTESIAN_POINT('',(-0.0430000000000004,-0.0294705627484773,0.00799999999999998));
#1039=CARTESIAN_POINT('',(0.0641657819539777,0.00544532542535758,0.006));
#1040=CARTESIAN_POINT('',(0.0641657819539778,0.00544532542535757,0.013980050149165));
#1041=CARTESIAN_POINT('',(0.209999999999999,3.33066907387547E-16,0.00599999999999997));
#1042=CARTESIAN_POINT('',(0.196,9.71445146547012E-17,0.00599999999999997));
#1043=CARTESIAN_POINT('',(0.223999999999999,1.23061882110343E-16,0.00599999999999997));
#1044=CARTESIAN_POINT('',(0.209999999999999,-1.11022302462516E-16,0.00599999999999997));
#1045=CARTESIAN_POINT('',(0.223999999999999,1.21430643318376E-16,0.00599999999999997));
#1046=CARTESIAN_POINT('',(0.196,9.62349208287416E-17,0.00599999999999997));
#1047=CARTESIAN_POINT('',(0.209999999999999,-1.11022302462516E-16,0.013980050149165));
#1048=CARTESIAN_POINT('',(0.196,9.8879238130678E-17,0.0139800501491649));
#1049=CARTESIAN_POINT('',(0.223999999999999,1.12569077078539E-16,0.013980050149165));
#1050=CARTESIAN_POINT('',(0.209999999999999,3.33066907387547E-16,0.013980050149165));
#1051=CARTESIAN_POINT('',(0.223999999999999,1.17961196366423E-16,0.013980050149165));
#1052=CARTESIAN_POINT('',(0.196,1.02245200398621E-16,0.0139800501491649));
#1053=CARTESIAN_POINT('',(0.196,9.71445146547012E-17,0.00599999999999997));
#1054=CARTESIAN_POINT('',(0.196,9.8879238130678E-17,0.0139800501491649));
#1055=CARTESIAN_POINT('',(0.177,1.66533453693773E-16,0.00599999999999997));
#1056=CARTESIAN_POINT('',(0.168,7.11236625150491E-17,0.00599999999999997));
#1057=CARTESIAN_POINT('',(0.186,9.11829027797577E-17,0.00599999999999997));
#1058=CARTESIAN_POINT('',(0.177,-2.77555756156289E-17,0.00599999999999997));
#1059=CARTESIAN_POINT('',(0.186,8.84708972748172E-17,0.00599999999999997));
#1060=CARTESIAN_POINT('',(0.168,7.07431253618204E-17,0.00599999999999997));
#1061=CARTESIAN_POINT('',(0.177,0.,0.013980050149165));
#1062=CARTESIAN_POINT('',(0.168,6.76542155630955E-17,0.0139800501491649));
#1063=CARTESIAN_POINT('',(0.186,7.91253091977406E-17,0.013980050149165));
#1064=CARTESIAN_POINT('',(0.177,1.38777878078145E-16,0.013980050149165));
#1065=CARTESIAN_POINT('',(0.186,8.32667268468867E-17,0.013980050149165));
#1066=CARTESIAN_POINT('',(0.168,7.14903218804689E-17,0.0139800501491649));
#1067=CARTESIAN_POINT('',(0.168,7.11236625150491E-17,0.00599999999999997));
#1068=CARTESIAN_POINT('',(0.168,6.76542155630955E-17,0.0139800501491649));
#1069=CARTESIAN_POINT('',(0.267000000000001,-0.058,0.00799999999999999));
#1070=CARTESIAN_POINT('',(0.267000000000001,-0.058,-1.38777878078145E-17));
#1071=CARTESIAN_POINT('',(0.267000000000001,-0.058,-1.38777878078145E-17));
#1072=CARTESIAN_POINT('',(-0.0430000000000004,-0.058,-1.38777878078145E-17));
#1073=CARTESIAN_POINT('',(-0.0430000000000004,-0.058,-1.38777878078145E-17));
#1074=CARTESIAN_POINT('',(-0.0430000000000004,-0.058,0.00799999999999999));
#1075=CARTESIAN_POINT('',(-0.0430000000000004,-0.058,0.00799999999999999));
#1076=CARTESIAN_POINT('',(0.267000000000001,-0.058,0.00799999999999999));
#1077=CARTESIAN_POINT('',(0.267000000000001,-0.058,-1.38777878078145E-17));
#1078=CARTESIAN_POINT('',(0.267000000000001,-0.0261568542494924,4.08171449298965E-18));
#1079=CARTESIAN_POINT('',(0.267000000000001,-0.0261568542494924,4.08171449298965E-18));
#1080=CARTESIAN_POINT('',(-0.0430000000000004,-0.0261568542494924,-2.36738611226393E-17));
#1081=CARTESIAN_POINT('',(-0.0430000000000004,-0.0261568542494924,-2.36738611226393E-17));
#1082=CARTESIAN_POINT('',(-0.0430000000000004,-0.058,-1.38777878078145E-17));
#1083=CARTESIAN_POINT('',(0.267000000000001,-0.0261568542494924,4.08171449298965E-18));
#1084=CARTESIAN_POINT('',(0.267000000000001,-0.0201568542494924,0.00600000000000002));
#1085=CARTESIAN_POINT('',(0.267000000000001,-0.0201568542494924,0.00600000000000002));
#1086=CARTESIAN_POINT('',(-0.0430000000000004,-0.0201568542494924,0.00599999999999999));
#1087=CARTESIAN_POINT('',(-0.0430000000000004,-0.0201568542494924,0.00599999999999999));
#1088=CARTESIAN_POINT('',(-0.0430000000000004,-0.0261568542494924,-2.36738611226393E-17));
#1089=CARTESIAN_POINT('',(0.267000000000001,-0.0201568542494924,0.00600000000000002));
#1090=CARTESIAN_POINT('',(0.267000000000001,0.0201568542494924,0.00600000000000002));
#1091=CARTESIAN_POINT('',(0.267000000000001,0.0201568542494924,0.00600000000000002));
#1092=CARTESIAN_POINT('',(-0.0430000000000005,0.0201568542494924,0.00599999999999999));
#1093=CARTESIAN_POINT('',(-0.0430000000000005,0.0201568542494924,0.00599999999999999));
#1094=CARTESIAN_POINT('',(-0.0430000000000004,-0.0201568542494924,0.00599999999999999));
#1095=CARTESIAN_POINT('',(0.267000000000001,0.0201568542494924,0.00600000000000002));
#1096=CARTESIAN_POINT('',(0.267000000000001,0.0261568542494924,2.36738611226393E-17));
#1097=CARTESIAN_POINT('',(0.267000000000001,0.0261568542494924,2.36738611226393E-17));
#1098=CARTESIAN_POINT('',(-0.0430000000000005,0.0261568542494924,-4.08171449298966E-18));
#1099=CARTESIAN_POINT('',(-0.0430000000000005,0.0261568542494924,-4.08171449298966E-18));
#1100=CARTESIAN_POINT('',(-0.0430000000000005,0.0201568542494924,0.00599999999999999));
#1101=CARTESIAN_POINT('',(0.267000000000001,0.0261568542494924,2.36738611226393E-17));
#1102=CARTESIAN_POINT('',(0.267000000000001,0.058,1.38777878078145E-17));
#1103=CARTESIAN_POINT('',(0.267000000000001,0.058,1.38777878078145E-17));
#1104=CARTESIAN_POINT('',(-0.0430000000000005,0.058,-1.38777878078144E-17));
#1105=CARTESIAN_POINT('',(-0.0430000000000005,0.058,-1.38777878078144E-17));
#1106=CARTESIAN_POINT('',(-0.0430000000000005,0.0261568542494924,-4.08171449298966E-18));
#1107=CARTESIAN_POINT('',(0.267000000000001,0.058,1.38777878078145E-17));
#1108=CARTESIAN_POINT('',(0.267000000000001,0.058,0.00800000000000002));
#1109=CARTESIAN_POINT('',(0.267000000000001,0.058,0.00800000000000002));
#1110=CARTESIAN_POINT('',(-0.0430000000000005,0.058,0.00799999999999999));
#1111=CARTESIAN_POINT('',(-0.0430000000000005,0.058,0.00799999999999999));
#1112=CARTESIAN_POINT('',(-0.0430000000000005,0.058,-1.38777878078144E-17));
#1113=CARTESIAN_POINT('',(0.267000000000001,0.058,0.00800000000000002));
#1114=CARTESIAN_POINT('',(0.267000000000001,0.0294705627484772,0.00800000000000001));
#1115=CARTESIAN_POINT('',(0.267000000000001,0.0294705627484772,0.00800000000000001));
#1116=CARTESIAN_POINT('',(-0.0430000000000005,0.0294705627484772,0.00800000000000001));
#1117=CARTESIAN_POINT('',(-0.0430000000000005,0.0294705627484772,0.00800000000000001));
#1118=CARTESIAN_POINT('',(-0.0430000000000005,0.058,0.00799999999999999));
#1119=CARTESIAN_POINT('',(0.267000000000001,0.0294705627484772,0.00800000000000001));
#1120=CARTESIAN_POINT('',(0.267000000000001,0.023490512599312,0.013980050149165));
#1121=CARTESIAN_POINT('',(0.267000000000001,0.023490512599312,0.013980050149165));
#1122=CARTESIAN_POINT('',(-0.0430000000000005,0.023490512599312,0.013980050149165));
#1123=CARTESIAN_POINT('',(-0.0430000000000005,0.023490512599312,0.013980050149165));
#1124=CARTESIAN_POINT('',(-0.0430000000000005,0.0294705627484772,0.00800000000000001));
#1125=CARTESIAN_POINT('',(0.267000000000001,0.023490512599312,0.013980050149165));
#1126=CARTESIAN_POINT('',(0.267000000000001,-0.0234905125993122,0.013980050149165));
#1127=CARTESIAN_POINT('',(0.267000000000001,-0.0234905125993122,0.013980050149165));
#1128=CARTESIAN_POINT('',(-0.0430000000000004,-0.0234905125993122,0.013980050149165));
#1129=CARTESIAN_POINT('',(-0.0430000000000004,-0.0234905125993122,0.013980050149165));
#1130=CARTESIAN_POINT('',(-0.0430000000000005,0.023490512599312,0.013980050149165));
#1131=CARTESIAN_POINT('',(0.267000000000001,-0.0234905125993122,0.013980050149165));
#1132=CARTESIAN_POINT('',(0.267000000000001,-0.0294705627484773,0.00800000000000001));
#1133=CARTESIAN_POINT('',(0.267000000000001,-0.0294705627484773,0.00800000000000001));
#1134=CARTESIAN_POINT('',(-0.0430000000000004,-0.0294705627484773,0.00799999999999998));
#1135=CARTESIAN_POINT('',(-0.0430000000000004,-0.0294705627484773,0.00799999999999998));
#1136=CARTESIAN_POINT('',(-0.0430000000000004,-0.0234905125993122,0.013980050149165));
#1137=CARTESIAN_POINT('',(0.267000000000001,-0.0294705627484773,0.00800000000000001));
#1138=CARTESIAN_POINT('',(0.267000000000001,-0.058,0.00799999999999999));
#1139=CARTESIAN_POINT('',(-0.0430000000000004,-0.058,0.00799999999999999));
#1140=CARTESIAN_POINT('',(-0.0430000000000004,-0.0294705627484773,0.00799999999999998));
#1141=CARTESIAN_POINT('',(0.0569999999999997,5.3776427755281E-17,0.006));
#1142=CARTESIAN_POINT('',(0.0569999999999998,5.07046732172223E-17,0.013980050149165));
#1143=CARTESIAN_POINT('',(0.0641657819539778,0.00544532542535757,0.013980050149165));
#1144=CARTESIAN_POINT('',(0.0641657819539777,0.00544532542535758,0.006));
#1145=CARTESIAN_POINT('',(-3.14018491736756E-16,0.0390000000000001,0.061));
#1146=CARTESIAN_POINT('',(0.11,0.0390000000000002,0.061));
#1147=CARTESIAN_POINT('',(0.138,0.0349900000000002,0.08801));
#1148=CARTESIAN_POINT('',(-0.0430000000000005,0.0349900000000002,0.08801));
#1149=CARTESIAN_POINT('',(-0.0430100000000001,0.03499,0.088));
#1150=CARTESIAN_POINT('',(0.13801,0.0350000000000002,0.0880100000000001));
#1151=CARTESIAN_POINT('',(0.13801,0.0349900000000001,0.00800000000000003));
#1152=CARTESIAN_POINT('',(-0.0430100000000001,0.0429999999999999,0.0880100000000001));
#1153=CARTESIAN_POINT('',(-0.04301,-0.0429999999999998,0.00798999999999998));
#1154=CARTESIAN_POINT('',(0.13801,-0.03499,0.0880000000000001));
#1155=CARTESIAN_POINT('',(0.13801,-0.0350000000000001,0.00799));
#1156=CARTESIAN_POINT('',(-0.04301,-0.0349899999999999,0.00800000000000003));
#1157=CARTESIAN_POINT('',(-0.0430000000000004,-0.0349900000000001,0.00799000000000004));
#1158=CARTESIAN_POINT('',(0.138,-0.0349900000000001,0.00799000000000006));
#1159=CARTESIAN_POINT('',(0.11,-0.039,0.0609999999999999));
#1160=CARTESIAN_POINT('',(-2.50233485602728E-16,-0.0390000000000001,0.0609999999999999));
#1161=CARTESIAN_POINT('',(-0.0130000000000002,0.043,0.0609999999999999));
#1162=CARTESIAN_POINT('',(0.0129999999999996,0.0429999999999999,0.0609999999999999));
#1163=CARTESIAN_POINT('',(-0.0130000000000002,0.0350000000000002,0.0609999999999999));
#1164=CARTESIAN_POINT('',(0.0129999999999996,0.0349999999999999,0.0609999999999999));
#1165=CARTESIAN_POINT('',(0.0970000000000001,0.043,0.061));
#1166=CARTESIAN_POINT('',(0.123,0.0429999999999999,0.0609999999999999));
#1167=CARTESIAN_POINT('',(0.0970000000000001,0.0350000000000002,0.0609999999999999));
#1168=CARTESIAN_POINT('',(0.123,0.0349999999999999,0.0609999999999999));
#1169=CARTESIAN_POINT('',(0.138,0.043,0.088));
#1170=CARTESIAN_POINT('',(0.138,0.0430000000000001,0.00800000000000004));
#1171=CARTESIAN_POINT('',(0.138,0.0350000000000003,0.00800000000000003));
#1172=CARTESIAN_POINT('',(0.138,0.0350000000000002,0.088));
#1173=CARTESIAN_POINT('',(-0.0430000000000005,0.043,0.088));
#1174=CARTESIAN_POINT('',(-0.0430000000000005,0.0430000000000001,0.00800000000000003));
#1175=CARTESIAN_POINT('',(-0.0430000000000005,0.0350000000000002,0.088));
#1176=CARTESIAN_POINT('',(-0.0430000000000005,0.0350000000000003,0.00800000000000002));
#1177=CARTESIAN_POINT('',(-0.0130000000000001,-0.0429999999999999,0.0609999999999998));
#1178=CARTESIAN_POINT('',(0.0129999999999997,-0.0430000000000002,0.0609999999999998));
#1179=CARTESIAN_POINT('',(0.0970000000000002,-0.0429999999999999,0.0609999999999998));
#1180=CARTESIAN_POINT('',(0.123,-0.0430000000000001,0.0609999999999998));
#1181=CARTESIAN_POINT('',(-0.0430000000000004,-0.0429999999999998,0.00800000000000001));
#1182=CARTESIAN_POINT('',(0.138,-0.0429999999999998,0.00800000000000003));
#1183=CARTESIAN_POINT('',(-0.0430000000000004,-0.0429999999999999,0.088));
#1184=CARTESIAN_POINT('',(0.138,-0.0429999999999999,0.088));
#1185=CARTESIAN_POINT('',(-0.0430000000000004,-0.0350000000000002,0.088));
#1186=CARTESIAN_POINT('',(0.138,-0.0350000000000002,0.0880000000000001));
#1187=CARTESIAN_POINT('',(-0.0130000000000002,-0.0350000000000002,0.0609999999999998));
#1188=CARTESIAN_POINT('',(0.0129999999999997,-0.0350000000000002,0.0609999999999998));
#1189=CARTESIAN_POINT('',(0.0970000000000002,-0.0350000000000001,0.0609999999999998));
#1190=CARTESIAN_POINT('',(0.123,-0.0350000000000001,0.0609999999999998));
#1191=CARTESIAN_POINT('',(-0.0430000000000004,-0.0350000000000001,0.00800000000000003));
#1192=CARTESIAN_POINT('',(0.138,-0.0350000000000001,0.00800000000000004));
#1193=CARTESIAN_POINT('',(-3.18925030670143E-16,0.0429999999999999,0.061));
#1194=CARTESIAN_POINT('',(-0.0130000000000002,0.043,0.0609999999999999));
#1195=CARTESIAN_POINT('',(0.0129999999999996,0.0429999999999999,0.0609999999999999));
#1196=CARTESIAN_POINT('',(-3.18925030670143E-16,0.0429999999999999,0.0609999999999998));
#1197=CARTESIAN_POINT('',(0.0129999999999996,0.0429999999999999,0.0609999999999999));
#1198=CARTESIAN_POINT('',(-0.0130000000000002,0.043,0.0609999999999999));
#1199=CARTESIAN_POINT('',(-3.04205413869983E-16,0.035,0.0609999999999998));
#1200=CARTESIAN_POINT('',(-0.0130000000000002,0.0350000000000002,0.0609999999999999));
#1201=CARTESIAN_POINT('',(0.0129999999999996,0.0349999999999999,0.0609999999999999));
#1202=CARTESIAN_POINT('',(-3.04205413869982E-16,0.035,0.061));
#1203=CARTESIAN_POINT('',(0.0129999999999996,0.0349999999999999,0.0609999999999999));
#1204=CARTESIAN_POINT('',(-0.0130000000000002,0.0350000000000002,0.0609999999999999));
#1205=CARTESIAN_POINT('',(-0.0130000000000002,0.043,0.0609999999999999));
#1206=CARTESIAN_POINT('',(-0.0130000000000002,0.0350000000000002,0.0609999999999999));
#1207=CARTESIAN_POINT('',(0.11,0.043,0.061));
#1208=CARTESIAN_POINT('',(0.0970000000000001,0.043,0.061));
#1209=CARTESIAN_POINT('',(0.123,0.0429999999999999,0.061));
#1210=CARTESIAN_POINT('',(0.11,0.043,0.0609999999999999));
#1211=CARTESIAN_POINT('',(0.123,0.0429999999999999,0.0609999999999999));
#1212=CARTESIAN_POINT('',(0.0970000000000001,0.043,0.0609999999999999));
#1213=CARTESIAN_POINT('',(0.11,0.0350000000000001,0.0609999999999998));
#1214=CARTESIAN_POINT('',(0.0970000000000001,0.0350000000000002,0.0609999999999999));
#1215=CARTESIAN_POINT('',(0.123,0.0349999999999999,0.0609999999999999));
#1216=CARTESIAN_POINT('',(0.11,0.0350000000000001,0.061));
#1217=CARTESIAN_POINT('',(0.123,0.0349999999999999,0.0609999999999999));
#1218=CARTESIAN_POINT('',(0.0970000000000001,0.0350000000000002,0.0609999999999999));
#1219=CARTESIAN_POINT('',(0.0970000000000001,0.043,0.061));
#1220=CARTESIAN_POINT('',(0.0970000000000001,0.0350000000000002,0.0609999999999999));
#1221=CARTESIAN_POINT('',(0.138,0.043,0.088));
#1222=CARTESIAN_POINT('',(0.138,0.0430000000000001,0.00800000000000004));
#1223=CARTESIAN_POINT('',(0.138,0.0430000000000001,0.00800000000000004));
#1224=CARTESIAN_POINT('',(0.138,0.0350000000000003,0.00800000000000003));
#1225=CARTESIAN_POINT('',(0.138,0.0350000000000003,0.00800000000000003));
#1226=CARTESIAN_POINT('',(0.138,0.0350000000000002,0.088));
#1227=CARTESIAN_POINT('',(0.138,0.0350000000000002,0.088));
#1228=CARTESIAN_POINT('',(0.138,0.043,0.088));
#1229=CARTESIAN_POINT('',(-0.0430000000000005,0.043,0.088));
#1230=CARTESIAN_POINT('',(-0.0430000000000005,0.0430000000000001,0.00800000000000003));
#1231=CARTESIAN_POINT('',(-0.0430000000000005,0.0350000000000002,0.088));
#1232=CARTESIAN_POINT('',(-0.0430000000000005,0.043,0.088));
#1233=CARTESIAN_POINT('',(-0.0430000000000005,0.0350000000000003,0.00800000000000002));
#1234=CARTESIAN_POINT('',(-0.0430000000000005,0.0350000000000002,0.088));
#1235=CARTESIAN_POINT('',(-0.0430000000000005,0.0430000000000001,0.00800000000000003));
#1236=CARTESIAN_POINT('',(-0.0430000000000005,0.0350000000000003,0.00800000000000002));
#1237=CARTESIAN_POINT('',(0.138,0.0350000000000002,0.088));
#1238=CARTESIAN_POINT('',(-0.0430000000000005,0.0350000000000002,0.088));
#1239=CARTESIAN_POINT('',(-0.0430000000000005,0.0430000000000001,0.00800000000000003));
#1240=CARTESIAN_POINT('',(0.138,0.0430000000000001,0.00800000000000004));
#1241=CARTESIAN_POINT('',(0.138,0.0350000000000003,0.00800000000000003));
#1242=CARTESIAN_POINT('',(-0.0430000000000005,0.0350000000000003,0.00800000000000002));
#1243=CARTESIAN_POINT('',(-0.0430000000000005,0.043,0.088));
#1244=CARTESIAN_POINT('',(0.138,0.043,0.088));
#1245=CARTESIAN_POINT('',(-0.0430000000000004,-0.0429999999999998,0.00800000000000001));
#1246=CARTESIAN_POINT('',(0.138,-0.0429999999999998,0.00800000000000003));
#1247=CARTESIAN_POINT('',(-0.0430000000000004,-0.0429999999999999,0.088));
#1248=CARTESIAN_POINT('',(-0.0430000000000004,-0.0429999999999998,0.00800000000000001));
#1249=CARTESIAN_POINT('',(0.138,-0.0429999999999999,0.088));
#1250=CARTESIAN_POINT('',(-0.0430000000000004,-0.0429999999999999,0.088));
#1251=CARTESIAN_POINT('',(0.138,-0.0429999999999998,0.00800000000000003));
#1252=CARTESIAN_POINT('',(0.138,-0.0429999999999999,0.088));
#1253=CARTESIAN_POINT('',(-0.0430000000000004,-0.0350000000000002,0.088));
#1254=CARTESIAN_POINT('',(-0.0430000000000004,-0.0429999999999999,0.088));
#1255=CARTESIAN_POINT('',(0.138,-0.0350000000000002,0.0880000000000001));
#1256=CARTESIAN_POINT('',(-0.0430000000000004,-0.0350000000000002,0.088));
#1257=CARTESIAN_POINT('',(0.138,-0.0429999999999999,0.088));
#1258=CARTESIAN_POINT('',(0.138,-0.0350000000000002,0.0880000000000001));
#1259=CARTESIAN_POINT('',(-0.0430000000000004,-0.0350000000000001,0.00800000000000003));
#1260=CARTESIAN_POINT('',(-0.0430000000000004,-0.0350000000000002,0.088));
#1261=CARTESIAN_POINT('',(0.138,-0.0350000000000001,0.00800000000000004));
#1262=CARTESIAN_POINT('',(-0.0430000000000004,-0.0350000000000001,0.00800000000000003));
#1263=CARTESIAN_POINT('',(0.138,-0.0350000000000002,0.0880000000000001));
#1264=CARTESIAN_POINT('',(0.138,-0.0350000000000001,0.00800000000000004));
#1265=CARTESIAN_POINT('',(-0.0430000000000004,-0.0429999999999998,0.00800000000000001));
#1266=CARTESIAN_POINT('',(-0.0430000000000004,-0.0350000000000001,0.00800000000000003));
#1267=CARTESIAN_POINT('',(0.138,-0.0350000000000001,0.00800000000000004));
#1268=CARTESIAN_POINT('',(0.138,-0.0429999999999998,0.00800000000000003));
#1269=CARTESIAN_POINT('',(0.11,-0.0350000000000001,0.0609999999999999));
#1270=CARTESIAN_POINT('',(0.123,-0.0350000000000001,0.0609999999999998));
#1271=CARTESIAN_POINT('',(0.0970000000000002,-0.0350000000000001,0.0609999999999998));
#1272=CARTESIAN_POINT('',(0.11,-0.0350000000000001,0.0609999999999997));
#1273=CARTESIAN_POINT('',(0.0970000000000002,-0.0350000000000001,0.0609999999999998));
#1274=CARTESIAN_POINT('',(0.123,-0.0350000000000001,0.0609999999999998));
#1275=CARTESIAN_POINT('',(0.11,-0.043,0.0609999999999997));
#1276=CARTESIAN_POINT('',(0.123,-0.0430000000000001,0.0609999999999998));
#1277=CARTESIAN_POINT('',(0.0970000000000003,-0.0429999999999999,0.0609999999999998));
#1278=CARTESIAN_POINT('',(0.11,-0.043,0.0609999999999999));
#1279=CARTESIAN_POINT('',(0.0970000000000002,-0.0429999999999999,0.0609999999999998));
#1280=CARTESIAN_POINT('',(0.123,-0.0430000000000001,0.0609999999999998));
#1281=CARTESIAN_POINT('',(0.0970000000000002,-0.0350000000000001,0.0609999999999998));
#1282=CARTESIAN_POINT('',(0.0970000000000002,-0.0429999999999999,0.0609999999999998));
#1283=CARTESIAN_POINT('',(-2.50233485602728E-16,-0.0350000000000002,0.0609999999999999));
#1284=CARTESIAN_POINT('',(0.0129999999999997,-0.0350000000000002,0.0609999999999998));
#1285=CARTESIAN_POINT('',(-0.0130000000000002,-0.0350000000000002,0.0609999999999998));
#1286=CARTESIAN_POINT('',(-2.50233485602728E-16,-0.0350000000000002,0.0609999999999997));
#1287=CARTESIAN_POINT('',(-0.0130000000000002,-0.0350000000000002,0.0609999999999998));
#1288=CARTESIAN_POINT('',(0.0129999999999997,-0.0350000000000002,0.0609999999999998));
#1289=CARTESIAN_POINT('',(-2.45326946669341E-16,-0.0430000000000001,0.0609999999999997));
#1290=CARTESIAN_POINT('',(0.0129999999999997,-0.0430000000000002,0.0609999999999998));
#1291=CARTESIAN_POINT('',(-0.0130000000000002,-0.043,0.0609999999999998));
#1292=CARTESIAN_POINT('',(-2.40420407735954E-16,-0.0430000000000001,0.0609999999999999));
#1293=CARTESIAN_POINT('',(-0.0130000000000001,-0.0429999999999999,0.0609999999999998));
#1294=CARTESIAN_POINT('',(0.0129999999999997,-0.0430000000000002,0.0609999999999998));
#1295=CARTESIAN_POINT('',(-0.0130000000000002,-0.0350000000000002,0.0609999999999998));
#1296=CARTESIAN_POINT('',(-0.0130000000000001,-0.0429999999999999,0.0609999999999998));
#1297=CARTESIAN_POINT('',(0.11,-0.0120000000000014,0.0610000000000004));
#1298=CARTESIAN_POINT('',(0.122510000000001,-0.0670000000000027,0.04849));
#1299=CARTESIAN_POINT('',(0.110000000000001,0.0455000000000001,0.0609999999999997));
#1300=CARTESIAN_POINT('',(0.0949900000000008,0.0480000000000002,0.0459899999999999));
#1301=CARTESIAN_POINT('',(0.125010000000001,0.043,0.0459899999999999));
#1302=CARTESIAN_POINT('',(0.0974999999999999,0.043,0.0610000000000002));
#1303=CARTESIAN_POINT('',(0.1225,0.043,0.0610000000000002));
#1304=CARTESIAN_POINT('',(0.0975,-0.0670000000000028,0.0610000000000001));
#1305=CARTESIAN_POINT('',(0.1225,-0.0670000000000027,0.0610000000000001));
#1306=CARTESIAN_POINT('',(0.0950000000000004,0.0480000000000002,0.0609999999999999));
#1307=CARTESIAN_POINT('',(0.125000000000001,0.0480000000000002,0.0609999999999999));
#1308=CARTESIAN_POINT('',(0.0950000000000004,0.043,0.0609999999999999));
#1309=CARTESIAN_POINT('',(0.125000000000001,0.043,0.0609999999999999));
#1310=CARTESIAN_POINT('',(0.11,0.043,0.061));
#1311=CARTESIAN_POINT('',(0.0974999999999999,0.043,0.0610000000000002));
#1312=CARTESIAN_POINT('',(0.1225,0.043,0.0610000000000002));
#1313=CARTESIAN_POINT('',(0.11,0.043,0.0610000000000004));
#1314=CARTESIAN_POINT('',(0.1225,0.043,0.0610000000000002));
#1315=CARTESIAN_POINT('',(0.0974999999999999,0.043,0.0610000000000002));
#1316=CARTESIAN_POINT('',(0.11,-0.0670000000000027,0.0610000000000003));
#1317=CARTESIAN_POINT('',(0.0975,-0.0670000000000028,0.0610000000000001));
#1318=CARTESIAN_POINT('',(0.1225,-0.0670000000000027,0.0610000000000001));
#1319=CARTESIAN_POINT('',(0.11,-0.0670000000000027,0.0609999999999999));
#1320=CARTESIAN_POINT('',(0.1225,-0.0670000000000027,0.0610000000000001));
#1321=CARTESIAN_POINT('',(0.0975,-0.0670000000000028,0.0610000000000001));
#1322=CARTESIAN_POINT('',(0.0975,-0.0670000000000028,0.0610000000000001));
#1323=CARTESIAN_POINT('',(0.0974999999999999,0.043,0.0610000000000002));
#1324=CARTESIAN_POINT('',(0.110000000000001,0.0480000000000002,0.0609999999999998));
#1325=CARTESIAN_POINT('',(0.0950000000000004,0.0480000000000002,0.0609999999999999));
#1326=CARTESIAN_POINT('',(0.125000000000001,0.0480000000000002,0.0609999999999999));
#1327=CARTESIAN_POINT('',(0.110000000000001,0.0480000000000002,0.061));
#1328=CARTESIAN_POINT('',(0.125000000000001,0.0480000000000002,0.0609999999999999));
#1329=CARTESIAN_POINT('',(0.0950000000000004,0.0480000000000002,0.0609999999999999));
#1330=CARTESIAN_POINT('',(0.110000000000001,0.043,0.061));
#1331=CARTESIAN_POINT('',(0.0950000000000004,0.043,0.0609999999999999));
#1332=CARTESIAN_POINT('',(0.125000000000001,0.043,0.0609999999999999));
#1333=CARTESIAN_POINT('',(0.110000000000001,0.043,0.0609999999999998));
#1334=CARTESIAN_POINT('',(0.125000000000001,0.043,0.0609999999999999));
#1335=CARTESIAN_POINT('',(0.0950000000000004,0.043,0.0609999999999999));
#1336=CARTESIAN_POINT('',(0.0950000000000004,0.0480000000000002,0.0609999999999999));
#1337=CARTESIAN_POINT('',(0.0950000000000004,0.043,0.0609999999999999));
#1338=CARTESIAN_POINT('',(0.,0.,0.));
ENDSEC;
END-ISO-10303-21;
